<svg xmlns="http://www.w3.org/2000/svg" width="5209" height="5209" style="shape-rendering:geometricPrecision;text-rendering:geometricPrecision;image-rendering:optimizeQuality;fill-rule:evenodd;clip-rule:evenodd"><path style="opacity:.206" fill="#fefefe" d="M-.5-.5h5209v5209H-.5V-.5Z"/><path style="opacity:1" fill="#254058" d="M2240.5 353.5h12v20h-12v-20Z"/><path style="opacity:1" fill="#6e7f90" d="M2240.5 353.5c4.13-.985 8.47-1.318 13-1v22c-4.53.318-8.87-.015-13-1h12v-20h-12ZM2240.5 418.5c4.13-.985 8.47-1.318 13-1v46c-4.53.318-8.87-.015-13-1h12v-44h-12Z"/><path style="opacity:1" fill="#254058" d="M2240.5 418.5h12v44h-12v-44Z"/><path style="opacity:1" fill="#5a6d81" d="M2240.5 507.5c4.13-.985 8.47-1.318 13-1v45c-4.53.318-8.87-.015-13-1h12v-43h-12Z"/><path style="opacity:1" fill="#254058" d="M2240.5 507.5h12v43h-12v-43ZM2252.5 595.5v44h-12v-44h12Z"/><path style="opacity:1" fill="#617286" d="M2252.5 595.5c1 14.824 1.33 29.824 1 45-4.53.318-8.87-.015-13-1h12v-44Z"/><path style="opacity:1" fill="#667789" d="M2240.5 684.5c4.13-.985 8.47-1.318 13-1 .33 15.176 0 30.176-1 45v-44h-12Z"/><path style="opacity:1" fill="#29425a" d="M1706.5 663.5c97.05-5.388 178.88 26.945 245.5 97 58.61 67.725 83.28 146.391 74 236-8.66 61.98-33.5 116.31-74.5 163 13.33 48.34 26.67 96.68 40 145-.68 4.85-3.34 6.69-8 5.5-45.04-25.85-90.04-51.68-135-77.5-80.68 32.71-161.02 31.88-241-2.5-92.96-45.67-149.46-119.51-169.5-221.5-14.62-111.857 20.21-204.69 104.5-278.5 48-38.498 102.67-60.664 164-66.5Z"/><path style="opacity:1" fill="#fde175" d="M1718.5 673.5c112.39-.738 198.56 45.929 258.5 140 49.04 87.49 53.37 177.157 13 269-11.48 24.47-26.48 46.47-45 66-2.32 2.97-3.82 6.3-4.5 10 11.89 44.99 24.23 89.82 37 134.5-.33.17-.67.33-1 .5a13365 13365 0 0 0-125-71.5c-2.67-.67-5.33-.67-8 0-64.86 28.49-131.2 32.15-199 11-95.35-33.35-158.18-98.18-188.5-194.5-27.31-109.597-1.81-204.764 76.5-285.5 52.4-48.695 114.4-75.195 186-79.5Z"/><path style="opacity:1" fill="#254058" d="M2240.5 684.5h12v44h-12v-44Z"/><path style="opacity:1" fill="#264059" d="M1717.5 749.5c34.26-1.96 66.59 4.874 97 20.5 24.88 16.256 40.38 39.09 46.5 68.5 4.06 19.297 4.39 38.631 1 58-6.34 20.35-17 38.017-32 53-18.69 18.028-37.36 36.028-56 54-20.88 23.85-28.71 51.52-23.5 83h-63c-6.9-32.72-.4-62.39 19.5-89a203.94 203.94 0 0 0 12-15l45-43c11.44-11.873 20.11-25.54 26-41 6.49-29.184-4.01-49.351-31.5-60.5a97.757 97.757 0 0 0-25-6c-34.44-3.761-67.11 2.073-98 17.5a3651.007 3651.007 0 0 1-28-50.5c11.26-15.643 25.93-26.976 44-34 21.34-8.563 43.34-13.729 66-15.5Z"/><path style="opacity:1" fill="#617285" d="M2252.5 772.5c1 14.824 1.33 29.824 1 45-4.53.318-8.87-.015-13-1h12v-44Z"/><path style="opacity:1" fill="#254058" d="M2252.5 772.5v44h-12v-44h12Z"/><path style="opacity:1" fill="#28425b" d="M2642.5 856.5c13.72-.192 27.39.474 41 2a54.784 54.784 0 0 0-1 12c-13.34-.549-26.67-1.216-40-2v-12Z"/><path style="opacity:1" fill="#28435b" d="M2581.5 856.5c6.67-.166 13.34 0 20 .5.96 3.73 1.29 7.563 1 11.5l-40 3c-.43-4.324-.76-8.658-1-13 6.89.103 13.55-.564 20-2Z"/><path style="opacity:1" fill="#254058" d="M2252.5 861.5v44h-12v-44h12Z"/><path style="opacity:1" fill="#68798b" d="M2252.5 861.5c1 14.824 1.33 29.824 1 45-4.53.318-8.87-.015-13-1h12v-44Z"/><path style="opacity:1" fill="#29435c" d="M2723.5 863.5a323.292 323.292 0 0 1 38 6.5c1.08.674 1.75 1.674 2 3-.75 3.163-1.42 6.33-2 9.5-13.36-2.147-26.7-4.481-40-7 .8-3.976 1.46-7.976 2-12Z"/><path style="opacity:1" fill="#28425a" d="M2516.5 865.5c2.27-.359 4.1.308 5.5 2a98.56 98.56 0 0 0 1.5 8 4.942 4.942 0 0 1-1 2.5 415.775 415.775 0 0 0-36 8.5c-.67-.333-1.33-.667-2-1-.92-3.184-1.92-6.351-3-9.5.33-.5.67-1 1-1.5a631.79 631.79 0 0 0 34-9Z"/><path style="opacity:1" fill="#264059" d="M2939.5 871.5c39.4-.396 64.56 18.271 75.5 56 3.92 30.972-6.91 55.138-32.5 72.5-30.67 15.65-58.84 12.15-84.5-10.5-22.12-26.041-25.46-54.374-10-85 12.39-18.572 29.55-29.572 51.5-33Z"/><path style="opacity:1" fill="#2a445c" d="M2802.5 879.5c7.44.609 14.44 2.609 21 6l-3 10c-6.68-.403-13.35-1.736-20-4-.33-.333-.67-.667-1-1a34.185 34.185 0 0 0 3-11Z"/><path style="opacity:1" fill="#29435b" d="M2440.5 888.5c1.18-.219 2.18.114 3 1a74.229 74.229 0 0 1 4 11c-11.67 3.948-23 8.781-34 14.5-1.28.684-2.45.517-3.5-.5l-4.5-9c.21-.586.54-1.086 1-1.5a758.604 758.604 0 0 1 34-15.5ZM2367.5 925.5c1.32-.17 2.49.163 3.5 1a35.916 35.916 0 0 0 5.5 8.5 1763.728 1763.728 0 0 0-32.5 23.5c-2.33-2.667-4.67-5.333-7-8-.75-1.135-.58-2.135.5-3a9429.932 9429.932 0 0 0 30-22Z"/><path style="opacity:1" fill="#254058" d="M2240.5 950.5h12v43h-12v-43Z"/><path style="opacity:1" fill="#586b7f" d="M2240.5 950.5c4.13-.985 8.47-1.318 13-1v45c-4.53.318-8.87-.015-13-1h12v-43h-12Z"/><path style="opacity:1" fill="#27425a" d="M2304.5 975.5c3.26 2.597 6.26 5.597 9 9-9.4 9.392-18.4 19.06-27 29-3.03-2.7-6.03-5.36-9-8a286.77 286.77 0 0 1 27-30Z"/><path style="opacity:1" fill="#27415a" d="M2240.5 1038.5c4.68-.17 9.35 0 14 .5 2.83 2.25 5.83 4.25 9 6a265.297 265.297 0 0 0-22.5 40.5c-.5-15.66-.67-31.33-.5-47Z"/><path style="opacity:1" fill="#274059" d="M1714.5 1101.5c17.1-2.02 32.43 2.15 46 12.5 13.2 14.96 14.37 30.8 3.5 47.5-8.18 8.96-18.34 14.12-30.5 15.5-16.46 2.92-31.46-.41-45-10-14.61-14.12-16.77-29.95-6.5-47.5 8.66-10.08 19.5-16.08 32.5-18Z"/><path style="opacity:1" fill="#28425a" d="M2693.5 3034.5c-1.42 1.75-3.09 3.42-5 5-.5 1.22-.83 2.38-1 3.5 2.02 1.22 4.02 1.38 6 .5 1.02.69 2.02 1.36 3 2-73.81 12.36-147.81 24.36-222 36a9143.24 9143.24 0 0 0-18.5 167c4.33 1.67 7.33 4.67 9 9 .67 47.67.67 95.33 0 143-1.41 5.07-4.57 8.57-9.5 10.5-6.32.5-12.66.67-19 .5a77528.85 77528.85 0 0 1-60.5 537 145.07 145.07 0 0 0-1 23c7.51 9.01 17.01 14.84 28.5 17.5 51.54 9.77 103.21 18.94 155 27.5.67-.33 1.33-.67 2-1a51.36 51.36 0 0 1-7-15c2.42-1.95 4.92-3.61 7.5-5-.4 3.17 1.1 3.84 4.5 2 3.12 10.78 9.78 18.45 20 23-1.98-.12-3.65.55-5 2 1.79.21 3.46.21 5 0-2.11 2.12-2.78 4.45-2 7-.67.33-1.33.67-2 1 1.1.68 2.1 1.34 3 2a6535.001 6535.001 0 0 1-183-31.5c-10.77-2.72-20.44-7.55-29-14.5-4.76 38.02-9.26 76.02-13.5 114 42.08 27.29 84.25 54.46 126.5 81.5 3.41 5.84 1.75 9.17-5 10a3659.64 3659.64 0 0 1-245 5c-7.34-.56-14.68-1.22-22-2-11.07-1.4-15.57-7.57-13.5-18.5 4.53-11.4 9.87-22.4 16-33a609.95 609.95 0 0 1 29.5-42c-1.03-1.2-1.86-2.53-2.5-4-.5-93.33-.67-186.67-.5-280v-574c.17-83 0-166-.5-249-.44 2.37-.94 4.7-1.5 7-37.39 242.67-74.89 485.34-112.5 728a598.21 598.21 0 0 0-1.5 44c-.8 1.45-1.3 3.12-1.5 5a7.379 7.379 0 0 1-2-3c-.33 2.67-.67 5.33-1 8-.23-4.33-1.06-8.49-2.5-12.5-.12-1.28.38-2.45 1.5-3.5.33 1.33.67 2.67 1 4 .66-3.03.16-5.87-1.5-8.5.78-1.07.61-2.24-.5-3.5-.33 1.33-.67 2.67-1 4-.46-.59-.63-1.26-.5-2 .59-18.67.76-37.33.5-56-6.33 2.83-12.83 5.16-19.5 7-1.43-.08-2.76.25-4 1-.81-1.78-1.98-2.44-3.5-2-.67 3.08-2.51 4.25-5.5 3.5 1.33-1 1.33-2 0-3a8.152 8.152 0 0 0 4-2.5c.59.21 1.09.54 1.5 1 1.65-2.32 3.15-3.99 4.5-5 3.31-1.39 6.64-2.89 10-4.5-100.3-8.27-200.63-16.1-301-23.5-2.45-.97-5.11-1.31-8-1v3c-.56 5.68-1.22 11.35-2 17 10.05.56 20.05 1.56 30 3-.96 1.94-.29 3.44 2 4.5-2.52 1.4-5.02 1.9-7.5 1.5-.31-.81-.81-1.47-1.5-2-1.2.35-1.2.85 0 1.5-.95.62-1.78.45-2.5-.5-.46.59-.63 1.26-.5 2-174.2-14.25-348.37-28.92-522.5-44-25.03 8.23-49.86 17.07-74.5 26.5 248.31 19.81 496.64 39.47 745 59 4.12.33 8.12 1.16 12 2.5.92-.63 1.92-.96 3-1 2.42-.31 4.76.03 7 1-.67.33-1.33.67-2 1 1.35 1.02 2.02 2.36 2 4-1.64.66-3.3 1.33-5 2-1.57 83.35-3.57 166.68-6 250-.62-.11-1.12-.44-1.5-1-.33 1.33-.67 2.67-1 4-1.84 1.33-2.34 1.17-1.5-.5-3.37-2.61-4.71-6.11-4-10.5 2.03-80.66 3.7-161.33 5-242-83.3-6.89-166.64-13.55-250-20-1 38.5-1.33 77.16-1 116h-4a139.2 139.2 0 0 0-18-2v-116c-120.66-9.5-241.33-18.83-362-28-1.42-.95-3.09-1.28-5-1v118c-7.36-.84-14.69-1.84-22-3 .33-38.91 0-77.74-1-116.5-36.66-3.2-73.32-5.87-110-8-1.82 1.8-2.98 3.97-3.5 6.5-.5 6.32-.67 12.66-.5 19-1.88-.11-2.21.39-1 1.5-.75 1.49-1.59 1.65-2.5.5-.33-5.33-.67-10.67-1-16-.5 3.65-.67 7.32-.5 11h-3v-9c-1.91-11.02 2.09-18.85 12-23.5 49.33-18 98.67-36 148-54 59.67 4.31 119.33 8.81 179 13.5a210.16 210.16 0 0 1 7.5-37c4.04-12.7 12.2-21.53 24.5-26.5 59.92-2.31 119.58.69 179 9 14.04 2.26 27.71 5.93 41 11 13.96 11 20.96 25.5 21 43.5-.63 7.74.04 15.08 2 22 51.98 4.22 103.98 8.22 156 12-.39-317.33-1.22-634.67-2.5-952-7.24-2.03-14.41-4.36-21.5-7-1.43-1.72-2.27-3.72-2.5-6-.41-7.02-1.08-14.02-2-21-.87-66.01-.37-132.01 1.5-198-32.31 2.59-60.98-6.24-86-26.5-56.61-4.53-98.78-31.37-126.5-80.5-15.81-32.84-24.81-67.51-27-104-4.92-74.39 2.75-147.39 23-219 20.1-53.44 56.1-92.1 108-116 12.71-51.47 31.71-100.47 57-147 30.22-53.22 72.05-94.72 125.5-124.5 51.9-26.25 106.4-34.08 163.5-23.5 33.88-16.7 69.38-28.36 106.5-35v-3c-31.17-9.68-56-28.01-74.5-55a456.582 456.582 0 0 1-17.5-30.5c-35.43 1.9-52.26-14.93-50.5-50.5 2.34-6.85 5.84-13.02 10.5-18.5-27.62-38.8-37.95-81.8-31-129a3716.405 3716.405 0 0 0-81-64c-4-3.67-4-7.33 0-11 16.1-11.15 33.77-18.82 53-23a849.39 849.39 0 0 1 36-6 951.698 951.698 0 0 1-18.5-45.5c-.94-2.85-.44-5.35 1.5-7.5 32.03-5.26 63.86-4.1 95.5 3.5.83-.33 1.67-.67 2.5-1a211.275 211.275 0 0 1-17-25.5c-.01-1.81.66-3.31 2-4.5 2.94-.74 5.94-1.24 9-1.5a510.26 510.26 0 0 1 104 5c5.85 1.42 11.68 2.92 17.5 4.5.5-.33 1-.67 1.5-1-3.61-10.76-5.78-21.76-6.5-33 1.13-1.44 2.63-2.11 4.5-2 30.98 11.06 57.48 28.73 79.5 53 .27-11.69.93-23.36 2-35 2.15-1.94 4.65-2.44 7.5-1.5 15.83 9.17 28.33 21.67 37.5 37.5 26.95 45.64 30.78 93.14 11.5 142.5 2.68 7.7 7.35 14.03 14 19l10 7a335.388 335.388 0 0 1 37 21c10.73 8.63 16.9 19.79 18.5 33.5a948.89 948.89 0 0 0 56.5 46.5c48.22 39.88 95.55 80.88 142 123a727.753 727.753 0 0 1 44.5 46.5c14.14 17.28 23.14 36.94 27 59 2.49 20.85-2.18 39.85-14 57-1.04 11.58-5.87 21.08-14.5 28.5a84.907 84.907 0 0 1-24 8 2244.906 2244.906 0 0 1-259.5 35.5c-1.66.18-2.99.84-4 2-3.22 11.77-7.55 23.1-13 34 21.45 292.15 42.95 584.31 64.5 876.5.52 6.09-1.81 10.76-7 14-5.75 3.29-11.59 6.46-17.5 9.5a41711.41 41711.41 0 0 1-37.5 331c72.67-11.67 145.34-23.33 218-35Z"/><path style="opacity:1" fill="#89acd2" d="M2066.5 1731.5c42.7 15.68 81.03 38.51 115 68.5 11.33 10.67 22.67 21.33 34 32-8.69 1.68-16.69 5.01-24 10-14.41 12.07-26.24 26.24-35.5 42.5a569.405 569.405 0 0 1-39 75c8.44-24.3 17.1-48.63 26-73 .84-5.69-1.66-7.86-7.5-6.5l-2.5 2.5a14125.21 14125.21 0 0 0-45 126 6111.447 6111.447 0 0 0-54.5 90c-1.22 1.11-2.56 1.28-4 .5a788.747 788.747 0 0 0-52-17c-31.34-7.67-62.67-15.33-94-23 22.48-59.49 47.98-117.99 76.5-175.5 22.6-45.57 49.93-87.9 82-127 8.37-8.2 16.54-16.54 24.5-25Z"/><path style="opacity:1" fill="#079db2" d="M2103.5 1689.5c3.35-.17 6.68 0 10 .5 71.59 29.75 127.25 77.92 167 144.5-.83.33-1.67.67-2.5 1a405.692 405.692 0 0 0-48.5-4.5c-33.4-36.1-71.4-66.1-114-90-13.21-6.44-26.55-12.61-40-18.5 4.11-15.13 13.44-26.13 28-33Z"/><path style="opacity:1" fill="#6ac3d1" d="M2099.5 1661.5c17.36-.32 34.69.18 52 1.5-9.95 5.93-19.95 11.93-30 18-13.22-3.87-25.22-1.53-36 7-10.57 9.88-18.73 21.38-24.5 34.5-21.57 19.52-40.57 41.19-57 65-25.79 39.22-48.79 80.22-69 123-22.63 48.88-44.3 98.22-65 148-1.12 3.46-.29 6.29 2.5 8.5l48 12c2.07.12 3.41 1.12 4 3-4.78 31.69-5.94 63.52-3.5 95.5 1.75 21.49 8.09 41.49 19 60-4.01 76.28-7.18 152.61-9.5 229h-11v4h10v15c-45.31 3.1-79.81-14.57-103.5-53-16.19-33.59-26.53-68.92-31-106-6.96-71.49-5.63-142.82 4-214 7.68-56.75 19.01-112.75 34-168 13.67-52.35 34.33-101.68 62-148 25.45-41.12 58.62-74.62 99.5-100.5 32.63-19.05 67.63-30.55 105-34.5Z"/><path style="opacity:1" fill="#28455e" d="M1946.5 1750.5c1.7.19 3.03 1.02 4 2.5-3.2 2.87-6.04 6.04-8.5 9.5-1.49-.66-2.65-1.66-3.5-3 2.69-3.02 5.36-6.02 8-9Z"/><path style="opacity:1" fill="#294860" d="M1964.5 1733.5c1.7.19 3.03 1.02 4 2.5-2.87 3.2-6.04 6.04-9.5 8.5-1.02-.85-1.86-1.85-2.5-3 2.38-3.05 5.05-5.71 8-8Z"/><path style="opacity:1" fill="#294760" d="M1983.5 1717.5c1.7.19 3.03 1.02 4 2.5-3.07 2.95-6.24 5.78-9.5 8.5-1.24-.9-2.07-2.07-2.5-3.5 2.54-2.71 5.21-5.21 8-7.5Z"/><path style="opacity:1" fill="#294860" d="M2004.5 1702.5c2.11.55 2.94 1.89 2.5 4-3 3.08-6.5 4.92-10.5 5.5-1.23-1.18-1.23-2.35 0-3.5 2.99-1.67 5.66-3.67 8-6Z"/><path style="opacity:1" fill="#28465f" d="M2026.5 1690.5c2.47.78 3.14 2.28 2 4.5-3.11 1.64-6.27 3.14-9.5 4.5-2.01-.98-2.51-2.32-1.5-4a58.31 58.31 0 0 0 9-5ZM2048.5 1680.5c2.09-.05 3.42.95 4 3-3.63 2.4-7.46 4.4-11.5 6-1.4-1.65-1.57-3.31-.5-5 2.86-1.16 5.53-2.49 8-4Z"/><path style="opacity:1" fill="#27445d" d="M2070.5 1673.5c2.79-.42 4.79.58 6 3a81.598 81.598 0 0 1-12 4c-.76-1.13-1.43-2.29-2-3.5 2.81-.98 5.48-2.15 8-3.5Z"/><path style="opacity:1" fill="#27445c" d="M2090.5 1669.5h10v4c-4.36.09-8.69.42-13 1v-4c1.29.24 2.29-.1 3-1Z"/><path style="opacity:1" fill="#25415a" d="M2112.5 1668.5h13v4h-13v-4Z"/><path style="opacity:1" fill="#079cb1" d="M2405.5 1614.5c11.39-1.04 21.72 2.12 31 9.5 15.83 15.49 26.67 33.99 32.5 55.5 10.05 34.41 13.05 69.41 9 105-1.7 10.13-4.03 20.13-7 30-3.3-35.46-7.64-70.8-13-106-5.61-25.18-14.95-48.85-28-71-7.08-8.91-15.25-16.58-24.5-23Z"/><path style="opacity:1" fill="#f6cadf" d="M2284.5 1621.5c25.15 5.38 50.48 6.38 76 3-.45 21.06.38 42.06 2.5 63 3.59 3.82 6.92 3.82 10 0-.37-7.48-.87-14.98-1.5-22.5.33-2.83.67-5.67 1-8.5 10.41 4.58 19.57 10.91 27.5 19 4.59 6.97 4.59 13.97 0 21-8.87 9.69-19.7 16.19-32.5 19.5-27.43 5.2-55.09 6.87-83 5-19.98-.57-38.31-6.24-55-17-16.99-15.42-15.65-29.09 4-41 11.89-6.79 24.55-11.29 38-13.5a333.252 333.252 0 0 1-5 36c0 4.68 2.33 6.51 7 5.5 1.17-.5 2-1.33 2.5-2.5 4.88-22.06 7.72-44.39 8.5-67Z"/><path style="opacity:1" fill="#89acd2" d="M2568.5 1606.5c4.71-.33 9.38.01 14 1 14.61 17.45 29.78 34.45 45.5 51 .04 21.02 2.71 41.69 8 62 1.36.88 2.86 1.21 4.5 1a560.2 560.2 0 0 1-6.5-49c12.12 28.11 29.62 52.27 52.5 72.5 1.29.49 2.63.66 4 .5.29-1.79-.05-3.45-1-5-16.98-15.48-31.15-33.14-42.5-53-3.21-5.41-5.54-11.07-7-17 22.43 24.11 46.93 45.61 73.5 64.5 19.29 12.52 39.62 14.85 61 7-4.41 7.05-10.75 11.38-19 13a2125.572 2125.572 0 0 1-267 36.5c5.66-46.06.16-90.73-16.5-134-6.43-15.42-15.6-28.92-27.5-40.5 41.5-3.3 82.84-6.8 124-10.5Z"/><path style="opacity:1" fill="#fdfdfd" d="M2475.5 1481.5c2.54.97 4.71 2.63 6.5 5 29.21 37.07 59.38 73.4 90.5 109-47.03 3.57-94.03 7.57-141 12-4.95-1.59-9.95-3.09-15-4.5 25.38-18.75 39.88-43.92 43.5-75.5.82-13.71.65-27.38-.5-41 5.68-.9 11.01-2.56 16-5Z"/><path style="opacity:1" fill="#f7cadf" d="M2445.5 1329.5c4.4 5.9 9.4 11.4 15 16.5 13.54 7.93 27.2 15.6 41 23 20.62 15.86 26.12 36.02 16.5 60.5a87.253 87.253 0 0 1-9 19c-.43 7.25 2.57 9.25 9 6 7.18-12.55 12.18-25.89 15-40a3189.204 3189.204 0 0 1 192.5 163.5 634.974 634.974 0 0 1 41.5 43.5c17.17 21.33 25.5 45.66 25 73-3.37 27.71-18.87 41.55-46.5 41.5-16.14-3.9-30.48-11.24-43-22-23.71-19.7-46.21-40.87-67.5-63.5a4491.929 4491.929 0 0 1-146.5-172.5c1.75-1.29 3.58-2.46 5.5-3.5 1.48-5.84-.69-8.67-6.5-8.5-9.14 5.2-18.81 8.03-29 8.5-1.42-10.99-2.92-21.99-4.5-33a2564.34 2564.34 0 0 0-6-84c-1.02-7.6-2.52-15.1-4.5-22.5.26-2.01.92-3.84 2-5.5ZM2337.5 1271.5c20.84-1.14 40.51 3.02 59 12.5 14.15 9.16 24.32 21.66 30.5 37.5 5.38 14.91 9.04 30.25 11 46 2.39 39.45 6.06 78.78 11 118 6.89 84.45-32.11 128.12-117 131-69.52-.82-117.69-33.16-144.5-97-2.27-1.04-4.6-1.21-7-.5-5.62 3.74-11.62 4.4-18 2-13.46-5.46-20.79-15.46-22-30 2.26-17.25 12.09-26.75 29.5-28.5 6.62 1 13.12 2.16 19.5 3.5 7.93-8.7 13.1-18.86 15.5-30.5 3.81-18.25 2.81-36.25-3-54a502.226 502.226 0 0 0-19-38c-1.51-7.26-.18-13.92 4-20a85.36 85.36 0 0 1 17.5-13.5c42.61-19.27 86.95-32.1 133-38.5Z"/><path style="opacity:1" fill="#2c435b" d="M2385.5 1510.5c8.34-.17 16.67 0 25 .5.88 1.36 1.21 2.86 1 4.5-3.61-.29-7.11.04-10.5 1-5.69 9.75-7.36 20.08-5 31 .86 2.87 2.53 5.2 5 7 1.96 6.57-.2 11.07-6.5 13.5-12.02 4.09-24.35 5.42-37 4-6.03-1.02-9.86-4.52-11.5-10.5-3.22-21.81 5.28-37.31 25.5-46.5 4.75-1.64 9.42-3.14 14-4.5Z"/><path style="opacity:1" fill="#fcc2c0" d="M2350.5 1544.5c14.1-1.35 27.43 1.15 40 7.5 5.69 3.55 6.02 7.22 1 11-11.04 3.67-22.37 5-34 4-4.27-1.68-6.77-4.85-7.5-9.5-.63-4.37-.46-8.7.5-13Z"/><path style="opacity:1" fill="#fb9692" d="M2387.5 1515.5c2.75-.31 5.41.02 8 1-4.6 9.66-6.6 19.66-6 30-11.9-4.61-24.23-7.11-37-7.5 8.04-13.2 19.71-21.04 35-23.5Z"/><path style="opacity:1" fill="#2a435c" d="M2159.5 1478.5c10.98 3.48 18.15 10.81 21.5 22 .76 2.27.59 4.44-.5 6.5-1.28.68-2.45.52-3.5-.5a54.79 54.79 0 0 1-2-7c-.64-1.8-1.8-3.14-3.5-4a31.31 31.31 0 0 0-5 4.5c-3.61 1.25-5.11.09-4.5-3.5a55.82 55.82 0 0 1 6.5-6c-2.12-3.45-5.12-5.78-9-7-1.17-1.67-1.17-3.33 0-5ZM2369.5 1396.5c1.64-.21 3.14.12 4.5 1 3.46 20.59 12.46 38.25 27 53 8.75 12.28 6.92 22.78-5.5 31.5-1.29.49-2.63.66-4 .5-.16-1.37.01-2.71.5-4 3.72-3.12 6.72-6.78 9-11 .67-2.33.67-4.67 0-7a148.43 148.43 0 0 0-13-16c-10.45-14.52-16.61-30.52-18.5-48Z"/><path style="opacity:1" fill="#29425b" d="M2317.5 1418.5c7.55-1.47 13.05 1.19 16.5 8 .56 14.45-5.94 19.29-19.5 14.5-7.44-8.75-6.44-16.25 3-22.5Z"/><path style="opacity:1" fill="#28415a" d="M2410.5 1399.5c12.99.16 17.83 6.49 14.5 19-6.78 7.48-13.78 7.81-21 1-4.4-8.86-2.23-15.52 6.5-20Z"/><path style="opacity:1" fill="#28425a" d="M2308.5 1358.5c7.94-.56 9.94 2.6 6 9.5-16.19 6.19-29.52 16.19-40 30-6.36 1.48-8.86-1.02-7.5-7.5 11.14-14.32 24.97-24.99 41.5-32Z"/><path style="opacity:1" fill="#29425b" d="M2383.5 1335.5c14.33 2.41 27.49 7.74 39.5 16 1.48 5.84-.69 8.67-6.5 8.5a128.814 128.814 0 0 0-34-15c-2.75-3.45-2.41-6.61 1-9.5Z"/><path style="opacity:1" fill="#5c6e82" d="M2322.5 1135.5c29.78 13.05 54.45 32.55 74 58.5 3.33 1.21 5.83.38 7.5-2.5.49-13.34 1.16-26.68 2-40 9.08 7.08 16.75 15.41 23 25 21.97 34.5 29.3 71.83 22 112-2.52 11.03-6.69 21.37-12.5 31-13.7-33.19-38.36-52.35-74-57.5a229.36 229.36 0 0 0-56 3 558.065 558.065 0 0 0-95 29c-13.46 5.47-25.3 13.31-35.5 23.5-8.24 13.12-8.57 26.45-1 40 20.12 26.41 24.79 55.41 14 87-1.43 3.88-3.6 7.22-6.5 10a38.771 38.771 0 0 0-13.5-2c-7.14.03-13.98 1.2-20.5 3.5-28.15-38.12-37.99-80.62-29.5-127.5a3689.871 3689.871 0 0 0-80.5-63.5c18.79-11.49 39.12-18.82 61-22 8.65-1.13 17.32-2.13 26-3 3.38-1.03 4.54-3.2 3.5-6.5-6.16-15.66-12.33-31.32-18.5-47 1.58-.8 3.24-1.3 5-1.5 30.82-1.88 61.15 1.12 91 9 7.47 2.51 10.64.01 9.5-7.5l-19.5-27c33.2-3.51 66.2-2.01 99 4.5 7.91 1.56 15.58 3.89 23 7 2.33.67 4.67.67 7 0 1.39-.96 2.06-2.29 2-4-2.41-10.49-4.75-20.99-7-31.5Z"/><path style="opacity:1" fill="#28455d" d="M1929.5 1769.5c2.13-.35 3.47.48 4 2.5a55.944 55.944 0 0 1-8 9.5c-1.15-.64-2.15-1.48-3-2.5 2.55-3.04 4.88-6.21 7-9.5ZM1914.5 1789.5c2.13-.35 3.47.48 4 2.5-2.15 3.49-4.32 6.99-6.5 10.5a23.215 23.215 0 0 0-3.5-3c2.45-3.11 4.45-6.44 6-10Z"/><path style="opacity:1" fill="#fde175" d="M2225.5 2094.5c14.64-27.51 29.14-55.17 43.5-83 11.71-.46 22.21-4.29 31.5-11.5 12.06-9.72 20.56-21.89 25.5-36.5.67-5.33.67-10.67 0-16a158.21 158.21 0 0 0-5.5-10.5c5.78-10.2 6.45-20.7 2-31.5 2.36-6.81 3.19-13.81 2.5-21-1.79-6.13-5.46-10.79-11-14 1.09-14.9-5.24-25.24-19-31-1.86-3.72-3.69-7.39-5.5-11 51.99-6.74 103.99-13.41 156-20 5.95 85.67 11.95 171.34 18 257-79.3 10-158.63 19.66-238 29Z"/><path style="opacity:1" fill="#28465f" d="M1901.5 1810.5c1.88.21 3.22 1.21 4 3-1.93 3.53-4.1 6.87-6.5 10-1.5-.17-2.33-1-2.5-2.5 1.56-3.61 3.22-7.11 5-10.5ZM1889.5 1832.5c1.81.07 3.14.91 4 2.5-1.32 4.16-3.49 7.66-6.5 10.5-1.28-.11-2.11-.78-2.5-2 1.95-3.57 3.62-7.24 5-11Z"/><path style="opacity:1" fill="#f7cadf" d="M2218.5 1841.5c23.01-1.2 45.67.97 68 6.5 6.43 1.63 11.6 5.13 15.5 10.5.82 3.05.65 6.05-.5 9-21.32-6.43-42.82-8.1-64.5-5-.94 2.85-.44 5.35 1.5 7.5 24.58.25 48.58 3.91 72 11a11.42 11.42 0 0 1 3.5 4.5c.63 4.37.46 8.7-.5 13-18.58-5.64-37.58-7.47-57-5.5-4 3.33-4 6.67 0 10 15.81-.21 31.48 1.12 47 4 10.58 3.68 13.75 10.84 9.5 21.5-.83 1-1.67 2-2.5 3-15.32-5.25-30.99-6.42-47-3.5-2.84 3.62-2.51 6.95 1 10 9.23-1.39 18.56-1.73 28-1 22.98 3.14 29.15 14.97 18.5 35.5-8.27 12.55-19.44 21.38-33.5 26.5-3.38.82-6.72.66-10-.5 10.62-11.58 17.79-24.91 21.5-40-2-2.42-4.5-3.26-7.5-2.5a256.907 256.907 0 0 1-16.5 29.5c-16.07 20.95-37.24 29.61-63.5 26-2.19-.17-4.03.49-5.5 2a7638.046 7638.046 0 0 0-47 107c-18.21 41.45-41.21 79.78-69 115-14.58 16.93-31.75 30.43-51.5 40.5-11.5 4.92-22.83 4.59-34-1-29.9-16.57-49.4-41.41-58.5-74.5-1.76-7.25-3.1-14.59-4-22a394.04 394.04 0 0 1 3.5-96c30.7 7.46 61.04 16.12 91 26a596.127 596.127 0 0 1-38.5 62c-.81 6.5 2.02 8.67 8.5 6.5 13.56-19.9 26.73-40.06 39.5-60.5 32.42-54.5 65.08-108.83 98-163 11.33-22.67 22.67-45.33 34-68 8.41-14.31 19.24-26.47 32.5-36.5 5.77-3.4 11.77-5.9 18-7.5Z"/><path style="opacity:1" fill="#26435c" d="M1878.5 1855.5c1.81.07 3.14.91 4 2.5-1.55 3.59-3.21 7.09-5 10.5-1.4-.37-2.4-1.2-3-2.5 1.21-3.58 2.54-7.08 4-10.5Z"/><path style="opacity:1" fill="#28465e" d="M1868.5 1878.5c1.81-.01 3.48.49 5 1.5a33.806 33.806 0 0 0-4 11.5c-1.98.12-3.65-.55-5-2 1.74-3.55 3.07-7.22 4-11Z"/><path style="opacity:1" fill="#28475f" d="M1859.5 1902.5c1.79-.29 3.45.05 5 1-1.67 4.01-3.34 8.01-5 12-1.4-.37-2.4-1.2-3-2.5.93-3.54 1.93-7.04 3-10.5Z"/><path style="opacity:1" fill="#29475f" d="M1851.5 1925.5c1.68.39 3.35.89 5 1.5a44.61 44.61 0 0 0-3 11.5h-5c1.21-4.29 2.21-8.62 3-13Z"/><path style="opacity:1" fill="#294860" d="M1844.5 1949.5c1.98-.12 3.65.55 5 2a34.15 34.15 0 0 0-3 11h-5c1.16-4.29 2.16-8.63 3-13Z"/><path style="opacity:1" fill="#27445d" d="M1838.5 1973.5c1.21.73 2.54 1.07 4 1-.67 3.69-1.51 7.35-2.5 11-1.36.88-2.86 1.21-4.5 1 .79-4.38 1.79-8.71 3-13Z"/><path style="opacity:1" fill="#6ac3d0" d="M1815.5 1964.5c1-.03 1.66.47 2 1.5-1.26 4.2-2.59 8.37-4 12.5-4.16 1.91-8.16 4.08-12 6.5 1.12 1.07 2.12 2.24 3 3.5 2.46-2.26 5.12-3.26 8-3-17.4 72-28.24 145-32.5 219-3.01 55.52.99 110.52 12 165 5.3 24.92 13.97 48.58 26 71 3.17 6 7 11.5 11.5 16.5-50.89-8.55-87.06-36.38-108.5-83.5-12.85-31.73-19.85-64.73-21-99-2.73-57.62 1.94-114.62 14-171a279.26 279.26 0 0 1 24-66c19.93-30.77 45.76-55.1 77.5-73Z"/><path style="opacity:1" fill="#26425b" d="M1790.5 1991.5c1.95.75 2.78 2.09 2.5 4-3 2.33-6 4.67-9 7-1.68-.97-2.34-2.3-2-4 3.02-2.2 5.86-4.53 8.5-7Z"/><path style="opacity:1" fill="#28455e" d="M1832.5 1998.5h4c-.83 4.31-1.49 8.64-2 13-2.16.38-3.83-.28-5-2 1.21-3.62 2.21-7.29 3-11Z"/><path style="opacity:1" fill="#26435c" d="M1770.5 2007.5c1.7.19 3.03 1.02 4 2.5l-8 8c-2.63.92-3.8.09-3.5-2.5 2.7-2.54 5.2-5.2 7.5-8Z"/><path style="opacity:1" fill="#079cb1" d="M2257.5 2007.5c-23.84 51.99-51.67 101.99-83.5 150-11.99 17.34-25.49 33.5-40.5 48.5-6.5 6.25-14.17 10.42-23 12.5-1-.33-2-.67-3-1 43.66-60.95 81.5-125.62 113.5-194 13.6-2.36 25.77-7.69 36.5-16Z"/><path style="opacity:1" fill="#294961" d="M1826.5 2022.5c2.21-.21 3.88.62 5 2.5a23.561 23.561 0 0 0-2 10.5h-5c1.09-4.26 1.75-8.59 2-13Z"/><path style="opacity:1" fill="#27445d" d="M1753.5 2026.5c1.85-.28 3.18.39 4 2-2.31 3.47-4.81 6.81-7.5 10a20.46 20.46 0 0 1-3.5-2.5c2.46-3.11 4.8-6.27 7-9.5Z"/><path style="opacity:1" fill="#efd877" d="M2197.5 2046.5v-10c1.82-4.31 3.65-8.65 5.5-13 1.7-.91 3.53-1.24 5.5-1-2.91 8.4-6.57 16.4-11 24Z"/><path style="opacity:1" fill="#27435c" d="M1822.5 2047.5h4c-.92 4.29-1.59 8.62-2 13-2.45.42-3.78-.58-4-3 .58-3.39 1.24-6.73 2-10Z"/><path style="opacity:1" fill="#27445d" d="M1739.5 2047.5c2.13-.35 3.47.48 4 2.5-1.55 3.59-3.21 7.09-5 10.5-1.4-.37-2.4-1.2-3-2.5 1.76-3.36 3.1-6.86 4-10.5Z"/><path style="opacity:1" fill="#82a5ca" d="M2197.5 2036.5v10a709.502 709.502 0 0 1-22.5 45c-.65 1.2-1.15 1.2-1.5 0 8.02-18.43 16.02-36.77 24-55Z"/><path style="opacity:1" fill="#89acd2" d="M2225.5 2094.5c79.37-9.34 158.7-19 238-29-6.05-85.66-12.05-171.33-18-257-52.01 6.59-104.01 13.26-156 20-27.52-47.69-64.52-86.53-111-116.5-14.84-8.92-29.84-17.59-45-26 43.04-27.35 89.7-45.51 140-54.5.47 2.88-.37 5.21-2.5 7-16.68 2.71-32.18 8.54-46.5 17.5-18.19 13.29-21.36 29.46-9.5 48.5 11.71 12.11 25.88 19.94 42.5 23.5 36.71 6.15 73.38 5.82 110-1 16.62-3.72 30.45-11.88 41.5-24.5 7.9-12.22 7.23-23.88-2-35-10.06-10.06-21.73-17.72-35-23-.5-7.66-.67-15.33-.5-23 24.06-2.39 41.89 6.94 53.5 28 15.55 31.53 24.88 64.86 28 100 2.66 19.3 5 38.63 7 58 20.34 284.73 41.34 569.39 63 854 1.27 18.69 2.27 37.35 3 56-10.75 8.12-22.58 14.29-35.5 18.5-43.38 13.13-87.72 21.13-133 24-141.4 8.16-280.07-7.34-416-46.5-1.4-4.21-2.24-8.54-2.5-13a5836.196 5836.196 0 0 1 12-447c12.02 15.69 27.19 27.19 45.5 34.5 16.63 4.41 32.29 2.08 47-7 21.55-14.54 40.21-32.21 56-53 14.42 1.8 27.09-2.2 38-12 16.15-14.49 30.32-30.66 42.5-48.5 15.82-23.97 30.99-48.31 45.5-73Z"/><path style="opacity:1" fill="#28465f" d="M1817.5 2072.5c1.7-.16 3.37.01 5 .5a62.915 62.915 0 0 0-2 12.5c-1.81.01-3.48-.49-5-1.5a67.96 67.96 0 0 0 2-11.5ZM1730.5 2070.5c1.81.27 3.48.94 5 2a34.15 34.15 0 0 0-3 11c-1.79.29-3.45-.05-5-1 1.42-3.91 2.42-7.91 3-12Z"/><path style="opacity:1" fill="#29475f" d="M1724.5 2095.5h5c-1.41 4.2-2.08 8.54-2 13h-5c.92-4.29 1.59-8.62 2-13Z"/><path style="opacity:1" fill="#28465e" d="M1813.5 2096.5c2.64-.01 3.97 1.32 4 4-.66 2.97-.99 5.97-1 9-1.79.29-3.45-.05-5-1 .95-3.95 1.61-7.95 2-12Z"/><path style="opacity:1" fill="#2a4a62" d="M1720.5 2119.5c2.74-.42 4.08.74 4 3.5-.55 2.82-1.05 5.66-1.5 8.5-1.36.88-2.86 1.21-4.5 1-.07-4.48.59-8.82 2-13Z"/><path style="opacity:1" fill="#27445c" d="M1810.5 2121.5h4c.13 4.38-.21 8.71-1 13h-4c-.03-4.37.3-8.7 1-13Z"/><path style="opacity:1" fill="#28455e" d="M1808.5 2146.5h4v13h-5c.09-4.36.42-8.69 1-13ZM1716.5 2144.5h4c-.24 4.34-.57 8.68-1 13h-4c-.13-4.38.21-8.71 1-13Z"/><path style="opacity:1" fill="#28475f" d="M1713.5 2169.5h4c-.24 4.34-.57 8.68-1 13h-4c-.13-4.38.21-8.71 1-13Z"/><path style="opacity:1" fill="#254059" d="M1807.5 2171.5h4v13h-4v-13Z"/><path style="opacity:1" fill="#28455e" d="M1710.5 2194.5h5c-.24 4.34-.57 8.68-1 13h-4v-13Z"/><path style="opacity:1" fill="#2c4e66" d="M1806.5 2196.5h5v13h-5v-13Z"/><path style="opacity:1" fill="#27445d" d="M1708.5 2219.5h5c-.58 4.31-.91 8.64-1 13h-4v-13Z"/><path style="opacity:1" fill="#2a4b63" d="M1806.5 2221.5h5v13h-5v-13Z"/><path style="opacity:1" fill="#25415a" d="M1707.5 2244.5h4v13h-4v-13Z"/><path style="opacity:1" fill="#254059" d="M1807.5 2246.5h4v13h-4v-13Z"/><path style="opacity:1" fill="#2c4c64" d="M1706.5 2269.5h5v13h-5v-13Z"/><path style="opacity:1" fill="#254059" d="M1808.5 2271.5h4v13h-4v-13Z"/><path style="opacity:1" fill="#28465e" d="M1708.5 2294.5h4c.48 3.7 1.15 7.37 2 11-1.35 1.45-3.02 2.12-5 2-.09-4.36-.42-8.69-1-13Z"/><path style="opacity:1" fill="#294861" d="M1809.5 2296.5h5v13h-4c-.58-4.31-.91-8.64-1-13Z"/><path style="opacity:1" fill="#28465f" d="M1713.5 2318.5c1.95-.27 3.45.39 4.5 2 .63 2.89 1.46 5.73 2.5 8.5-.6 1.3-1.6 2.13-3 2.5-2.41-3.97-3.74-8.3-4-13Z"/><path style="opacity:1" fill="#294961" d="M1811.5 2321.5h5c.43 4.32.76 8.66 1 13h-4c-.77-4.31-1.44-8.65-2-13Z"/><path style="opacity:1" fill="#28465e" d="M1721.5 2342.5h4c1.03 3.74 2.37 7.41 4 11-1.13.76-2.29 1.43-3.5 2-1.96-3.76-3.79-7.59-5.5-11.5.56-.38.89-.88 1-1.5Z"/><path style="opacity:1" fill="#29475f" d="M1817.5 2345.5c2.01 3.02 3.34 6.52 4 10.5-.57 2.86-2.07 3.7-4.5 2.5-.34-3.36-.84-6.69-1.5-10 .44-1.24 1.11-2.24 2-3Z"/><path style="opacity:1" fill="#27455d" d="M1733.5 2364.5c.88-.13 1.54.2 2 1 1.55 3.26 3.21 6.43 5 9.5-.6 1.3-1.6 2.13-3 2.5-2.62-3.07-4.62-6.57-6-10.5.56-1.01 1.22-1.84 2-2.5Z"/><path style="opacity:1" fill="#28445e" d="M1820.5 2370.5c1.48-.26 2.81.07 4 1 1.2 2.93 2.2 5.93 3 9-.33 1.67-1.33 2.67-3 3a38.309 38.309 0 0 1-4-13Z"/><path style="opacity:1" fill="#27445d" d="M1745.5 2386.5c1.18-.22 2.18.11 3 1a76.55 76.55 0 0 0 6 8.5c-.97 1.68-2.3 2.34-4 2-1.83-2.5-3.67-5-5.5-7.5-.58-1.43-.41-2.76.5-4Z"/><path style="opacity:1" fill="#28455e" d="M1828.5 2394.5c1.64-.21 3.14.12 4.5 1 .87 3.12 2.04 6.12 3.5 9-1.12 2.1-2.62 2.43-4.5 1a36.4 36.4 0 0 1-3.5-11Z"/><path style="opacity:1" fill="#27435c" d="M1761.5 2405.5c2.89 2.38 5.72 5.05 8.5 8 .34 1.7-.32 3.03-2 4l-8-8c-.3-1.57.2-2.9 1.5-4Z"/><path style="opacity:1" fill="#284760" d="M1840.5 2416.5c3.21 2.75 5.54 6.25 7 10.5-.6 1.3-1.6 2.13-3 2.5a33.808 33.808 0 0 1-6-10.5c.56-1.01 1.22-1.84 2-2.5Z"/><path style="opacity:1" fill="#294861" d="M1779.5 2422.5c3.96 1.99 7.62 4.49 11 7.5-.58 2.27-1.91 3.27-4 3a94.62 94.62 0 0 1-9-7.5c.69-1.02 1.36-2.02 2-3Z"/><path style="opacity:1" fill="#27455d" d="M1800.5 2436.5c3.57 1.62 7.24 2.95 11 4 .27 1.93-.23 3.6-1.5 5-4.04-1.6-7.87-3.6-11.5-6 .69-1.02 1.36-2.02 2-3Z"/><path style="opacity:1" fill="#27445d" d="M1853.5 2437.5c1.32-.17 2.49.16 3.5 1 1.79 2.8 3.96 5.3 6.5 7.5-.81 1.88-2.15 2.55-4 2l-8-8c.88-.71 1.55-1.54 2-2.5Z"/><path style="opacity:1" fill="#27455d" d="M1872.5 2453.5a35.38 35.38 0 0 1 10 5c1.32 1.7.99 3.04-1 4a51.812 51.812 0 0 1-9-4.5c-1.23-1.49-1.23-2.99 0-4.5Z"/><path style="opacity:1" fill="#294760" d="M1894.5 2463.5c4.31.58 8.64.91 13 1v5c-4.36-.51-8.69-1.17-13-2v-4Z"/><path style="opacity:1" fill="#7b8b9a" d="M1964.5 2731.5c11.13 2.2 22.13 4.87 33 8 .33 15.67.67 31.33 1 47-2.81 299-5.48 598-8 897-7.64-.87-15.31-1.54-23-2-.65-316.67-1.65-633.34-3-950Z"/><path style="opacity:1" fill="#5c6e82" d="M2692.5 2737.5h14c.33 98.5 0 196.83-1 295v-294c-4.53.32-8.87-.02-13-1Z"/><path style="opacity:1" fill="#7b8b9a" d="M2005.5 2741.5c79.02 17.6 159.02 28.26 240 32-.47 43.67-.64 87.33-.5 131 3.25 3.87 6.58 3.87 10 0 .75-43.69 1.58-87.36 2.5-131h44c.17 20.34 0 40.67-.5 61-.15 7.4-.82 14.73-2 22-1.62 5.28-4.45 9.78-8.5 13.5a706.048 706.048 0 0 1-30 19.5c-1.59 2.64-.93 4.31 2 5 11.3-6.32 22.3-13.15 33-20.5 4.3-4.1 7.46-8.93 9.5-14.5 1.45-28.63 1.95-57.3 1.5-86 54.68-1.06 108.68-7.56 162-19.5 11.07-3.41 22.07-6.91 33-10.5-50.52 449.01-101.19 898.01-152 1347h-57c.01-271.4-4.16-542.73-12.5-814-2.5-75.75-6.5-151.41-12-227a1757.42 1757.42 0 0 0-8-79 311.308 311.308 0 0 0-7.5-39c.07-1.27.4-2.44 1-3.5a373.93 373.93 0 0 1 84-31c4.46-5.26 3.3-8.76-3.5-10.5a416.587 416.587 0 0 0-87.5 32 178.88 178.88 0 0 0-45.5-18c-2.03-.15-3.7.52-5 2-.77 2.6-.6 5.1.5 7.5a183.59 183.59 0 0 1 40 16c2.41 1.56 3.74 3.73 4 6.5-39.17 253.34-78.33 506.67-117.5 760-1.91.63-3.91.96-6 1-40.18-3.23-80.35-6.56-120.5-10 2.41-314.01 5.41-628.01 9-942Z"/><path style="opacity:1" fill="#f0e6dc" d="M3142.5 3171.5c-14.2-7.6-28.54-14.94-43-22a4418.14 4418.14 0 0 0-79-43c-1.02-.5-1.19-1.17-.5-2 74.65-62.48 149.15-125.15 223.5-188 2.13 17.99 4.13 35.99 6 54 187.69-19.39 375.36-39.06 563-59 1.49.21 2.66.88 3.5 2 7.32 72.02 14.82 144.02 22.5 216-187.74 19.17-375.4 39.01-563 59.5-1.22 1.53-1.89 3.36-2 5.5 1.73 16.42 3.06 32.75 4 49-45.19-23.76-90.19-47.76-135-72Z"/><path style="opacity:1" fill="#7b8b9a" d="M2252.5 2965.5c5.53 36.68 9.37 73.68 11.5 111 4.43 66.28 7.76 132.61 10 199 8.36 271.31 12.53 542.65 12.5 814-10.98 1-21.98 1.33-33 1 0-375-.33-750-1-1125Z"/><path style="opacity:1" fill="#929eac" d="M2242.5 3243.5c-.67-80.67-1.33-161.33-2-242 .56-2.3 1.06-4.63 1.5-7 .5 83 .67 166 .5 249Z"/><path style="opacity:1" fill="#fefefe" d="M2240.5 3001.5c.67 80.67 1.33 161.33 2 242v574c-39.03 1.03-78.03 2.7-117 5v-14c.37-11.67.7-23.33 1-35-.04-14.68.46-29.35 1.5-44 37.61-242.66 75.11-485.33 112.5-728Z"/><path style="opacity:1" fill="#f8f08d" d="M2553.5 4000.5a51.36 51.36 0 0 0 7 15c-.67.33-1.33.67-2 1a6688.465 6688.465 0 0 1-155-27.5c-11.49-2.66-20.99-8.49-28.5-17.5-.28-7.68.06-15.34 1-23a77528.85 77528.85 0 0 0 60.5-537c6.34.17 12.68 0 19-.5 4.93-1.93 8.09-5.43 9.5-10.5.67-47.67.67-95.33 0-143-1.67-4.33-4.67-7.33-9-9a9143.24 9143.24 0 0 1 18.5-167c74.19-11.64 148.19-23.64 222-36 2.95.28 5.78-.06 8.5-1 .83 22.57.66 45.07-.5 67.5-38.16 6.14-76.16 13.14-114 21-18.61 8.61-30.78 22.78-36.5 42.5-1.16 137.81-1.66 275.64-1.5 413.5 0 137.18.34 274.35 1 411.5Z"/><path style="opacity:1" fill="#f4ec8c" d="M3007.5 3048.5c6.46 2.12 13.13 3.95 20 5.5-6.06 1.71-12.06 3.21-18 4.5-3.68.22-7.35.56-11 1v-13c3.04.51 6.04 1.18 9 2Z"/><path style="opacity:1" fill="#f5e84d" d="M3088.5 3159.5v42c-173.93 32.77-347.93 65.1-522 97-.67-32.33-1.33-64.67-2-97-2.57-29.71 10.09-49.54 38-59.5 34.21-6.48 68.54-12.31 103-17.5-.17 11.34 0 22.67.5 34 3.35 16.02 13.18 23.85 29.5 23.5 13.33-1.75 21.16-9.25 23.5-22.5.18-15.24.68-30.41 1.5-45.5 60.32-10.5 120.65-21 181-31.5h3c-.33 10.51.01 20.85 1 31 3.24 17.8 13.9 25.63 32 23.5 10.83-2.83 17.67-9.67 20.5-20.5.5-15 .67-30 .5-45 3.68-.22 7.35-.56 11-1 13.91-2.92 27.91-5.09 42-6.5-17 14.33-34 28.67-51 43 28.68 16.34 57.68 32.17 87 47.5.95 1.55 1.29 3.21 1 5Z"/><path style="opacity:1" fill="#fefefe" d="M3146.5 3185.5c47.94 25.64 95.94 51.3 144 77-1.55-21.09-3.55-42.42-6-64 53.14-5.76 106.31-11.43 159.5-17 .83.33 1.67.67 2.5 1-40 224.01-80 448.01-120 672-75.25-8.18-150.58-15.51-226-22-.17-223.67 0-447.33.5-671 15.17 8.17 30.34 16.17 45.5 24Z"/><path style="opacity:1" fill="#274159" d="M3000.5 3034.5c.22 1.23.89 2.23 2 3 1.92.81 3.92 1.31 6 1.5-.56 2.24-1.56 4.24-3 6 1.47.71 2.14 1.88 2 3.5a88.61 88.61 0 0 0-9-2v13c3.65-.44 7.32-.78 11-1 .72.42 1.22 1.08 1.5 2 .85-.92 1.85-.92 3 0 3.57-.66 6.73-1.83 9.5-3.5-.95 2.48-.95 4.81 0 7-1.88.58-3.71.41-5.5-.5-1.26.26-2.26.93-3 2-1.36-.88-2.86-1.21-4.5-1 .17 2.12-.16 4.12-1 6-3.65.44-7.32.78-11 1 .17 15 0 30-.5 45-2.83 10.83-9.67 17.67-20.5 20.5-18.1 2.13-28.76-5.7-32-23.5v-32c-1.6-.27-2.93.07-4 1-60.35 10.5-120.68 21-181 31.5-.82 15.09-1.32 30.26-1.5 45.5-2.34 13.25-10.17 20.75-23.5 22.5-16.32.35-26.15-7.48-29.5-23.5-.5-11.33-.67-22.66-.5-34-34.46 5.19-68.79 11.02-103 17.5-27.91 9.96-40.57 29.79-38 59.5-.33 32.67 0 65.34 1 98 .61-.12.94-.46 1-1 174.07-31.9 348.07-64.23 522-97v-42c1.73-1.87 2.56-3.87 2.5-6a7.379 7.379 0 0 0 2 3c.67-2 1.33-4 2-6 1.36-.88 2.86-1.21 4.5-1 14.46 7.06 28.8 14.4 43 22 .73 2.52 1.9 4.85 3.5 7 .33-.67.67-1.33 1-2 2.09 1.29 4.25 2.46 6.5 3.5-.89 3.44-.06 3.94 2.5 1.5.48.95.65 1.95.5 3 1.7-.16 3.37.01 5 .5l-1.5 1.5c-1.65-.19-3.48-.36-5.5-.5 1.39-.89 1.22-1.39-.5-1.5-2.26.2-4.76.54-7.5 1-15.16-7.83-30.33-15.83-45.5-24-.5 223.67-.67 447.33-.5 671 .17 22.34 0 44.67-.5 67-3.84 25.5-17.68 43-41.5 52.5-12.69 2.67-25.36 5.34-38 8 6.6 38.46-6.07 68.8-38 91-26.16 14.63-53.16 16.3-81 5-27.62-13.71-43.62-35.88-48-66.5a2000.6 2000.6 0 0 0-87 15c3.42 44.69-14.91 76.52-55 95.5-43.18 13.05-77.68 1.22-103.5-35.5-5.59-9.28-9.09-19.28-10.5-30-4.49.23-8.83-.44-13-2-.9-.66-1.9-1.32-3-2 .67-.33 1.33-.67 2-1-.78-2.55-.11-4.88 2-7-1.54.21-3.21.21-5 0 1.35-1.45 3.02-2.12 5-2 4.97.92 9.97 1.09 15 .5 28.44-4.69 56.77-9.86 85-15.5-2.64-3.61-4.47-7.61-5.5-12a4400.5 4400.5 0 0 1 0-133c8.44-18.04 21.28-22.2 38.5-12.5 4.5 3.84 7.34 8.67 8.5 14.5.67 43.67.67 87.33 0 131a8.765 8.765 0 0 0-1.5 5 8776.766 8776.766 0 0 0 220-39 23.888 23.888 0 0 1-2.5-6c-.67-45.33-.67-90.67 0-136 7.87-16.17 20.04-20.34 36.5-12.5 4.53 3.57 7.7 8.07 9.5 13.5.5 44.67.67 89.33.5 134 20.02-3.3 40.02-6.8 60-10.5 22.24-6.73 34.9-21.57 38-44.5 1.33-224.83 1.33-449.83 0-675-.61.12-.94.46-1 1-173.39 32.01-346.73 64.35-520 97-2 221.33-2.67 443-2 665-.26 4.1.07 8.1 1 12-3.4 1.84-4.9 1.17-4.5-2a48.919 48.919 0 0 0-7.5 5c-.66-137.15-1-274.32-1-411.5-.16-137.86.34-275.69 1.5-413.5 5.72-19.72 17.89-33.89 36.5-42.5 37.84-7.86 75.84-14.86 114-21 1.16-22.43 1.33-44.93.5-67.5-2.72.94-5.55 1.28-8.5 1-.98-.64-1.98-1.31-3-2-1.98.88-3.98.72-6-.5.17-1.12.5-2.28 1-3.5 1.91-1.58 3.58-3.25 5-5 3.98-.8 7.98-1.46 12-2 1-98.17 1.33-196.5 1-295h-14c-29.74-1.91-48.58-17.24-56.5-46-3.44-29 1.22-56.67 14-83a633.601 633.601 0 0 1 15.5-30 717.405 717.405 0 0 1-32.5-45c-9.48-15.11-15.81-31.44-19-49-1.77-14.6 1.9-27.6 11-39 8.3-8.63 17.46-16.13 27.5-22.5a928.436 928.436 0 0 0 50-29c14.64-14.97 29.64-29.64 45-44 13.48-9.78 28.48-13.12 45-10 17.02 3.23 33.02 9.23 48 18 11.71 7.51 23.37 15.01 35 22.5a368.994 368.994 0 0 1 74-28.5c8.35-1.24 16.68-2.57 25-4 16.18-2.01 31.85-.01 47 6 24.01 11.53 36.01 30.7 36 57.5-2.1 27.38-9.93 53.05-23.5 77-10.1 18.75-21.76 36.42-35 53-.17 82.17-.33 164.33-.5 246.5 0 82.5.67 164.67 2 246.5Z"/><path style="opacity:1" fill="#5d6d56" d="M2941.5 3082.5c1.07-.93 2.4-1.27 4-1v32c-.99-10.15-1.33-20.49-1-31h-3Z"/><path style="opacity:1" fill="#f7f08d" d="M2858.5 3020.5c8.01-.17 16.01 0 24 .5 20.82 3.54 41.49 7.71 62 12.5.63 12.42-.03 24.58-2 36.5-60.96 10.73-121.96 21.23-183 31.5v-66c33.19-4.6 66.19-9.6 99-15Z"/><path style="opacity:1" fill="#bdc6ce" d="M2751.5 2729.5c.67 140.67 1.33 281.33 2 422-.15 17.32-8.81 25.48-26 24.5-8.24-2.57-13.41-8.07-15.5-16.5-.5-140.67-.67-281.33-.5-422 13.58-1.4 26.92-4.06 40-8Z"/><path style="opacity:1" fill="#98a4b0" d="M2751.5 2729.5c.06-.54.39-.88 1-1 1 141 1.33 282 1 423-.67-140.67-1.33-281.33-2-422Z"/><path style="opacity:1" fill="#596e81" d="M2943.5 3020.5c1-139.17 1.33-278.5 1-418 .67 68.93 1 138.6 1 209-.33 70-.67 140-1 210-.61-.12-.94-.46-1-1Z"/><path style="opacity:1" fill="#fefefe" d="M2944.5 2602.5c.33 139.5 0 278.83-1 418a758.93 758.93 0 0 0-73-12c-4 .17-8 .33-12 .5-33.01 4.92-66.01 9.75-99 14.5-.17-99 0-198 .5-297 50.55-20.51 96.72-48.01 138.5-82.5 15.8-13.3 31.13-27.13 46-41.5Z"/><path style="opacity:1" fill="#bcc5cd" d="M2991.5 2550.5c1.17 187.83 1.33 375.83.5 564-2.78 10.61-9.61 16.28-20.5 17-10.86-.69-17.7-6.36-20.5-17-.67-173-.67-346 0-519a511.863 511.863 0 0 0 40.5-45Z"/><path style="opacity:1" fill="#fed8ab" d="M2971.5 2358.5c60.49-4.03 83.99 23.31 70.5 82-7.95 25.9-19.62 49.9-35 72-55.5 77.85-125 139.68-208.5 185.5-26.69 14.45-55.02 24.12-85 29-49.71 3.96-72.21-18.88-67.5-68.5 4.28-25.5 13.28-49.17 27-71 12.12 14.81 20.79 31.48 26 50 .33 6.02.33 12.02 0 18 4.33 4.25 7.66 3.59 10-2 1.92-12.76.09-24.93-5.5-36.5.33-.5.67-1 1-1.5 71.23-24.42 129.73-66.42 175.5-126 14.59-21.18 26.59-43.84 36-68 6.05-.01 12.22-.17 18.5-.5 4.69-.65 7.69-3.15 9-7.5-.38-1.88-1.38-3.38-3-4.5-4.41.19-8.74 1.02-13 2.5-12.02-3.01-23.02-8.18-33-15.5a41.076 41.076 0 0 0-7-5c-1.51-.84-2.01-2-1.5-3.5 27.08-14.19 55.58-23.86 85.5-29Z"/><path style="opacity:1" fill="#fed8ab" d="M2773.5 2349.5c15.05-.82 29.39 2.02 43 8.5 24.52 12.42 47.52 27.09 69 44 1.05 1.39 1.22 2.89.5 4.5-15.14 41.12-38.97 76.29-71.5 105.5-25.43 24.09-54.1 43.43-86 58-14.11 5.22-28.11 10.72-42 16.5-20.53-23.37-38.36-48.7-53.5-76-6.75-12.52-9.42-25.85-8-40 3.57-12.62 10.74-22.78 21.5-30.5a584.71 584.71 0 0 1 56-33c3.49-2.91 7.16-5.58 11-8 12-12.33 24-24.67 36-37 7.1-6.05 15.1-10.21 24-12.5Z"/><path style="opacity:1" fill="#29425a" d="M2757.5 2376.5c5.67-.83 8.17 1.5 7.5 7-13.77 31.11-36.61 52.61-68.5 64.5-3.24 1.37-6.57 1.7-10 1-2.18-2.42-2.51-5.08-1-8 33.04-11.54 57.04-33.04 72-64.5Z"/><path style="opacity:1" fill="#c0be50" d="M2564.5 3201.5c.67 32.33 1.33 64.67 2 97-.06.54-.39.88-1 1-1-32.66-1.33-65.33-1-98Z"/><path style="opacity:1" fill="#f5e84d" d="M3086.5 3223.5c1 224.5 1.33 449.17 1 674-3.1 22.93-15.76 37.77-38 44.5-19.98 3.7-39.98 7.2-60 10.5.17-44.67 0-89.33-.5-134-1.8-5.43-4.97-9.93-9.5-13.5-16.46-7.84-28.63-3.67-36.5 12.5-.67 45.33-.67 90.67 0 136 .56 2.11 1.39 4.11 2.5 6a8776.766 8776.766 0 0 1-220 39c-.01-1.81.49-3.48 1.5-5 .67-43.67.67-87.33 0-131-1.16-5.83-4-10.66-8.5-14.5-17.22-9.7-30.06-5.54-38.5 12.5a4400.5 4400.5 0 0 0 0 133c1.03 4.39 2.86 8.39 5.5 12-28.23 5.64-56.56 10.81-85 15.5-5.03.59-10.03.42-15-.5-10.22-4.55-16.88-12.22-20-23-.93-3.9-1.26-7.9-1-12 .67-221.57 1.33-443.24 2-665 173.27-32.65 346.61-64.99 520-97Z"/><path style="opacity:1" fill="#8c945b" d="M3086.5 3223.5c.06-.54.39-.88 1-1 1.33 225.17 1.33 450.17 0 675 .33-224.83 0-449.5-1-674Z"/><path style="opacity:1" fill="#c0be50" d="M2566.5 3320.5c-.67 221.76-1.33 443.43-2 665-.67-222 0-443.67 2-665Z"/><path style="opacity:1" fill="#fcfcfc" d="M1572.5 3623.5c57.38-.74 114.38 3.43 171 12.5 3.62 1.16 7.29 2.16 11 3 .63.75 1.13 1.58 1.5 2.5.5 7.66.67 15.33.5 23-62.99-4.81-125.99-9.48-189-14 .52-9.24 2.18-18.24 5-27Z"/><path style="opacity:1" fill="#29425b" d="M3444.5 3871.5c-13.15 71.55-26.32 143.22-39.5 215l-1.5 1.5c-3.83.17-7.67.33-11.5.5-34.52-.48-69.02-1.31-103.5-2.5-1.48-1.3-2.15-2.97-2-5a26378.41 26378.41 0 0 1 40-226.5c40-223.99 80-447.99 120-672-.83-.33-1.67-.67-2.5-1-53.19 5.57-106.36 11.24-159.5 17 2.45 21.58 4.45 42.91 6 64-48.06-25.7-96.06-51.36-144-77 2.74-.46 5.24-.8 7.5-1 1.72.11 1.89.61.5 1.5 2.02.14 3.85.31 5.5.5l1.5-1.5c-1.63-.49-3.3-.66-5-.5.15-1.05-.02-2.05-.5-3-2.56 2.44-3.39 1.94-2.5-1.5a61.434 61.434 0 0 1-6.5-3.5c-.33.67-.67 1.33-1 2-1.6-2.15-2.77-4.48-3.5-7 44.81 24.24 89.81 48.24 135 72-.94-16.25-2.27-32.58-4-49 .11-2.14.78-3.97 2-5.5 187.6-20.49 375.26-40.33 563-59.5-7.68-71.98-15.18-143.98-22.5-216-.84-1.12-2.01-1.79-3.5-2-187.64 19.94-375.31 39.61-563 59-1.87-18.01-3.87-36.01-6-54a59698.413 59698.413 0 0 1-223.5 188c-.69.83-.52 1.5.5 2a4418.14 4418.14 0 0 1 79 43c-1.64-.21-3.14.12-4.5 1-.67 2-1.33 4-2 6a7.379 7.379 0 0 1-2-3c.06 2.13-.77 4.13-2.5 6 .29-1.79-.05-3.45-1-5a2745.079 2745.079 0 0 1-87-47.5c17-14.33 34-28.67 51-43a396.453 396.453 0 0 0-42 6.5c.84-1.88 1.17-3.88 1-6 1.64-.21 3.14.12 4.5 1 .74-1.07 1.74-1.74 3-2 1.79.91 3.62 1.08 5.5.5-.95-2.19-.95-4.52 0-7-2.77 1.67-5.93 2.84-9.5 3.5-1.15-.92-2.15-.92-3 0-.28-.92-.78-1.58-1.5-2 5.94-1.29 11.94-2.79 18-4.5-6.87-1.55-13.54-3.38-20-5.5.14-1.62-.53-2.79-2-3.5 1.44-1.76 2.44-3.76 3-6-2.08-.19-4.08-.69-6-1.5-1.11-.77-1.78-1.77-2-3 21.55 5.43 43.05 11.09 64.5 17 1.22-.36 2.39-.86 3.5-1.5a9994.685 9994.685 0 0 1 183.5-153.5c2.47 20.68 4.97 41.34 7.5 62 76.21-7.5 152.38-15.5 228.5-24 1.33-.25 2.33-.92 3-2 19.5-109.49 39-218.99 58.5-328.5-.33-1.17-.67-2.33-1-3.5-82.71-67.01-165.37-134.01-248-201 50.69-62.19 101.19-124.52 151.5-187 48.41 39.45 96.91 78.79 145.5 118 1.49-4.22 2.65-8.55 3.5-13 10.3-60.59 21.14-121.09 32.5-181.5-.14-.77-.48-1.44-1-2-59.87-18.09-119.71-36.26-179.5-54.5-.77.14-1.44.48-2 1-6.17 20.01-12.34 40.01-18.5 60a18902.725 18902.725 0 0 1-207-256c103.56-32.91 207.39-64.91 311.5-96 .83.17 1.67.33 2.5.5-6.5 20.02-12.5 40.18-18 60.5 51.64 15.32 103.3 30.66 155 46 14.14-82.93 28.81-165.76 44-248.5-.33-.83-.67-1.67-1-2.5l-300-183c-14.08 22.5-27.92 45.17-41.5 68-3.37 2.91-6.37 2.57-9-1a33085.422 33085.422 0 0 1-73.5-303.5c-.06-1.71.61-3.04 2-4 99.56-24.81 199.23-49.14 299-73 7.47-2.51 10.64-.01 9.5 7.5-13.3 22.13-26.8 44.13-40.5 66a1293.57 1293.57 0 0 0 62 39.5c48.75 29.12 97.25 58.62 145.5 88.5 3.36-15.51 6.36-31.18 9-47 .79-5.62 3.96-7.46 9.5-5.5 36.01 6.43 72.01 12.76 108 19 2.09 1.26 3.09 3.09 3 5.5-6.3 32.3-11.8 64.64-16.5 97 98.08 59.96 196.25 119.79 294.5 179.5 1.28.68 2.45.52 3.5-.5 13.33-22 26.67-44 40-66 2.8-2.61 5.63-2.61 8.5 0 24.97 100.21 49.47 200.54 73.5 301 .78 2.76.28 5.26-1.5 7.5-94.35 23.01-188.68 46.01-283 69-7.95 1.99-15.95 3.32-24 4-2.49-2.97-2.66-6.14-.5-9.5 13.04-21.58 26.21-43.08 39.5-64.5-67.83-42.08-135.83-83.92-204-125.5-13.52 71.39-26.52 142.89-39 214.5.33 1.17.67 2.33 1 3.5 89.83 27.67 179.83 54.83 270 81.5.52.56.86 1.23 1 2-23.24 76.13-46.24 152.3-69 228.5-82.55-23.89-164.88-48.56-247-74-14.82 82.93-29.32 165.93-43.5 249l188 152a1470.73 1470.73 0 0 1 41-50c32.6 104.74 64.44 209.74 95.5 315-102.03-8.06-204.03-16.56-306-25.5-7.08-.74-14.08-1.9-21-3.5 13.38-16.05 26.38-32.38 39-49a4473.821 4473.821 0 0 0-85.5-69c-14.21 77.32-28.38 154.66-42.5 232 1 .33 2 .67 3 1 69.27-7.99 138.6-15.33 208-22 7.95 79.7 16.28 159.37 25 239-93.23 9.68-186.4 19.68-279.5 30-42.68 234.24-84.84 468.57-126.5 703Z"/><path style="opacity:1" fill="#c3986b" d="M3552.5 3169.5h7c-54.48 301.89-108.65 603.89-162.5 906-8.94 1.32-18.1 1.99-27.5 2-24-.6-48-.93-72-1 53.34-297.89 106.51-595.89 159.5-894 .37-.92.87-1.75 1.5-2.5 31.52-3.19 62.85-6.69 94-10.5ZM3559.5 2609.5c29.46 23.62 58.79 47.45 88 71.5-15.03 80.31-29.36 160.81-43 241.5-34.3 3.86-68.64 7.53-103 11 19.76-107.9 39.1-215.9 58-324Z"/><path style="opacity:1" fill="#f0e6dc" d="M3452.5 2228.5c1.42.21 2.76.71 4 1.5 146.41 118.62 292.91 237.12 439.5 355.5a2126.59 2126.59 0 0 1 34.5-42c29.54 92.96 57.88 186.3 85 280-97.4-7.6-194.74-15.93-292-25 11.36-13.52 22.52-27.19 33.5-41 .16-1.89-.67-3.39-2.5-4.5a175360.25 175360.25 0 0 1-439-355c45.88-56.37 91.55-112.87 137-169.5Z"/><path style="opacity:1" fill="#c3986b" d="M3643.5 2137.5c32.23 9.41 64.23 19.41 96 30-14.06 80.82-28.72 161.49-44 242a8638.054 8638.054 0 0 1-86.5-70c-.5-4.71-.16-9.37 1-14 11.49-62.64 22.66-125.3 33.5-188Z"/><path style="opacity:1" fill="#f0e6dc" d="M3519.5 1803.5h4c-5.46 17.48-10.46 35.15-15 53a90904.797 90904.797 0 0 1 544 165c-21.46 69.51-42.46 139.18-63 209-161.42-48.54-322.75-97.37-484-146.5a2179.7 2179.7 0 0 0-62-17.5c-4.85 17.41-10.02 34.74-15.5 52a60811.895 60811.895 0 0 0-184.5-228c92.06-29.02 184.06-58.02 276-87Z"/><path style="opacity:1" fill="#c3986b" d="M3730.5 1651.5c29.98 18.31 59.98 36.64 90 55 .33 1.33.67 2.67 1 4-13.14 72.34-26.14 144.67-39 217-31.95-9.54-63.95-18.87-96-28 14.45-82.69 29.12-165.36 44-248ZM3791.5 1308.5c32.98 5.49 65.98 10.83 99 16-4.41 29.23-9.74 58.23-16 87-30-18.33-60-36.67-90-55-.33-1-.67-2-1-3a709.38 709.38 0 0 1 7.5-36c.5-2.98.66-5.98.5-9Z"/><path style="opacity:1" fill="#f0e6dc" d="M3583.5 1161.5c2.03-.16 4.03 0 6 .5a5378.244 5378.244 0 0 1-36.5 59.5c-.84 2.64-.34 4.97 1.5 7l627 382.5c2 .67 4 .67 6 0 13.21-20.25 26.04-40.75 38.5-61.5 22.59 93.53 45.42 187.03 68.5 280.5-.41.95-1.07 1.61-2 2-92.47 22.74-184.97 45.24-277.5 67.5-.83-.33-1.67-.67-2.5-1 12.42-19.83 24.58-39.83 36.5-60 .9-2.53.4-4.69-1.5-6.5-209.33-127.67-418.67-255.33-628-383-3.29-.75-5.79.42-7.5 3.5-11.75 19.83-23.75 39.5-36 59-22.99-94.31-45.83-188.64-68.5-283 92.24-21.73 184.24-44.06 276-67Z"/><path style="opacity:1" fill="#f5ea33" d="M1346.5 3641.5c59.36 4.12 118.69 8.46 178 13-.67 6.33-1.33 12.67-2 19-70.48-5.76-140.82-11.92-211-18.5 11.88-4.23 23.55-8.73 35-13.5Z"/><path style="opacity:1" fill="#9da9b4" d="M1798.5 3646.5c.7 7.23 1.36 14.57 2 22-1.96-6.92-2.63-14.26-2-22Z"/><path style="opacity:1" fill="#f6eb33" d="M1566.5 3658.5c63.33 5.04 126.67 10.21 190 15.5a352.28 352.28 0 0 1-3 18.5c-62.97-5.22-125.97-10.22-189-15 .09-6.44.75-12.77 2-19ZM1815.5 3706.5c74.6 6.65 149.26 13.15 224 19.5-20.42 7.89-40.76 15.72-61 23.5-1.08.04-2.08.37-3 1a48.457 48.457 0 0 0-12-2.5c-248.36-19.53-496.69-39.19-745-59 24.64-9.43 49.47-18.27 74.5-26.5 174.13 15.08 348.3 29.75 522.5 44Z"/><path style="opacity:1" fill="#838c48" d="M1805.5 3677.5c-3.03-.37-5.7.3-8 2v-3c2.89-.31 5.55.03 8 1Z"/><path style="opacity:1" fill="#f6eb33" d="M1805.5 3677.5c100.37 7.4 200.7 15.23 301 23.5a222.57 222.57 0 0 1-10 4.5 453.137 453.137 0 0 0-38 14c-77.54-7.71-155.2-14.38-233-20-9.95-1.44-19.95-2.44-30-3 .78-5.65 1.44-11.32 2-17 2.3-1.7 4.97-2.37 8-2Z"/><path style="opacity:1" fill="#f99933" d="M1331.5 3824.5c1-38.83 1.33-77.83 1-117h4c120.67 9.17 241.34 18.5 362 28v116c6.05.28 12.05.94 18 2 1.42.95 3.09 1.28 5 1v-117c83.36 6.45 166.7 13.11 250 20-1.3 80.67-2.97 161.34-5 242-4.5 132.75-9.5 265.59-15 398.5-256.67-19.97-513.33-40.31-770-61-.65-5.09-.99-10.25-1-15.5 4.62-199.67 9.29-399.34 14-599-.17-6.34 0-12.68.5-19 .52-2.53 1.68-4.7 3.5-6.5 36.68 2.13 73.34 4.8 110 8 1 38.76 1.33 77.59 1 116.5 7.31 1.16 14.64 2.16 22 3Z"/><path style="opacity:1" fill="#8e6d46" d="M1336.5 3707.5h-4c.33 39.17 0 78.17-1 117v-118c1.91-.28 3.58.05 5 1Z"/><path style="opacity:1" fill="#f9b972" d="M2118.5 3761.5c-5.74 193.51-11.57 387.18-17.5 581a620.96 620.96 0 0 1-55.5 21c4.68-212 9.35-424 14-636a521.54 521.54 0 0 0 40-15c6.67-1.84 13.17-4.17 19.5-7 .26 18.67.09 37.33-.5 56Z"/><path style="opacity:1" fill="#cdced0" d="M2125.5 3808.5v14c38.97-2.3 77.97-3.97 117-5-.17 93.33 0 186.67.5 280 .64 1.47 1.47 2.8 2.5 4a609.95 609.95 0 0 0-29.5 42 250.98 250.98 0 0 0-16 33c-2.07 10.93 2.43 17.1 13.5 18.5 7.32.78 14.66 1.44 22 2 81.72 1.07 163.39-.6 245-5 6.75-.83 8.41-4.16 5-10-42.25-27.04-84.42-54.21-126.5-81.5 4.24-37.98 8.74-75.98 13.5-114 8.56 6.95 18.23 11.78 29 14.5a6535.001 6535.001 0 0 0 183 31.5c4.17 1.56 8.51 2.23 13 2 1.41 10.72 4.91 20.72 10.5 30 25.82 36.72 60.32 48.55 103.5 35.5 40.09-18.98 58.42-50.81 55-95.5a2000.6 2000.6 0 0 1 87-15c4.38 30.62 20.38 52.79 48 66.5 27.84 11.3 54.84 9.63 81-5 31.93-22.2 44.6-52.54 38-91 12.64-2.66 25.31-5.33 38-8 23.82-9.5 37.66-27 41.5-52.5.5-22.33.67-44.66.5-67 75.42 6.49 150.75 13.82 226 22a26378.41 26378.41 0 0 0-40 226.5c-.15 2.03.52 3.7 2 5 34.48 1.19 68.98 2.02 103.5 2.5 3.83-.17 7.67-.33 11.5-.5l1.5-1.5c13.18-71.78 26.35-143.45 39.5-215 144.71 19.37 287.05 49.54 427 90.5 63.12 18.73 124.12 42.73 183 72a461.095 461.095 0 0 1 80 53c67.51 62.34 66.51 123.68-3 184-39.33 30.85-82.33 55.85-129 75a1686.969 1686.969 0 0 1-207 69 3365.477 3365.477 0 0 1-266 56 5641.658 5641.658 0 0 1-653 66c-331.87 14.99-663.21 7.32-994-23a4539.236 4539.236 0 0 1-470-70 2009.695 2009.695 0 0 1-285-80c-54.23-19.61-105.23-45.28-153-77-19.385-13.72-36.552-29.88-51.5-48.5-25.22-34.12-28.22-70.12-9-108 13.661-21.66 30.827-40.16 51.5-55.5 48.01-33.51 99.68-60.51 155-81a879.182 879.182 0 0 1 59-20.5c-2.14 112.34-4.47 224.67-7 337 .17 10 .33 20 .5 30 .83 2.17 2.33 3.67 4.5 4.5 258.6 21.44 517.26 41.77 776 61 48.87-17.07 97.54-34.74 146-53 3.41-1.45 6.58-3.29 9.5-5.5 2.5-39.96 4-79.96 4.5-120 26.02-.73 52.02-1.89 78-3.5 3.02-2.47 3.69-5.47 2-9-25.67-16.5-51.33-33-77-49.5-.33-3.17-.67-6.33-1-9.5 3.48-115.99 6.81-231.82 10-347.5Z"/><path style="opacity:1" fill="#cead88" d="M2259.5 4101.5c27.34-.17 54.67 0 82 .5 3.67 2.33 7.33 4.67 11 7a135.504 135.504 0 0 0-23.5 17.5c-.5 5.5 2 8 7.5 7.5 7.89-8.27 17.22-13.93 28-17 4.5 2.42 8.83 5.08 13 8-7.39 4.06-14.22 8.89-20.5 14.5-1.17 6.17 1.33 8.67 7.5 7.5 6.48-5.41 13.48-10.08 21-14 1.33-.67 2.67-.67 4 0 4 2.67 8 5.33 12 8a77.078 77.078 0 0 0-17.5 11.5c-1.67 5.99.5 8.49 6.5 7.5 6.92-4.58 14.08-8.75 21.5-12.5 17.9 11.37 35.74 22.87 53.5 34.5-78.3 4.02-156.63 5.35-235 4-6.69-.8-13.35-1.63-20-2.5 1.27-9.3 4.44-17.97 9.5-26a858.247 858.247 0 0 1 39.5-56Z"/><path style="opacity:1" fill="#2a425a" d="M1825.5 3699.5c77.8 5.62 155.46 12.29 233 20 12.48-5.24 25.15-9.91 38-14-1.35 1.01-2.85 2.68-4.5 5-.41-.46-.91-.79-1.5-1a8.152 8.152 0 0 1-4 2.5c1.33 1 1.33 2 0 3 2.99.75 4.83-.42 5.5-3.5 1.52-.44 2.69.22 3.5 2a6.816 6.816 0 0 1 4-1 521.54 521.54 0 0 1-40 15c-4.65 212-9.32 424-14 636a620.96 620.96 0 0 0 55.5-21c5.93-193.82 11.76-387.49 17.5-581-.13.74.04 1.41.5 2 .33-1.33.67-2.67 1-4 1.11 1.26 1.28 2.43.5 3.5 1.66 2.63 2.16 5.47 1.5 8.5-.33-1.33-.67-2.67-1-4-1.12 1.05-1.62 2.22-1.5 3.5 1.44 4.01 2.27 8.17 2.5 12.5.33-2.67.67-5.33 1-8a7.379 7.379 0 0 0 2 3c.2-1.88.7-3.55 1.5-5-.3 11.67-.63 23.33-1 35-3.19 115.68-6.52 231.51-10 347.5.33 3.17.67 6.33 1 9.5 25.67 16.5 51.33 33 77 49.5 1.69 3.53 1.02 6.53-2 9a2306.97 2306.97 0 0 1-78 3.5c-.5 40.04-2 80.04-4.5 120a44.639 44.639 0 0 1-9.5 5.5 6390.218 6390.218 0 0 1-146 53c-258.74-19.23-517.4-39.56-776-61-2.17-.83-3.67-2.33-4.5-4.5-.17-10-.33-20-.5-30 2.53-112.33 4.86-224.66 7-337 2.32-87.67 4.65-175.33 7-263v9h3c-.17-3.68 0-7.35.5-11 .33 5.33.67 10.67 1 16 .91 1.15 1.75.99 2.5-.5-1.21-1.11-.88-1.61 1-1.5-4.71 199.66-9.38 399.33-14 599 .01 5.25.35 10.41 1 15.5 256.67 20.69 513.33 41.03 770 61 5.5-132.91 10.5-265.75 15-398.5-.71 4.39.63 7.89 4 10.5-.84 1.67-.34 1.83 1.5.5.33-1.33.67-2.67 1-4 .38.56.88.89 1.5 1-4.13 123.84-8.46 247.67-13 371.5.33 5.17.67 10.33 1 15.5 24.28-9.2 48.61-18.2 73-27 .33-4.17.67-8.33 1-12.5 5.31-207.86 9.98-415.69 14-623.5-21.8 7.74-43.46 15.74-65 24 .02-1.64-.65-2.98-2-4 .67-.33 1.33-.67 2-1-2.24-.97-4.58-1.31-7-1 20.24-7.78 40.58-15.61 61-23.5-74.74-6.35-149.4-12.85-224-19.5-.13-.74.04-1.41.5-2 .72.95 1.55 1.12 2.5.5-1.2-.65-1.2-1.15 0-1.5.69.53 1.19 1.19 1.5 2 2.48.4 4.98-.1 7.5-1.5-2.29-1.06-2.96-2.56-2-4.5Z"/><path style="opacity:1" fill="#cdac88" d="M2118.5 4179.5c17.78 11.28 35.45 22.78 53 34.5a641.602 641.602 0 0 1-58 2c.82-11.09 1.32-22.26 1.5-33.5a29.71 29.71 0 0 1 3.5-3Z"/><path style="opacity:1" fill="#f15b2a" d="M1299.5 4078.5c46.97-2.77 81.81 16.23 104.5 57 17.82 45.55 9.32 85.38-25.5 119.5-31.92 25.11-66.92 30.45-105 16-44.15-22.12-63.98-57.95-59.5-107.5 9.79-47.29 38.29-75.62 85.5-85Z"/><path style="opacity:1" fill="#fefefe" d="M1302.5 4098.5c41.08-2.05 69.91 15.61 86.5 53 10.87 39.74-.3 71.57-33.5 95.5-36.57 18.99-70.07 14.82-100.5-12.5-21.54-25.01-27.2-53.35-17-85 12.62-28.38 34.12-45.38 64.5-51Z"/><path style="opacity:1" fill="#fde175" d="M1733.5 3812.5c1.63-.66 3.47-.99 5.5-1 58.79 5.3 117.62 9.97 176.5 14-4.78 61.14-9.94 122.14-15.5 183a47987.133 47987.133 0 0 0-166.5-196Z"/><path style="opacity:1" fill="#fefefd" d="M1782.5 3836.5c2.14-.66 4.47-1 7-1 33.98 3.03 67.98 5.7 102 8-2.67 36.69-5.67 73.36-9 110-33.39-39.04-66.72-78.04-100-117Z"/><path style="opacity:1" fill="#8e6d45" d="M1721.5 3737.5v117c-1.91.28-3.58-.05-5-1h4c-.33-38.84 0-77.5 1-116Z"/><path style="opacity:1" fill="#f9b972" d="M1974.5 4007.5c2.43-83.32 4.43-166.65 6-250 1.7-.67 3.36-1.34 5-2 21.54-8.26 43.2-16.26 65-24-4.02 207.81-8.69 415.64-14 623.5-.33 4.17-.67 8.33-1 12.5-24.39 8.8-48.72 17.8-73 27-.33-5.17-.67-10.33-1-15.5 4.54-123.83 8.87-247.66 13-371.5Z"/></svg>