<svg width="249" height="306" viewBox="0 0 249 306" fill="none" xmlns="http://www.w3.org/2000/svg">
<g opacity="0.15">
<path d="M166.923 44.0133C163.969 46.0635 156.03 47.4407 156.024 47.4407C156.018 47.4407 156.703 41.932 156.79 41.5892C157.812 37.6197 162.112 30.5468 166.699 30.2664C169.995 30.067 172.419 32.9335 172.307 36.1054C172.195 39.2773 169.441 42.2498 166.923 44.0133Z" fill="black"/>
<path d="M145.056 143.912C145.056 144.099 145.056 144.274 145.056 144.461L142.314 146.212C142.314 145.464 142.314 144.71 142.314 143.925C142.314 141.719 142.358 139.357 142.42 136.933C140.146 136.508 137.898 135.948 135.69 135.257C133.877 138.204 128.549 142.292 127.857 142.815C129.047 144.635 130.231 146.386 131.365 148.031C132.151 149.159 132.911 150.237 133.646 151.278L130.661 151.864C130.15 151.116 129.639 150.349 129.116 149.552C127.869 147.714 126.623 145.719 125.346 143.663C124.536 144.006 117.868 146.779 114.503 146.685C111.443 146.604 107.567 145.645 105.685 143.009C103.803 140.373 104.302 136.702 107.174 135.063C111.163 132.783 118.634 136.347 121.657 139.114C121.837 139.276 123.576 141.264 124.654 142.535C124.137 141.694 123.62 140.877 123.096 140.005C122.049 138.279 121.058 136.528 119.98 134.652L118.497 131.848C117.986 130.919 117.562 129.879 117.083 128.882C116.017 126.557 115.057 124.152 114.141 121.709C112.633 122.625 107.218 125.791 104.171 126.171C101.123 126.551 97.1601 126.171 94.8981 123.871C92.636 121.572 92.5737 117.845 95.166 115.77C98.7617 112.916 106.688 115.309 110.122 117.584C110.34 117.721 112.615 119.634 113.823 120.7C113.281 119.223 112.739 117.752 112.241 116.244C110.807 111.882 109.492 107.432 108.159 102.996C107.743 101.637 107.328 100.283 106.913 98.9325C106.383 99.2628 100.058 103.17 96.6117 103.594C93.5707 103.98 89.595 103.594 87.3391 101.294C85.0833 98.9949 85.0147 95.2684 87.6071 93.1932C91.2027 90.3392 99.1293 92.7321 102.563 95.0066C102.818 95.1811 106.071 97.9293 106.863 98.6708C105.94 95.6859 104.993 92.7259 103.946 89.8469C102.526 85.968 100.854 82.1858 98.9424 78.524C98.6931 78.6736 92.0876 82.7802 88.5854 83.2164C85.5444 83.5966 81.5687 83.2164 79.3066 80.917C77.0445 78.6175 76.9822 74.891 79.5745 72.8159C83.1702 69.9618 91.0968 72.3548 94.5304 74.6293C94.7921 74.81 98.2694 77.7451 98.8925 78.3683C98.7866 78.1564 98.6931 77.9258 98.5809 77.7451C96.5784 74.1052 94.2574 70.6498 91.6452 67.4193C90.2306 65.6122 88.7724 63.9733 87.283 62.4341C86.1302 63.3252 80.8209 67.3383 77.7113 68.0799C74.7326 68.7903 70.7381 68.8713 68.2393 66.8336C65.7404 64.7958 65.2668 61.1005 67.6161 58.7761C70.8815 55.5419 79.0199 57.0499 82.6592 58.9381C82.8586 59.0378 84.753 60.3028 86.124 61.2438C85.4572 60.5459 84.7779 59.8168 84.1298 59.1625C81.6808 56.6698 79.2941 54.5885 77.1629 52.7377C75.9166 51.697 74.8198 50.781 73.7542 49.9335C72.1714 50.2139 65.7591 51.2795 62.7118 50.5192C59.6646 49.759 56.1624 48.0266 54.8912 45.0292C53.6199 42.0318 54.8912 38.5732 58.0568 37.5887C62.4189 36.2239 68.9684 41.3276 71.3301 44.6615C71.5358 44.9544 74.2029 49.8462 74.1219 49.8649H74.0284C75.0629 50.6563 76.1659 51.5225 77.3561 52.4946C79.5309 54.3018 81.9737 56.3582 84.4788 58.7823C87.2096 61.3617 89.7856 64.1001 92.1935 66.9831C94.9131 70.1926 97.3386 73.6401 99.4409 77.284L99.5094 77.4211C99.2228 76.1062 98.556 72.4046 98.5373 72.1117C98.2694 68.0238 100.151 59.9601 104.42 58.2651C107.492 57.0188 110.689 59.0129 111.555 62.0664C112.421 65.1199 110.782 68.7404 108.913 71.1832C106.832 73.9438 100.251 77.5083 99.7275 77.795C101.776 81.5532 103.57 85.4442 105.099 89.4418C106.003 91.7662 106.844 94.1404 107.654 96.5271C107.449 95.3805 107.268 94.3523 107.262 94.209C106.994 90.1211 108.876 82.0574 113.144 80.3624C116.216 79.1161 119.413 81.1102 120.279 84.1636C121.146 87.2171 119.507 90.9062 117.637 93.349C115.768 95.7918 110.215 98.9575 108.732 99.7987C109.038 100.721 109.355 101.631 109.648 102.553C111.075 106.965 112.484 111.377 114.01 115.639C114.54 117.148 115.12 118.612 115.699 120.083C115.512 119.067 115.369 118.213 115.356 118.076C115.088 113.988 116.97 105.924 121.239 104.229C124.311 103.014 127.508 104.977 128.374 108.031C129.24 111.084 127.608 114.798 125.738 117.241C123.869 119.684 118.883 122.569 117.101 123.541C117.724 125.03 118.348 126.52 119.052 127.903C119.538 128.857 119.943 129.81 120.485 130.745C121.027 131.68 121.519 132.614 122.024 133.518C123.071 135.244 124.137 137.033 125.196 138.69C125.925 139.849 126.642 140.94 127.358 142.043C126.81 140.541 125.794 137.593 125.738 137.332C125.096 133.791 125.369 130.144 126.53 126.738C126.44 126.345 126.388 125.944 126.374 125.541C126.262 122.376 128.698 119.522 131.982 119.74C136.563 120.039 140.825 127.137 141.822 131.113C141.884 131.343 142.24 133.96 142.445 135.612C142.483 134.627 142.501 133.661 142.545 132.646C142.626 130.633 142.757 128.62 142.894 126.458C143 125.417 143.106 124.364 143.212 123.304C143.318 122.245 143.517 121.142 143.66 120.051C144.059 117.559 144.583 114.991 145.168 112.443C143.405 112.374 137.142 112.031 134.388 110.667C131.633 109.302 128.524 106.809 127.919 103.631C127.315 100.453 129.309 97.3186 132.599 97.0381C137.173 96.6393 142.47 103.008 144.059 106.784C144.159 107.021 144.994 109.863 145.424 111.427C145.785 109.9 146.141 108.373 146.558 106.847C147.767 102.416 149.125 97.9791 150.459 93.5422C150.87 92.1837 151.263 90.8252 151.662 89.4605C151.039 89.4605 143.561 89.1988 140.495 87.6658C137.753 86.3073 134.631 83.8147 134.026 80.6303C133.422 77.446 135.416 74.3239 138.712 74.0373C143.28 73.6447 148.577 80.0072 150.166 83.7897C150.285 84.0702 151.481 88.1519 151.737 89.2175C152.609 86.2201 153.456 83.2289 154.167 80.2502C155.151 76.2282 155.871 72.1461 156.323 68.03C156.03 68.03 148.222 67.7995 145.106 66.2291C142.358 64.8706 139.242 62.378 138.638 59.1936C138.033 56.0093 140.021 52.8872 143.318 52.6006C147.892 52.208 153.182 58.5705 154.771 62.353C154.902 62.6459 156.186 67.0454 156.36 67.8618C156.36 67.625 156.435 67.3757 156.46 67.1389C156.802 62.9902 156.772 58.8193 156.373 54.6757C156.186 52.3887 155.874 50.2139 155.525 48.1076C154.073 48.2135 147.424 48.6311 144.427 47.5343C141.548 46.4874 138.195 44.3499 137.229 41.2528C136.263 38.1557 137.915 34.8281 141.155 34.1862C145.661 33.2889 151.618 39.0344 153.618 42.6176C153.724 42.8107 154.609 44.9108 155.232 46.4562C155.058 45.5028 154.902 44.5182 154.721 43.6146C154.042 40.2122 153.213 37.1337 152.453 34.4168C152.011 32.8713 151.581 31.4879 151.163 30.1917C149.68 29.5686 143.748 26.9077 141.629 24.5833C139.51 22.2589 137.547 18.8752 138.133 15.6846C138.719 12.494 141.691 10.3628 144.869 11.2726C149.281 12.5563 151.917 20.4019 152.042 24.5023C152.042 24.8513 151.574 30.4099 151.5 30.3787L151.406 30.3413C151.836 31.5876 152.279 32.9025 152.734 34.3669C153.55 37.0714 154.447 40.1374 155.226 43.5461C156.081 47.203 156.722 50.9067 157.146 54.6383C157.637 58.8175 157.756 63.0321 157.501 67.2324V67.3819C157.993 66.1356 159.476 62.6709 159.619 62.3967C161.651 58.8384 167.671 53.1552 172.164 54.0962C175.398 54.7754 176.981 58.1779 176.021 61.2064C175.061 64.235 171.659 66.3911 168.755 67.438C165.496 68.5846 158.037 67.9303 157.445 67.8742C157.08 72.142 156.43 76.3806 155.5 80.5618C154.971 82.9983 154.366 85.4411 153.724 87.8777C154.186 86.8058 154.603 85.8524 154.672 85.7278C156.703 82.1695 162.723 76.4801 167.216 77.4273C170.456 78.1065 172.033 81.509 171.073 84.5313C170.113 87.5536 166.711 89.7222 163.807 90.7629C160.903 91.8036 154.51 91.3861 152.821 91.2303C152.572 92.165 152.322 93.0998 152.067 94.0283C150.82 98.5026 149.574 102.958 148.465 107.37C148.079 108.922 147.755 110.486 147.424 112.006C147.829 111.059 148.178 110.262 148.247 110.137C150.278 106.579 156.298 100.895 160.791 101.836C164.025 102.516 165.608 105.918 164.648 108.947C163.689 111.975 160.286 114.131 157.382 115.178C154.478 116.225 148.702 115.801 146.701 115.664C146.408 117.26 146.116 118.855 145.904 120.407C145.785 121.472 145.592 122.488 145.536 123.566C145.48 124.644 145.368 125.685 145.287 126.725C145.206 128.745 145.106 130.82 145.075 132.789C145.075 134.16 145.038 135.462 145.031 136.777C145.399 135.225 146.184 132.203 146.278 131.96C147.748 128.134 152.839 121.603 157.42 121.852C160.722 122.033 162.798 125.161 162.305 128.296C161.813 131.43 158.766 134.085 156.074 135.531C153.101 137.12 145.922 137.618 145.025 137.674C144.969 139.799 144.981 141.918 145.056 143.912Z" fill="black"/>
<path d="M87.3019 61.4994C87.2396 61.5555 84.8092 56.5141 84.7095 56.1901C83.3697 52.3203 83.0582 44.0447 86.7286 41.2841C89.3708 39.2962 92.9602 40.3494 94.6178 43.0663C96.2754 45.7833 95.6335 49.7778 94.4994 52.6256C93.1658 55.9595 87.3081 61.4932 87.3019 61.4994Z" fill="black"/>
</g>
<g opacity="0.15">
<path d="M45.93 159.466C45.419 161.249 42.702 164.396 42.702 164.402C42.702 164.408 41.1753 161.978 41.0943 161.816C40.2031 159.896 39.6111 155.671 41.3435 154.057C41.6405 153.799 41.9883 153.606 42.3646 153.491C42.7409 153.375 43.1372 153.34 43.5278 153.388C43.9185 153.436 44.2948 153.565 44.6324 153.767C44.9699 153.969 45.2613 154.24 45.4875 154.562C46.4908 155.896 46.36 157.946 45.93 159.466Z" fill="black"/>
<path d="M69.8596 206.478L70.0403 206.69L69.5293 208.285L68.7815 207.375C68.0586 206.496 67.3046 205.543 66.5381 204.552C65.4908 205.126 64.4109 205.637 63.3039 206.085C63.547 207.855 62.7555 211.226 62.6496 211.656C63.7214 211.993 64.7621 212.31 65.7654 212.591C66.4509 212.79 67.1052 212.971 67.7408 213.139L66.7375 214.386L65.3666 213.968C64.2761 213.632 63.1232 213.251 61.9392 212.846C61.7273 213.251 59.9763 216.535 58.6053 217.601C57.359 218.567 55.4895 219.471 53.8817 219.016C53.4992 218.925 53.1399 218.755 52.8272 218.517C52.5146 218.279 52.2555 217.977 52.0669 217.632C51.8783 217.287 51.7643 216.907 51.7323 216.515C51.7004 216.123 51.7512 215.729 51.8814 215.358C52.7227 213.145 56.8667 212.124 58.9792 212.242C59.1038 212.242 60.4499 212.472 61.2911 212.628C60.8113 212.46 60.3377 212.304 59.8454 212.124C58.867 211.781 57.8949 211.407 56.8542 211.008L55.3462 210.385C54.8352 210.185 54.3242 209.911 53.8132 209.668C52.6292 209.089 51.4576 208.422 50.2923 207.768C49.987 208.628 48.8653 211.656 47.7997 212.809C46.7341 213.962 45.0079 215.108 43.3503 214.922C42.9584 214.891 42.5774 214.778 42.2319 214.59C41.8865 214.402 41.5844 214.144 41.3452 213.832C41.1061 213.52 40.9352 213.161 40.8437 212.779C40.7522 212.396 40.7421 211.999 40.8141 211.613C41.3126 209.301 45.2572 207.662 47.3635 207.456C47.4944 207.456 49.0211 207.456 49.8561 207.487C49.1582 207.076 48.4603 206.671 47.7685 206.241C45.7744 204.995 43.7928 203.63 41.8111 202.296C41.188 201.885 40.5648 201.486 39.9853 201.05C39.8793 201.355 38.6206 204.988 37.3992 206.278C36.3149 207.425 34.6074 208.578 32.9498 208.391C32.5579 208.36 32.1768 208.247 31.8314 208.059C31.486 207.871 31.1839 207.613 30.9447 207.301C30.7055 206.989 30.5347 206.63 30.4431 206.248C30.3516 205.866 30.3416 205.468 30.4135 205.082C30.9121 202.77 34.8567 201.131 36.963 200.925C37.1187 200.925 39.3185 200.925 39.8731 200.975C38.5333 200.09 37.1873 199.218 35.8288 198.414C33.9964 197.314 32.0938 196.336 30.1331 195.485C30.0895 195.628 28.7933 199.43 27.5408 200.745C26.4502 201.891 24.749 203.05 23.0852 202.863C22.6932 202.832 22.3122 202.718 21.967 202.53C21.6218 202.341 21.3201 202.082 21.0815 201.769C20.8429 201.457 20.6727 201.097 20.5821 200.715C20.4914 200.332 20.4822 199.935 20.5551 199.548C21.0537 197.236 24.9983 195.597 27.0983 195.392C27.2666 195.392 29.6284 195.392 30.0583 195.448C29.9462 195.404 29.8278 195.342 29.7156 195.292C27.7304 194.484 25.6759 193.859 23.5775 193.422C22.4184 193.167 21.3029 192.986 20.2124 192.837C20.0442 193.566 19.234 196.906 18.237 198.215C17.2399 199.523 15.7132 200.813 14.0431 200.807C13.6504 200.819 13.2594 200.749 12.8957 200.601C12.532 200.452 12.2036 200.228 11.932 199.944C11.6604 199.66 11.4517 199.322 11.3194 198.953C11.1871 198.583 11.1342 198.189 11.1641 197.797C11.4071 195.442 15.1461 193.379 17.215 192.943C17.3272 192.943 18.4987 192.806 19.3524 192.731C18.8539 192.675 18.3492 192.6 17.8756 192.55C16.0933 192.369 14.4482 192.307 12.9962 192.27C12.1674 192.27 11.4196 192.27 10.7217 192.27C10.1795 192.893 7.9673 195.417 6.50911 196.108C5.05091 196.8 3.0755 197.249 1.59238 196.476C1.23739 196.306 0.922136 196.064 0.667185 195.764C0.412234 195.465 0.223317 195.115 0.112765 194.737C0.00221304 194.36 -0.0274914 193.963 0.025592 193.573C0.0786755 193.184 0.213354 192.809 0.420837 192.475C1.72324 190.5 5.99189 190.394 8.02962 190.961C8.20411 191.005 10.8712 192.089 10.8463 192.12L10.8089 192.157C11.4819 192.157 12.2048 192.12 12.9962 192.12C14.4544 192.12 16.112 192.151 17.8942 192.301C19.8264 192.439 21.7489 192.689 23.6522 193.049C25.7764 193.444 27.8617 194.026 29.8839 194.787L29.9586 194.818C29.4165 194.388 27.9396 193.13 27.8337 193.024C26.3879 191.478 24.506 187.646 25.6526 185.546C25.8539 185.208 26.1239 184.915 26.4453 184.688C26.7667 184.461 27.1321 184.304 27.5181 184.227C27.9041 184.15 28.3019 184.155 28.6858 184.241C29.0697 184.328 29.4312 184.494 29.7468 184.729C31.1177 185.683 31.6162 187.677 31.6972 189.254C31.7658 191.036 30.3076 194.606 30.1892 194.862C32.2366 195.689 34.225 196.655 36.1404 197.753C37.2621 198.377 38.3713 199.056 39.4743 199.741C39.0194 199.355 38.6143 199 38.5645 198.944C37.1187 197.404 35.2306 193.572 36.3834 191.503C36.5834 191.164 36.8525 190.872 37.1733 190.644C37.4941 190.416 37.8592 190.259 38.245 190.182C38.6307 190.105 39.0284 190.11 39.412 190.197C39.7957 190.284 40.1566 190.451 40.4713 190.687C41.8423 191.64 42.3408 193.634 42.4218 195.211C42.5028 196.788 41.3064 199.885 40.9823 200.695L42.2286 201.492C44.2415 202.782 46.248 204.085 48.2546 205.3C48.9588 205.724 49.6692 206.122 50.3796 206.546C49.9745 206.197 49.638 205.923 49.5882 205.855C48.1424 204.309 46.2605 200.477 47.4071 198.408C47.6078 198.07 47.8772 197.778 48.198 197.551C48.5189 197.323 48.8838 197.166 49.2693 197.089C49.6548 197.012 50.0521 197.017 50.4355 197.104C50.819 197.19 51.18 197.356 51.495 197.591C52.866 198.545 53.3645 200.539 53.4518 202.116C53.539 203.692 52.4422 206.478 52.0621 207.456C52.8037 207.842 53.5452 208.229 54.2743 208.572C54.7853 208.79 55.2527 209.039 55.7761 209.232L57.2967 209.855C58.275 210.204 59.2845 210.566 60.2504 210.883C60.9235 211.108 61.5653 211.307 62.2072 211.507C61.503 211.089 60.132 210.26 60.0261 210.154C58.6071 208.952 57.5212 207.405 56.8729 205.661C56.7067 205.537 56.5542 205.395 56.418 205.238C56.1477 204.952 55.9407 204.613 55.8107 204.242C55.6806 203.871 55.6305 203.476 55.6634 203.084C55.6964 202.693 55.8117 202.312 56.0019 201.968C56.192 201.624 56.4528 201.324 56.767 201.087C58.6863 199.71 62.7119 201.143 64.4069 202.402C64.5066 202.477 65.5037 203.406 66.1268 203.998C65.8153 203.592 65.5037 203.206 65.1921 202.782C64.5689 201.954 63.9458 201.106 63.3226 200.202L62.419 198.838C62.1075 198.395 61.8333 197.878 61.5342 197.398C60.8674 196.258 60.2442 195.074 59.6647 193.871C58.9418 194.42 56.3308 196.326 54.7853 196.682C53.2399 197.037 51.1897 197.062 49.906 195.99C49.596 195.748 49.3403 195.444 49.1558 195.097C48.9712 194.75 48.8618 194.368 48.8348 193.976C48.8077 193.583 48.8636 193.19 48.9988 192.821C49.134 192.452 49.3454 192.115 49.6193 191.833C51.3143 190.176 55.502 190.986 57.3714 191.977C57.4898 192.039 58.7549 192.899 59.4341 193.379C59.0851 192.656 58.7237 191.927 58.3934 191.179C57.4275 189.023 56.5239 186.817 55.5954 184.599C55.315 183.926 55.0284 183.252 54.7417 182.579C54.4862 182.779 51.4327 185.116 49.7066 185.515C48.1674 185.87 46.1047 185.895 44.8272 184.823C44.5174 184.58 44.262 184.276 44.0774 183.928C43.8927 183.581 43.7831 183.199 43.7555 182.807C43.7279 182.414 43.7829 182.02 43.9171 181.651C44.0513 181.281 44.2615 180.944 44.5343 180.66C46.2293 179.009 50.4232 179.819 52.2927 180.803C52.436 180.878 54.2494 182.118 54.6919 182.455C54.0687 180.978 53.4455 179.507 52.7289 178.093C51.8126 176.168 50.7718 174.305 49.6131 172.515C49.4885 172.609 46.3166 175.058 44.5406 175.469C43.0014 175.824 40.9449 175.849 39.6612 174.778C39.3511 174.535 39.0953 174.23 38.9107 173.883C38.7261 173.535 38.6167 173.153 38.5897 172.76C38.5626 172.367 38.6185 171.974 38.7538 171.604C38.889 171.234 39.1005 170.897 39.3746 170.615C41.0696 168.963 45.2634 169.774 47.1329 170.758C47.2762 170.839 49.2267 172.173 49.5632 172.441C49.4947 172.335 49.4386 172.223 49.3701 172.117C48.151 170.356 46.7789 168.707 45.2697 167.187C44.4471 166.334 43.6121 165.567 42.777 164.844C42.2349 165.362 39.7173 167.698 38.1656 168.241C36.614 168.783 34.6323 169.013 33.2365 168.091C32.9023 167.884 32.6153 167.608 32.3942 167.283C32.1731 166.958 32.0227 166.59 31.9528 166.203C31.8829 165.815 31.8951 165.418 31.9884 165.036C32.0818 164.654 32.2543 164.296 32.4949 163.984C33.9967 162.159 38.2529 162.501 40.2221 163.28C40.328 163.318 41.3687 163.903 42.0916 164.284C41.7114 163.959 41.3313 163.617 40.9574 163.318C39.574 162.183 38.2404 161.224 37.0502 160.389C36.3709 159.915 35.7416 159.504 35.1807 159.142C34.3768 159.367 31.1489 160.252 29.5723 160.021C27.9957 159.791 26.0763 159.08 25.2725 157.616C25.0696 157.278 24.9406 156.901 24.8939 156.509C24.8473 156.118 24.884 155.721 25.0018 155.345C25.1195 154.969 25.3155 154.622 25.577 154.327C25.8385 154.032 26.1594 153.796 26.5188 153.634C28.6936 152.705 32.3142 154.967 33.7038 156.563C33.8222 156.7 35.4487 159.055 35.405 159.055H35.3614C35.9347 159.41 36.5454 159.797 37.2309 160.233C38.4398 161.043 39.7983 161.972 41.2129 163.081C42.7383 164.264 44.1948 165.533 45.575 166.882C47.136 168.388 48.5603 170.029 49.8312 171.786L49.8748 171.855C49.6567 171.194 49.1208 169.362 49.0959 169.182C48.7407 167.094 49.2828 162.863 51.3829 161.772C51.7365 161.599 52.1226 161.503 52.5159 161.489C52.9093 161.476 53.3011 161.545 53.6658 161.694C54.0304 161.842 54.3597 162.065 54.632 162.349C54.9044 162.634 55.1138 162.972 55.2465 163.343C55.8696 164.894 55.1966 166.845 54.3803 168.197C53.4518 169.717 50.2674 171.892 50.0182 172.067C51.2664 173.889 52.3927 175.792 53.3894 177.762C53.9752 178.909 54.5298 180.081 55.072 181.258C54.9037 180.685 54.7604 180.168 54.7479 180.093C54.3927 178.005 54.9349 173.774 57.0349 172.684C57.3885 172.511 57.7746 172.414 58.168 172.401C58.5614 172.387 58.9532 172.457 59.3178 172.605C59.6825 172.753 60.0117 172.977 60.2841 173.261C60.5565 173.545 60.7659 173.883 60.8985 174.254C61.5217 175.806 60.8487 177.756 60.0261 179.108C59.2035 180.461 56.5177 182.386 55.8011 182.885C56.0005 183.34 56.2124 183.788 56.4242 184.25C57.3901 186.437 58.3436 188.612 59.3469 190.743C59.7021 191.491 60.076 192.214 60.4499 192.936C60.3003 192.425 60.1819 191.989 60.1694 191.921C59.8142 189.839 60.3564 185.602 62.4564 184.511C62.8106 184.339 63.1969 184.244 63.5903 184.232C63.9837 184.219 64.3754 184.289 64.7398 184.438C65.1043 184.587 65.4333 184.81 65.7056 185.095C65.9778 185.379 66.1872 185.717 66.32 186.088C66.9432 187.64 66.2702 189.584 65.4476 190.936C64.625 192.288 62.2009 194.052 61.3534 194.625C61.7523 195.354 62.1573 196.083 62.5998 196.775C62.8989 197.236 63.1606 197.704 63.4846 198.152C63.8087 198.601 64.1078 199.05 64.4194 199.498C65.0425 200.327 65.6657 201.187 66.32 201.991C66.7562 202.546 67.18 203.069 67.6037 203.592C67.2423 202.857 66.5693 201.393 66.5257 201.262C65.8651 199.261 65.7592 194.993 67.666 193.591C67.9903 193.368 68.3576 193.217 68.7442 193.145C69.1308 193.073 69.5281 193.084 69.9104 193.175C70.2928 193.267 70.6516 193.438 70.9638 193.677C71.276 193.916 71.5346 194.218 71.7228 194.563C72.5703 196.002 72.2027 198.034 71.5982 199.492C70.9314 201.094 68.2331 203.642 67.8966 203.954C68.4886 204.857 69.1866 205.699 69.8596 206.478Z" fill="black"/>
<path d="M19.8947 192.475C19.8947 192.519 17.2837 191.304 17.1279 191.229C15.3269 190.126 12.4978 186.923 13.0586 184.623C13.1615 184.242 13.3439 183.887 13.5938 183.581C13.8438 183.276 14.1555 183.026 14.5087 182.85C14.8619 182.673 15.2484 182.573 15.6429 182.557C16.0374 182.54 16.4309 182.608 16.7976 182.754C18.3742 183.309 19.4024 185.097 19.876 186.599C20.4244 188.35 19.8947 192.475 19.8947 192.475Z" fill="black"/>
</g>
<g opacity="0.15">
<path d="M197.969 159.466C198.474 161.249 201.191 164.395 201.197 164.402C201.203 164.408 202.724 161.978 202.805 161.816C203.696 159.896 204.288 155.671 202.549 154.057C202.253 153.799 201.905 153.606 201.53 153.491C201.154 153.376 200.758 153.341 200.368 153.388C199.978 153.436 199.602 153.565 199.265 153.767C198.928 153.969 198.637 154.24 198.411 154.562C197.402 155.896 197.533 157.946 197.969 159.466Z" fill="black"/>
<path d="M174.039 206.477L173.859 206.689L174.37 208.285L175.118 207.375C175.84 206.496 176.594 205.543 177.361 204.552C178.408 205.127 179.488 205.639 180.595 206.085C180.352 207.855 181.143 211.226 181.249 211.656C180.178 211.992 179.131 212.31 178.134 212.591C177.454 212.79 176.8 212.971 176.164 213.139L177.168 214.385L178.539 213.968C179.623 213.631 180.782 213.251 181.966 212.846C182.178 213.251 183.923 216.535 185.3 217.601C186.546 218.567 188.416 219.47 190.024 219.015C190.406 218.925 190.765 218.755 191.078 218.517C191.391 218.278 191.65 217.977 191.838 217.632C192.027 217.287 192.141 216.906 192.173 216.514C192.205 216.123 192.154 215.728 192.024 215.357C191.176 213.145 187.039 212.123 184.92 212.242C184.795 212.242 183.455 212.472 182.608 212.628C183.094 212.46 183.561 212.304 184.06 212.123C185.038 211.781 186.01 211.407 187.051 211.008L188.559 210.385C189.064 210.185 189.575 209.911 190.092 209.668C191.276 209.088 192.448 208.422 193.607 207.767C193.912 208.627 195.04 211.656 196.13 212.809C197.221 213.962 198.922 215.108 200.58 214.921C200.972 214.89 201.353 214.777 201.698 214.59C202.044 214.402 202.346 214.144 202.585 213.832C202.824 213.52 202.995 213.161 203.086 212.778C203.178 212.396 203.188 211.999 203.116 211.612C202.611 209.3 198.673 207.661 196.567 207.456C196.436 207.456 194.909 207.456 194.074 207.487C194.766 207.076 195.464 206.671 196.155 206.241C198.156 204.994 200.137 203.63 202.119 202.296C202.742 201.885 203.334 201.486 203.945 201.05C204.051 201.355 205.303 204.988 206.531 206.278C207.615 207.425 209.323 208.577 210.98 208.391C211.372 208.36 211.753 208.247 212.099 208.059C212.444 207.871 212.746 207.613 212.985 207.301C213.225 206.989 213.396 206.63 213.487 206.248C213.579 205.865 213.589 205.468 213.517 205.082C213.012 202.77 209.074 201.131 206.967 200.925C206.811 200.925 204.612 200.925 204.057 200.975C205.397 200.09 206.743 199.218 208.101 198.414C209.932 197.315 211.833 196.337 213.791 195.485C213.841 195.628 215.137 199.43 216.389 200.744C217.48 201.891 219.181 203.05 220.839 202.863C221.231 202.832 221.613 202.719 221.959 202.531C222.305 202.343 222.607 202.084 222.847 201.771C223.086 201.459 223.257 201.099 223.348 200.716C223.439 200.333 223.448 199.935 223.375 199.548C222.876 197.236 218.932 195.597 216.826 195.391C216.664 195.391 214.302 195.391 213.872 195.448C213.984 195.404 214.096 195.342 214.215 195.292C216.2 194.484 218.254 193.858 220.353 193.422C221.506 193.167 222.627 192.986 223.718 192.836C223.886 193.566 224.696 196.906 225.693 198.214C226.69 199.523 228.186 200.813 229.887 200.807C230.28 200.818 230.67 200.747 231.033 200.598C231.397 200.449 231.725 200.226 231.996 199.942C232.267 199.658 232.476 199.321 232.609 198.951C232.741 198.582 232.795 198.188 232.766 197.797C232.523 195.441 228.784 193.379 226.715 192.942C226.603 192.942 225.431 192.805 224.578 192.731C225.076 192.674 225.581 192.6 226.055 192.55C227.837 192.369 229.476 192.307 230.934 192.269C231.763 192.269 232.511 192.269 233.208 192.269C233.751 192.893 235.957 195.416 237.421 196.108C238.885 196.8 240.855 197.248 242.338 196.476C242.692 196.306 243.007 196.063 243.261 195.763C243.516 195.463 243.704 195.113 243.814 194.736C243.924 194.358 243.953 193.962 243.899 193.572C243.846 193.183 243.711 192.809 243.503 192.475C242.207 190.5 237.938 190.394 235.901 190.961C235.72 191.004 233.059 192.089 233.084 192.12L233.115 192.157C232.442 192.157 231.719 192.12 230.934 192.12C229.476 192.12 227.818 192.151 226.036 192.301C224.104 192.439 222.181 192.688 220.278 193.048C218.143 193.443 216.048 194.025 214.015 194.787L213.947 194.818C214.489 194.388 215.966 193.129 216.072 193.023C217.511 191.478 219.399 187.646 218.246 185.545C218.046 185.207 217.777 184.914 217.457 184.686C217.136 184.459 216.771 184.301 216.385 184.224C215.999 184.147 215.601 184.152 215.218 184.239C214.834 184.326 214.473 184.493 214.159 184.729C212.788 185.683 212.289 187.677 212.208 189.253C212.139 191.036 213.598 194.606 213.716 194.862C211.667 195.69 209.677 196.656 207.759 197.753C206.643 198.376 205.534 199.056 204.425 199.741C204.886 199.355 205.291 199 205.341 198.943C206.787 197.404 208.668 193.572 207.522 191.503C207.322 191.164 207.053 190.871 206.732 190.644C206.411 190.416 206.046 190.258 205.66 190.181C205.275 190.104 204.877 190.11 204.493 190.197C204.11 190.284 203.749 190.451 203.434 190.687C202.063 191.64 201.564 193.634 201.483 195.211C201.402 196.787 202.599 199.884 202.923 200.695L201.677 201.492C199.664 202.782 197.663 204.085 195.657 205.3C194.953 205.723 194.242 206.122 193.532 206.546C193.937 206.197 194.273 205.923 194.323 205.854C195.769 204.309 197.651 200.476 196.504 198.408C196.303 198.069 196.033 197.777 195.712 197.55C195.39 197.323 195.025 197.166 194.639 197.089C194.253 197.012 193.855 197.017 193.471 197.103C193.087 197.19 192.726 197.356 192.41 197.591C191.039 198.545 190.541 200.539 190.46 202.115C190.379 203.692 191.469 206.477 191.849 207.456C191.108 207.842 190.366 208.229 189.631 208.571C189.126 208.789 188.653 209.039 188.135 209.232L186.615 209.855C185.63 210.204 184.627 210.565 183.661 210.883C182.988 211.108 182.346 211.307 181.704 211.506C182.408 211.089 183.779 210.26 183.885 210.154C185.304 208.952 186.39 207.404 187.039 205.661C187.203 205.535 187.356 205.393 187.493 205.237C187.763 204.951 187.969 204.612 188.099 204.241C188.228 203.87 188.278 203.476 188.245 203.084C188.212 202.693 188.097 202.313 187.907 201.969C187.718 201.624 187.458 201.324 187.145 201.087C185.219 199.71 181.2 201.143 179.505 202.402C179.399 202.477 178.408 203.405 177.785 203.997C178.096 203.592 178.408 203.206 178.719 202.782C179.343 201.953 179.966 201.106 180.589 200.202L181.492 198.838C181.804 198.395 182.078 197.878 182.377 197.398C183.044 196.258 183.661 195.074 184.247 193.871C184.976 194.419 187.587 196.326 189.132 196.681C190.678 197.037 192.728 197.061 194.012 195.99C194.322 195.748 194.577 195.444 194.762 195.097C194.947 194.75 195.056 194.368 195.083 193.975C195.11 193.583 195.054 193.19 194.919 192.821C194.784 192.452 194.572 192.115 194.298 191.833C192.603 190.176 188.41 190.986 186.54 191.977C186.428 192.039 185.163 192.899 184.477 193.379C184.833 192.656 185.194 191.927 185.524 191.179C186.49 189.023 187.394 186.817 188.316 184.598C188.596 183.925 188.883 183.252 189.17 182.579C189.432 182.779 192.479 185.116 194.211 185.514C195.75 185.87 197.807 185.894 199.09 184.823C199.401 184.58 199.656 184.276 199.841 183.928C200.026 183.58 200.135 183.198 200.162 182.805C200.189 182.413 200.133 182.019 199.998 181.649C199.863 181.279 199.651 180.942 199.377 180.66C197.682 179.009 193.495 179.819 191.625 180.803C191.482 180.878 189.668 182.118 189.226 182.455C189.849 180.978 190.472 179.507 191.183 178.092C192.101 176.169 193.142 174.306 194.298 172.515C194.417 172.609 197.595 175.058 199.365 175.469C200.904 175.824 202.967 175.849 204.244 174.777C204.554 174.535 204.81 174.23 204.995 173.883C205.179 173.535 205.289 173.152 205.316 172.76C205.343 172.367 205.287 171.973 205.151 171.604C205.016 171.234 204.805 170.897 204.531 170.615C202.842 168.963 198.648 169.773 196.779 170.758C196.629 170.839 194.679 172.172 194.348 172.44C194.411 172.334 194.473 172.222 194.541 172.116C195.76 170.356 197.133 168.706 198.642 167.187C199.464 166.333 200.299 165.567 201.134 164.844C201.677 165.361 204.194 167.698 205.746 168.24C207.298 168.782 209.279 169.013 210.675 168.091C211.009 167.883 211.296 167.608 211.517 167.283C211.738 166.957 211.889 166.589 211.959 166.202C212.029 165.815 212.016 165.418 211.923 165.036C211.83 164.654 211.657 164.295 211.417 163.984C209.915 162.158 205.659 162.501 203.689 163.28C203.583 163.317 202.543 163.903 201.82 164.283C202.194 163.959 202.58 163.616 202.948 163.317C204.331 162.183 205.671 161.224 206.861 160.389C207.541 159.915 208.17 159.504 208.731 159.142C209.528 159.367 212.763 160.251 214.339 160.021C215.916 159.79 217.829 159.08 218.639 157.615C218.84 157.277 218.967 156.9 219.013 156.509C219.059 156.118 219.021 155.722 218.904 155.347C218.786 154.971 218.591 154.624 218.331 154.329C218.07 154.034 217.751 153.797 217.393 153.633C215.212 152.705 211.597 154.967 210.208 156.562C210.089 156.699 208.463 159.055 208.5 159.055H208.55C207.977 159.41 207.366 159.797 206.681 160.233C205.472 161.043 204.107 161.971 202.699 163.081C201.173 164.263 199.717 165.532 198.336 166.882C196.776 168.388 195.351 170.029 194.08 171.786L194.037 171.855C194.249 171.194 194.791 169.362 194.816 169.181C195.165 167.094 194.622 162.862 192.522 161.772C192.169 161.599 191.784 161.503 191.391 161.489C190.998 161.476 190.606 161.545 190.242 161.694C189.878 161.842 189.549 162.065 189.277 162.349C189.006 162.634 188.797 162.972 188.665 163.342C188.042 164.894 188.715 166.844 189.531 168.197C190.453 169.717 193.644 171.892 193.893 172.067C192.643 173.887 191.516 175.79 190.522 177.762C189.936 178.909 189.382 180.08 188.84 181.258C189.008 180.685 189.151 180.168 189.164 180.093C189.519 178.005 188.977 173.774 186.877 172.683C186.523 172.511 186.137 172.414 185.743 172.401C185.35 172.387 184.958 172.457 184.594 172.605C184.229 172.753 183.9 172.977 183.627 173.261C183.355 173.545 183.146 173.883 183.013 174.254C182.39 175.805 183.063 177.756 183.879 179.108C184.695 180.461 187.394 182.386 188.11 182.885C187.905 183.34 187.699 183.788 187.487 184.249C186.521 186.437 185.562 188.611 184.565 190.743C184.209 191.49 183.836 192.213 183.462 192.936C183.611 192.425 183.73 191.989 183.742 191.92C184.097 189.839 183.555 185.602 181.449 184.511C181.095 184.34 180.709 184.246 180.317 184.234C179.924 184.222 179.533 184.292 179.169 184.441C178.806 184.59 178.477 184.813 178.205 185.097C177.934 185.38 177.724 185.718 177.591 186.088C176.968 187.639 177.641 189.584 178.458 190.936C179.274 192.288 181.711 194.052 182.558 194.625C182.153 195.354 181.754 196.083 181.312 196.775C181.006 197.236 180.751 197.703 180.427 198.152L179.486 199.498C178.863 200.327 178.24 201.187 177.616 201.991C177.18 202.545 176.756 203.069 176.333 203.592C176.688 202.857 177.367 201.392 177.405 201.262C178.071 199.261 178.177 194.993 176.27 193.59C175.946 193.368 175.579 193.216 175.192 193.145C174.806 193.073 174.408 193.084 174.026 193.175C173.644 193.267 173.285 193.438 172.973 193.677C172.66 193.916 172.402 194.217 172.214 194.563C171.366 196.002 171.734 198.034 172.338 199.492C172.999 201.093 175.703 203.642 176.04 203.954C175.41 204.857 174.712 205.698 174.039 206.477Z" fill="black"/>
<path d="M224.004 192.475C224.004 192.519 226.615 191.303 226.771 191.229C228.572 190.126 231.401 186.923 230.84 184.623C230.738 184.242 230.555 183.887 230.305 183.581C230.055 183.275 229.744 183.026 229.39 182.85C229.037 182.673 228.651 182.573 228.256 182.557C227.862 182.54 227.468 182.607 227.101 182.754C225.525 183.308 224.497 185.097 224.023 186.599C223.475 188.35 224.004 192.475 224.004 192.475Z" fill="black"/>
</g>
<path d="M170.17 170.528L128.885 153.222L163.714 69.5444L204.998 86.8496L170.17 170.528Z" fill="#D1BAFF" stroke="#263238" stroke-linecap="round" stroke-linejoin="round"/>
<path d="M196.71 95.3931C196.002 95.0997 195.364 94.6582 194.84 94.0982C194.316 93.5381 193.918 92.8725 193.673 92.146C193.427 91.4195 193.34 90.6489 193.417 89.8858C193.493 89.1228 193.732 88.385 194.118 87.722L170.438 77.7888C170.377 78.0005 170.304 78.2086 170.22 78.412C169.947 79.0702 169.547 79.6679 169.042 80.1706C168.537 80.6734 167.938 81.0712 167.279 81.3412C166.619 81.6111 165.913 81.7479 165.201 81.7436C164.488 81.7392 163.784 81.5939 163.128 81.3159C163.022 81.2723 162.922 81.2162 162.823 81.1663L136.55 144.442C136.656 144.479 136.762 144.511 136.862 144.554C137.574 144.843 138.215 145.283 138.742 145.842C139.269 146.402 139.669 147.068 139.914 147.797C140.16 148.525 140.245 149.298 140.165 150.062C140.084 150.826 139.84 151.564 139.448 152.225L163.159 162.158C163.216 161.946 163.287 161.738 163.371 161.535C163.646 160.881 164.046 160.287 164.55 159.788C165.054 159.288 165.652 158.893 166.309 158.625C166.965 158.356 167.669 158.22 168.378 158.223C169.088 158.226 169.79 158.369 170.444 158.644C170.65 158.731 170.849 158.837 171.067 158.943L197.364 95.6174C197.141 95.5596 196.922 95.4846 196.71 95.3931ZM163.128 128.259C161.514 127.582 160.137 126.442 159.172 124.982C158.206 123.523 157.694 121.81 157.702 120.06C157.709 118.31 158.235 116.602 159.214 115.151C160.192 113.7 161.579 112.572 163.198 111.909C164.818 111.246 166.597 111.078 168.312 111.427C170.027 111.775 171.6 112.624 172.833 113.866C174.065 115.109 174.901 116.689 175.236 118.406C175.571 120.124 175.389 121.902 174.713 123.516C174.264 124.589 173.609 125.563 172.784 126.382C171.958 127.201 170.98 127.85 169.904 128.29C168.828 128.73 167.676 128.954 166.513 128.949C165.35 128.944 164.2 128.709 163.128 128.259Z" fill="white" stroke="#263238" stroke-linecap="round" stroke-linejoin="round"/>
<path d="M169.627 170.739L130.456 149.072L174.139 69.6504L213.311 91.3239L169.627 170.739Z" fill="#D1BAFF" stroke="#263238" stroke-linecap="round" stroke-linejoin="round"/>
<path d="M204.144 98.914C203.523 98.5711 202.976 98.1092 202.533 97.5545C202.091 96.9999 201.762 96.3634 201.566 95.6816C201.37 94.9998 201.31 94.2859 201.39 93.581C201.47 92.876 201.688 92.1937 202.032 91.5731C202.145 91.3801 202.268 91.1929 202.399 91.0123L179.903 78.5491C179.822 78.762 179.728 78.97 179.623 79.1722C178.928 80.4245 177.765 81.3497 176.388 81.7447C175.012 82.1396 173.535 81.972 172.282 81.2785C172.183 81.2263 172.087 81.1681 171.995 81.104L139.03 141.164C139.132 141.207 139.232 141.255 139.329 141.308C140.583 142.001 141.509 143.164 141.905 144.541C142.302 145.917 142.135 147.395 141.442 148.648C141.332 148.843 141.209 149.03 141.074 149.209L163.564 161.672C163.648 161.459 163.743 161.251 163.851 161.049C164.194 160.428 164.656 159.881 165.21 159.438C165.765 158.996 166.401 158.667 167.083 158.471C167.765 158.275 168.479 158.215 169.184 158.295C169.889 158.375 170.571 158.593 171.192 158.937C171.385 159.048 171.573 159.171 171.752 159.304L204.78 99.1944C204.562 99.1162 204.349 99.0225 204.144 98.914ZM167.216 127.959C165.683 127.112 164.436 125.828 163.633 124.272C162.83 122.715 162.507 120.955 162.704 119.215C162.901 117.475 163.609 115.832 164.74 114.494C165.871 113.156 167.373 112.184 169.056 111.7C170.74 111.217 172.529 111.243 174.197 111.776C175.866 112.309 177.339 113.325 178.43 114.695C179.521 116.065 180.181 117.728 180.327 119.474C180.473 121.219 180.098 122.969 179.249 124.501C178.112 126.555 176.205 128.073 173.949 128.722C171.692 129.37 169.27 129.096 167.216 127.959Z" fill="white" stroke="#263238" stroke-linecap="round" stroke-linejoin="round"/>
<path d="M168.905 170.926L133.11 144.043L187.363 71.4326L223.157 98.3157L168.905 170.926Z" fill="#D1BAFF" stroke="#263238" stroke-linecap="round" stroke-linejoin="round"/>
<path d="M213.031 104.566C212.46 104.14 211.979 103.606 211.615 102.994C211.252 102.382 211.013 101.703 210.913 100.998C210.813 100.293 210.853 99.5757 211.031 98.8863C211.21 98.197 211.523 97.5498 211.953 96.9821C212.088 96.804 212.236 96.6353 212.395 96.4773L191.831 81.0354C191.719 81.2309 191.596 81.4202 191.463 81.6025C190.602 82.746 189.323 83.5012 187.905 83.7021C186.488 83.9031 185.049 83.5334 183.904 82.6743C183.811 82.6058 183.73 82.531 183.642 82.4624L142.682 137.375C142.776 137.438 142.869 137.494 142.956 137.562C144.101 138.423 144.858 139.704 145.06 141.122C145.262 142.54 144.893 143.981 144.034 145.127C143.899 145.306 143.751 145.474 143.592 145.632L164.156 161.068C164.263 160.872 164.384 160.685 164.518 160.507C164.944 159.94 165.478 159.462 166.089 159.102C166.7 158.741 167.376 158.504 168.078 158.404C168.781 158.305 169.496 158.345 170.183 158.521C170.87 158.698 171.516 159.009 172.083 159.435C172.261 159.569 172.43 159.714 172.588 159.871L213.604 104.934C213.405 104.823 213.214 104.7 213.031 104.566ZM172.438 128.246C171.038 127.194 169.981 125.751 169.401 124.098C168.822 122.446 168.745 120.659 169.181 118.962C169.617 117.266 170.546 115.738 171.85 114.569C173.155 113.401 174.777 112.646 176.51 112.4C178.244 112.153 180.012 112.426 181.591 113.184C183.169 113.942 184.488 115.151 185.379 116.659C186.27 118.166 186.695 119.904 186.599 121.653C186.503 123.401 185.89 125.082 184.839 126.482C184.139 127.411 183.263 128.194 182.261 128.784C181.259 129.374 180.151 129.761 178.999 129.922C177.847 130.084 176.675 130.017 175.549 129.725C174.423 129.433 173.366 128.922 172.438 128.221V128.246Z" fill="white" stroke="#263238" stroke-linecap="round" stroke-linejoin="round"/>
<path d="M168.188 171.007L136.307 139.575L199.782 74.8726L231.663 106.305L168.188 171.007Z" fill="#D1BAFF" stroke="#263238" stroke-linecap="round" stroke-linejoin="round"/>
<path d="M220.789 111.147C219.768 110.141 219.189 108.771 219.179 107.338C219.168 105.906 219.727 104.527 220.733 103.507C220.892 103.349 221.061 103.202 221.237 103.064L202.935 84.9927C202.798 85.1681 202.653 85.3366 202.499 85.4974C201.493 86.5179 200.123 87.0971 198.691 87.1076C197.258 87.1181 195.88 86.5591 194.859 85.5535C194.779 85.475 194.704 85.3918 194.635 85.3043L146.695 134.253C146.776 134.328 146.863 134.397 146.944 134.478C147.965 135.484 148.544 136.853 148.554 138.286C148.565 139.719 148.006 141.097 147 142.118C146.838 142.274 146.67 142.423 146.496 142.56L164.798 160.632C164.933 160.452 165.081 160.281 165.24 160.121C165.738 159.616 166.33 159.214 166.983 158.937C167.636 158.661 168.337 158.516 169.046 158.511C169.754 158.506 170.457 158.641 171.114 158.907C171.771 159.174 172.369 159.567 172.874 160.065C173.031 160.224 173.179 160.393 173.316 160.57L221.3 111.583C221.121 111.448 220.95 111.302 220.789 111.147ZM177.404 129.156C176.159 127.927 175.306 126.356 174.953 124.642C174.6 122.928 174.764 121.148 175.422 119.527C176.081 117.906 177.206 116.517 178.654 115.535C180.102 114.552 181.809 114.022 183.559 114.01C185.309 113.997 187.023 114.504 188.484 115.466C189.946 116.428 191.09 117.801 191.771 119.413C192.452 121.025 192.64 122.803 192.312 124.521C191.983 126.24 191.152 127.822 189.924 129.069C189.108 129.897 188.136 130.556 187.065 131.009C185.994 131.462 184.845 131.699 183.682 131.707C182.519 131.715 181.367 131.494 180.289 131.056C179.212 130.618 178.232 129.973 177.404 129.156Z" fill="white" stroke="#263238" stroke-linecap="round" stroke-linejoin="round"/>
<path d="M127.651 163.997L70.3207 200.427L9.35693 104.136L66.6877 67.7061C67.6902 67.0696 68.9045 66.8571 70.0636 67.1153C71.2227 67.3735 72.2319 68.0814 72.8694 69.0833L129.054 157.815C129.368 158.313 129.58 158.868 129.68 159.448C129.779 160.028 129.764 160.622 129.633 161.196C129.503 161.771 129.261 162.313 128.921 162.794C128.581 163.274 128.15 163.683 127.651 163.997Z" fill="#006BA8" stroke="#263238" stroke-linecap="round" stroke-linejoin="round"/>
<path d="M126.037 164.059L68.7066 200.489L7.74902 104.198L65.0798 67.7683C66.0823 67.1318 67.2965 66.9193 68.4557 67.1775C69.6148 67.4358 70.624 68.1436 71.2615 69.1455L127.439 157.877C127.753 158.375 127.966 158.93 128.066 159.51C128.165 160.091 128.15 160.685 128.019 161.259C127.889 161.833 127.647 162.376 127.307 162.856C126.967 163.337 126.535 163.745 126.037 164.059Z" fill="white" stroke="#263238" stroke-linecap="round" stroke-linejoin="round"/>
<path d="M124.168 165.33L66.8373 201.76L5.87354 105.469L63.2043 69.0396C64.2078 68.4027 65.423 68.19 66.5831 68.4482C67.7433 68.7064 68.7536 69.4144 69.3923 70.4167L125.57 159.149C125.884 159.646 126.097 160.201 126.197 160.782C126.296 161.362 126.28 161.956 126.15 162.53C126.02 163.104 125.778 163.647 125.438 164.127C125.098 164.608 124.666 165.017 124.168 165.33Z" fill="#006BA8" stroke="#263238" stroke-linecap="round" stroke-linejoin="round"/>
<path d="M36.5083 117.44L32.1025 110.511L33.8225 109.445C34.1592 109.21 34.5532 109.07 34.9628 109.04C35.3089 109.031 35.6477 109.141 35.9225 109.352C36.2565 109.602 36.5381 109.915 36.7513 110.274C36.9699 110.595 37.1108 110.962 37.1626 111.346C37.2093 111.684 37.1482 112.029 36.9881 112.331C36.7987 112.668 36.5235 112.95 36.1905 113.147L35.424 113.627L37.4742 116.855L36.5083 117.44ZM34.9878 112.904L35.4302 112.623C35.667 112.492 35.8781 112.319 36.0534 112.112C36.1132 112.036 36.1563 111.947 36.1799 111.853C36.2035 111.758 36.2071 111.66 36.1905 111.564C36.1333 111.301 36.0231 111.053 35.8664 110.835C35.713 110.573 35.5266 110.332 35.3118 110.118C35.2425 110.049 35.1578 109.997 35.0647 109.967C34.9716 109.937 34.8727 109.929 34.7759 109.944C34.4938 110.011 34.2273 110.131 33.9907 110.299L33.5358 110.586L34.9878 112.904Z" fill="white"/>
<path d="M39.917 115.272L36.9819 107.408L37.9167 106.816L43.7993 112.804L42.8833 113.384L41.4562 111.845L40.0479 112.742L40.8206 114.699L39.917 115.272ZM39.7425 111.938L40.8954 111.209L38.328 108.455L39.7425 111.938Z" fill="white"/>
<path d="M46.1855 111.396C45.8441 111.632 45.4415 111.764 45.0265 111.776C44.6487 111.771 44.2806 111.656 43.9671 111.446C43.6118 111.204 43.3035 110.9 43.0573 110.548L43.7677 109.776C43.939 109.999 44.1286 110.207 44.3347 110.399C44.5108 110.57 44.7241 110.698 44.9579 110.773C45.0802 110.799 45.2066 110.799 45.3289 110.773C45.4512 110.747 45.5669 110.696 45.6683 110.623C45.7776 110.564 45.8731 110.483 45.9484 110.384C46.0236 110.285 46.0768 110.171 46.1045 110.05C46.1338 109.793 46.0648 109.535 45.9113 109.327C45.7536 109.05 45.5111 108.832 45.2196 108.704C44.9245 108.598 44.6198 108.52 44.3098 108.473L42.4964 108.187C42.1688 108.14 41.8546 108.026 41.5741 107.85C41.2829 107.647 41.0386 107.383 40.8575 107.077C40.7072 106.869 40.6015 106.632 40.5468 106.381C40.4921 106.13 40.4897 105.871 40.5397 105.619C40.6802 105.121 41.0116 104.697 41.462 104.441C41.7047 104.282 41.9721 104.164 42.2534 104.092C42.4928 104.033 42.7431 104.033 42.9825 104.092C43.2335 104.163 43.4684 104.281 43.6742 104.441C43.9243 104.643 44.1502 104.873 44.3472 105.127L43.668 105.875C43.5175 105.671 43.3485 105.481 43.1632 105.308C43.0081 105.16 42.8132 105.06 42.6024 105.021C42.365 105.006 42.129 105.068 41.9301 105.198C41.7311 105.328 41.58 105.52 41.4994 105.744C41.4754 105.865 41.4775 105.99 41.5054 106.11C41.5334 106.231 41.5865 106.344 41.6614 106.442C41.7684 106.624 41.9181 106.778 42.0976 106.89C42.2902 106.997 42.502 107.065 42.7208 107.09L44.5466 107.376C44.9787 107.437 45.3991 107.563 45.7929 107.75C46.2139 107.958 46.5665 108.283 46.8087 108.685C47.0088 108.991 47.1288 109.343 47.1577 109.707C47.1724 110.036 47.0947 110.362 46.9333 110.648C46.7486 110.954 46.4919 111.211 46.1855 111.396Z" fill="white"/>
<path d="M50.2301 108.822C49.8887 109.059 49.486 109.191 49.071 109.202C48.6951 109.198 48.3288 109.083 48.0178 108.872C47.6598 108.634 47.351 108.329 47.108 107.975L47.8434 107.202C48.0129 107.427 48.2027 107.635 48.4104 107.825C48.5861 107.997 48.7995 108.125 49.0336 108.199C49.1559 108.225 49.2823 108.226 49.4047 108.2C49.5271 108.174 49.6427 108.123 49.744 108.05C49.8539 107.993 49.95 107.913 50.0254 107.815C50.1008 107.717 50.1536 107.603 50.1802 107.483C50.2129 107.225 50.1461 106.964 49.9933 106.753C49.8316 106.478 49.5875 106.26 49.2953 106.13C49.0024 106.024 48.6997 105.947 48.3917 105.9L46.5721 105.613C46.2445 105.567 45.9303 105.452 45.6498 105.277C45.3586 105.073 45.1143 104.81 44.9332 104.504C44.7829 104.296 44.6771 104.059 44.6225 103.808C44.5678 103.557 44.5654 103.297 44.6154 103.046C44.7589 102.548 45.0924 102.127 45.5439 101.874C45.7849 101.714 46.05 101.594 46.3291 101.519C46.5702 101.457 46.8233 101.457 47.0644 101.519C47.3152 101.587 47.5502 101.703 47.7561 101.862C48.0057 102.062 48.2296 102.292 48.4229 102.547L47.7436 103.295C47.5932 103.091 47.4242 102.901 47.2389 102.728C47.0853 102.578 46.8897 102.478 46.678 102.441C46.4412 102.429 46.2066 102.492 46.0083 102.622C45.8099 102.752 45.6582 102.942 45.5751 103.164C45.5527 103.285 45.5555 103.41 45.5834 103.53C45.6113 103.65 45.6636 103.763 45.7371 103.862C45.8459 104.045 45.9951 104.2 46.1733 104.317C46.369 104.416 46.5794 104.484 46.7965 104.516L48.6223 104.797C49.0411 104.863 49.4482 104.989 49.8312 105.171C50.2511 105.38 50.6032 105.704 50.847 106.105C51.0499 106.41 51.1701 106.762 51.196 107.127C51.2107 107.456 51.133 107.782 50.9716 108.068C50.7913 108.378 50.5363 108.637 50.2301 108.822Z" fill="white"/>
<path d="M52.5918 107.214L48.186 100.285L49.906 99.1942C50.241 98.9548 50.6356 98.8125 51.0463 98.7829C51.392 98.777 51.7298 98.8867 52.006 99.0945C52.3401 99.3471 52.6216 99.6625 52.8348 100.023C53.056 100.342 53.197 100.71 53.2461 101.095C53.2927 101.431 53.2316 101.774 53.0716 102.073C52.8839 102.412 52.6083 102.694 52.274 102.89L51.5075 103.376L53.5577 106.597L52.5918 107.214ZM51.0713 102.684L51.5137 102.397C51.7519 102.268 51.9634 102.095 52.1369 101.886C52.196 101.809 52.2382 101.721 52.2607 101.626C52.2833 101.532 52.2857 101.433 52.2677 101.338C52.2106 101.076 52.1026 100.829 51.9499 100.609C51.7984 100.348 51.6118 100.109 51.3953 99.8984C51.326 99.8293 51.2413 99.7774 51.1482 99.7471C51.0551 99.7168 50.9561 99.7088 50.8594 99.7239C50.5765 99.7852 50.3093 99.904 50.0742 100.073L49.6193 100.366L51.0713 102.684Z" fill="white"/>
<path d="M58.5179 103.556C58.1387 103.823 57.6909 103.974 57.228 103.993C56.8278 103.988 56.4412 103.847 56.1312 103.594C55.7592 103.287 55.4412 102.921 55.1902 102.51L53.5202 99.886C53.2558 99.4918 53.0657 99.0525 52.9593 98.5899C52.8681 98.2114 52.9099 97.8132 53.0777 97.4619C53.2955 97.0551 53.6239 96.7181 54.0249 96.4898C54.4019 96.2231 54.8473 96.0695 55.3086 96.0474C55.6977 96.0486 56.0751 96.1802 56.3805 96.4213C56.751 96.7134 57.0656 97.0702 57.309 97.4744L58.9853 100.11C59.2462 100.507 59.438 100.946 59.5523 101.407C59.6446 101.796 59.6096 102.204 59.4526 102.572C59.2447 102.985 58.9196 103.327 58.5179 103.556ZM58.0381 102.796C58.2521 102.677 58.4208 102.491 58.5179 102.266C58.5872 102.065 58.5872 101.845 58.5179 101.643C58.4276 101.392 58.3062 101.154 58.1565 100.933L56.2309 97.8919C56.0902 97.6667 55.9251 97.4578 55.7386 97.2688C55.5953 97.1226 55.4061 97.0301 55.2027 97.007C54.958 97.0066 54.7197 97.0853 54.5234 97.2314C54.3105 97.3496 54.1388 97.5301 54.0311 97.7486C53.955 97.9493 53.955 98.171 54.0311 98.3717C54.118 98.62 54.2352 98.8565 54.3801 99.0759L56.3119 102.111C56.4516 102.338 56.619 102.548 56.8104 102.734C56.9557 102.886 57.1497 102.983 57.3588 103.008C57.6021 103.012 57.8402 102.938 58.0381 102.796Z" fill="white"/>
<path d="M61.31 101.674L56.9043 94.7449L58.3002 93.8538C58.6777 93.5962 59.1006 93.4122 59.5465 93.3117C59.9037 93.2406 60.2744 93.298 60.5934 93.4737C60.9633 93.704 61.2696 94.0232 61.4845 94.4022C61.6461 94.6456 61.774 94.9097 61.8647 95.1874C61.9484 95.4207 61.9761 95.6704 61.9457 95.9165C61.9081 96.1463 61.8091 96.3616 61.659 96.5396L64.8496 99.3875L63.9211 99.9795L60.9486 97.3061L60.1946 97.7797L62.2573 101.033L61.31 101.674ZM59.7708 97.1129L60.1385 96.8824C60.3779 96.7469 60.5894 96.5672 60.7617 96.3527C60.8846 96.1838 60.9382 95.9741 60.9112 95.7669C60.8623 95.4894 60.7539 95.2258 60.5934 94.9942C60.4219 94.6699 60.1481 94.4114 59.8145 94.2589C59.6282 94.2289 59.4376 94.2395 59.2558 94.2901C59.0741 94.3406 58.9054 94.4299 58.7613 94.5518L58.3313 94.8197L59.7708 97.1129Z" fill="white"/>
<path d="M66.5381 98.3655L62.5873 92.1339L61.4158 92.8817L60.9297 92.1838L64.2075 90.0962L64.6624 90.8191L63.522 91.5419L67.4729 97.7735L66.5381 98.3655Z" fill="white"/>
<path d="M91.3546 141.482C94.0792 129.802 86.819 118.124 75.1385 115.399C63.458 112.675 51.7804 119.935 49.0559 131.616C46.3313 143.296 53.5915 154.974 65.2719 157.698C76.9524 160.423 88.63 153.163 91.3546 141.482Z" stroke="white" stroke-miterlimit="10"/>
<path d="M81.8484 154.881C86.1879 152.123 84.49 141.682 78.0562 131.559C71.6224 121.437 62.889 115.467 58.5496 118.225C54.2102 120.983 55.908 131.425 62.3418 141.547C68.7756 151.67 77.509 157.64 81.8484 154.881Z" stroke="white" stroke-miterlimit="10"/>
<path d="M50.7847 127.1L70.0092 114.879" stroke="white" stroke-miterlimit="10"/>
<path d="M48.6226 139.488L82.1423 118.176" stroke="white" stroke-miterlimit="10"/>
<path d="M58.3687 154.83L91.8947 133.518" stroke="white" stroke-miterlimit="10"/>
<path d="M51.8315 148.218L88.6915 124.794" stroke="white" stroke-miterlimit="10"/>
<path d="M70.6821 158.401L89.9066 146.181" stroke="white" stroke-miterlimit="10"/>
<path d="M171.41 256.022C198.588 228.844 198.588 184.779 171.41 157.601C144.232 130.422 100.167 130.422 72.9886 157.601C45.8102 184.779 45.8102 228.844 72.9886 256.022C100.167 283.2 144.232 283.2 171.41 256.022Z" fill="#FF66C4" stroke="#263238" stroke-linecap="round" stroke-linejoin="round"/>
<path d="M108.221 271.199C111.952 272.011 115.747 272.495 119.563 272.645" stroke="#263238" stroke-linecap="round" stroke-linejoin="round"/>
<path d="M99.6899 268.725C101.58 269.411 103.5 270.013 105.448 270.532" stroke="#263238" stroke-linecap="round" stroke-linejoin="round"/>
<path d="M58.8297 188.786C54.4018 204.384 55.8785 221.067 62.9775 235.644C70.0766 250.222 82.2998 261.671 97.3099 267.803" stroke="#263238" stroke-linecap="round" stroke-linejoin="round"/>
<path d="M67.6846 169.836C65.3046 173.344 63.2678 177.073 61.6025 180.972" stroke="#263238" stroke-linecap="round" stroke-linejoin="round"/>
<path d="M112.77 175.899L119.862 177.37L122.28 179.881L125.433 180.367L126.436 183.358L125.701 185.384L123.551 186.368L118.285 185.508L118.142 184.86L120.635 183.122L118.915 179.95L114.204 179.308L111.692 177.158L112.77 175.899Z" fill="white"/>
<path d="M169.945 241.368L164.337 240.421L157.52 239.561L152.534 240.67L147.643 240.739L142.738 243.014L139.872 243.824L138.096 244.216L135.142 246.902L132.201 248.909L127.215 247.133L127.34 242.365L124.349 241.848L121.127 242.565L120.317 241.219L119.999 238.246L118.51 236.888L116.323 237.71L116.036 239.468L113.331 240.234L110.265 237.872L108.44 234.215L109.86 229.161L114.603 228.444L116.148 229.292L118.08 228.862L120.18 226.874L122.417 227.048L126.43 231.41L127.521 230.999L126.374 227.36L124.978 225.64L124.623 222.524L130.013 218.623L129.496 212.479L131.609 209.805L132.855 205.63L134.4 204.951L137.566 201.711L137.441 200.383L134.899 201.118L134.132 199.934L132.356 200.327L129.758 201.573L130.58 199.187L135.865 196.32L136.837 194.588L139.878 197.629L141.654 198.763L143.766 197.616L142.333 195.747L138.414 194.077L133.578 190.587L128.935 188.718L124.922 188.936L122.623 187.421L119.881 187.34L119.7 188.057L120.417 192.806L121.42 194.27L121.115 199.754L117.313 197.884V195.516L113.574 194.656L111.705 193.204L111.611 188.998L115.537 184.574L115.001 180.629L113.263 181.184L111.811 179.987L110.783 177.694L109.617 177.781L109.536 180.486L107.835 181.202L105.797 175.756L104.333 175.239L101.84 174.771L99.5471 176.641L103.454 178.99L104.701 181.589L97.9268 178.523L92.9416 175.064L91.6516 170.783L87.1711 170.422L84.4167 173.232C83.7387 173.879 83.0274 174.491 82.2855 175.064C81.0769 175.654 79.8274 176.156 78.5466 176.566L78.5092 179.451L74.8325 180.436L75.5492 182.137L81.7309 181.782L85.5446 184.486L86.791 190.132L86.1242 195.523L87.626 200.77L84.8654 209.674L86.5168 221.658L89.4706 228.108L92.711 232.806L95.2036 232.588L93.8202 230.189L92.1065 228.538L90.5112 225.172L91.8884 224.549L95.4342 229.852L98.1948 234.657L99.1233 238.851L103.012 241.879L109.424 244.671L118.31 245.064L121.426 246.933L123.919 249.083L127.215 250.211L130.954 250.392L134.463 249.438C134.463 249.438 134.662 251.09 134.837 251.894C135.011 252.697 133.366 255.944 133.366 255.944L132.313 259.565L134.388 262.824L138.258 263.484L144.402 267.535L146.895 268.002L147.431 270.42L147.96 271.486C160.056 266.675 170.552 258.555 178.246 248.055L178.071 246.865L180.67 237.997L178.252 237.013L169.945 241.368Z" fill="white"/>
<path d="M172.569 173.955L170.113 171.288L167.066 168.241L165.353 163.548L168.362 163.386L168.163 161.741L166.032 162.046L167.627 160.844L169.31 159.286L168.954 157.672L166.462 155.522L165.278 152.144C153.361 142.76 138.704 137.523 123.538 137.232C108.372 136.941 93.5259 141.61 81.2571 150.53L85.5569 152.338L83.9491 155.746L81.0265 157.067L81.6497 161.492L80.4719 162.265L79.2256 164.396L80.0295 167.262L82.8461 166.976L82.3227 169.967L85.0646 169.344L88.4172 162.339L88.33 159.647L92.7731 158.326L93.471 156.139L98.0388 154.618L97.9142 151.771L101.261 150.855C101.261 150.855 103.398 149.029 103.878 148.923C104.855 148.914 105.832 148.979 106.8 149.116L109.648 150.518L113.032 149.764L115.525 147.346L119.301 146.848C119.912 147.083 120.57 147.169 121.22 147.097C122.024 146.916 124.193 145.227 124.193 145.227L129.515 147.097L131.77 148.119L132.306 150.537L134.799 150.319L135.285 148.692L137.597 149.191L137.722 150.518L133.166 152.886L136.7 155.821L143.218 157.759L146.334 160.445L149.954 159.978L150.403 158.189L151.618 157.566L146.714 155.273L144.059 155.522L146.01 154.413L143.467 152.101L146.172 151.334L150.154 152.481L151.818 156.17L154.055 157.871L156.547 162.233L160.666 164.022L161.844 169.344L166.094 170.939L166.325 172.746V174.952L167.939 177.638L168.562 179.021L171.41 178.897L172.095 175.868L172.569 173.955Z" fill="white"/>
<path d="M171.054 157.248L171.26 158.177L171.029 160.931L172.014 163.081L173.933 163.336L174.612 166.396L172.5 166.022L173.946 174.834L172.799 178.816L175.092 183.041L177.616 184.511L179.554 193.236L183.15 199.542L186.552 204.203L190.478 204.347L191.051 200.832L191.488 200.308C191.214 197.415 190.763 194.541 190.135 191.703C187.242 178.614 180.614 166.645 171.054 157.248Z" fill="white"/>
<path d="M133.59 164.514L121.906 162.196L117.269 163.399L116.821 166.714L114.415 165.044L111.05 166.639L111.91 172.036L115.275 173.481L116.69 169.954L119.65 171.836L125.614 175.077L127.62 179.539L132.992 183.932L139.516 181.296L138.818 178.915L136.756 176.498L134.998 170.116L136.008 167.019L133.59 164.514Z" fill="white"/>
<path d="M143.081 166.122L140.52 166.016L138.818 168.259L140.987 172.684L143.081 172.216V166.122Z" fill="white"/>
<path d="M158.76 165.86L152.628 164.171L151.07 162.489L149.892 163.261L151.737 166.234L153.631 170.21L156.267 170.64L156.61 169.892L154.616 167.792L159.171 168.477L158.76 165.86Z" fill="white"/>
<path d="M124.604 234.52L124.099 235.311L129.259 235.685L131.695 237.511L134.83 237.156L135.565 235.131L131.714 235.311L124.604 234.52Z" fill="white"/>
<path d="M139.635 234.395L136.463 236.115L137.229 237.299L141.423 236.371L141.94 234.9L140.526 235.386L139.635 234.395Z" fill="white"/>
<path d="M112.77 175.899L119.862 177.37L122.28 179.881L125.433 180.367L126.436 183.358L125.701 185.384L123.551 186.368L118.285 185.508L118.142 184.86L120.635 183.122L118.915 179.95L114.204 179.308L111.692 177.158L112.77 175.899Z" stroke="#263238" stroke-linecap="round" stroke-linejoin="round"/>
<path d="M169.945 241.368L164.337 240.421L157.52 239.561L152.534 240.67L147.643 240.739L142.738 243.014L139.872 243.824L138.096 244.216L135.142 246.902L132.201 248.909L127.215 247.133L127.34 242.365L124.349 241.848L121.127 242.565L120.317 241.219L119.999 238.246L118.51 236.888L116.323 237.71L116.036 239.468L113.331 240.234L110.265 237.872L108.44 234.215L109.86 229.161L114.603 228.444L116.148 229.292L118.08 228.862L120.18 226.874L122.417 227.048L126.43 231.41L127.521 230.999L126.374 227.36L124.978 225.64L124.623 222.524L130.013 218.623L129.496 212.479L131.609 209.805L132.855 205.63L134.4 204.951L137.566 201.711L137.441 200.383L134.899 201.118L134.132 199.934L132.356 200.327L129.758 201.573L130.58 199.187L135.865 196.32L136.837 194.588L139.878 197.629L141.654 198.763L143.766 197.616L142.333 195.747L138.414 194.077L133.578 190.587L128.935 188.718L124.922 188.936L122.623 187.421L119.881 187.34L119.7 188.057L120.417 192.806L121.42 194.27L121.115 199.754L117.313 197.884V195.516L113.574 194.656L111.705 193.204L111.611 188.998L115.537 184.574L115.001 180.629L113.263 181.184L111.811 179.987L110.783 177.694L109.617 177.781L109.536 180.486L107.835 181.202L105.797 175.756L104.333 175.239L101.84 174.771L99.5471 176.641L103.454 178.99L104.701 181.589L97.9268 178.523L92.9416 175.064L91.6516 170.783L87.1711 170.422L84.4167 173.232C83.7387 173.879 83.0274 174.491 82.2855 175.064C81.0769 175.654 79.8274 176.156 78.5466 176.566L78.5092 179.451L74.8325 180.436L75.5492 182.137L81.7309 181.782L85.5446 184.486L86.791 190.132L86.1242 195.523L87.626 200.77L84.8654 209.674L86.5168 221.658L89.4706 228.108L92.711 232.806L95.2036 232.588L93.8202 230.189L92.1065 228.538L90.5112 225.172L91.8884 224.549L95.4342 229.852L98.1948 234.657L99.1233 238.851L103.012 241.879L109.424 244.671L118.31 245.064L121.426 246.933L123.919 249.083L127.215 250.211L130.954 250.392L134.463 249.438C134.463 249.438 134.662 251.09 134.837 251.894C135.011 252.697 133.366 255.944 133.366 255.944L132.313 259.565L134.388 262.824L138.258 263.484L144.402 267.535L146.895 268.002L147.431 270.42L147.96 271.486C160.056 266.675 170.552 258.555 178.246 248.055L178.071 246.865L180.67 237.997L178.252 237.013L169.945 241.368Z" stroke="#263238" stroke-linecap="round" stroke-linejoin="round"/>
<path d="M172.569 173.955L170.113 171.288L167.066 168.241L165.353 163.548L168.362 163.386L168.163 161.741L166.032 162.046L167.627 160.844L169.31 159.286L168.954 157.672L166.462 155.522L165.278 152.144C153.361 142.76 138.704 137.523 123.538 137.232C108.372 136.941 93.5259 141.61 81.2571 150.53L85.5569 152.338L83.9491 155.746L81.0265 157.067L81.6497 161.492L80.4719 162.265L79.2256 164.396L80.0295 167.262L82.8461 166.976L82.3227 169.967L85.0646 169.344L88.4172 162.339L88.33 159.647L92.7731 158.326L93.471 156.139L98.0388 154.618L97.9142 151.771L101.261 150.855C101.261 150.855 103.398 149.029 103.878 148.923C104.855 148.914 105.832 148.979 106.8 149.116L109.648 150.518L113.032 149.764L115.525 147.346L119.301 146.848C119.912 147.083 120.57 147.169 121.22 147.097C122.024 146.916 124.193 145.227 124.193 145.227L129.515 147.097L131.77 148.119L132.306 150.537L134.799 150.319L135.285 148.692L137.597 149.191L137.722 150.518L133.166 152.886L136.7 155.821L143.218 157.759L146.334 160.445L149.954 159.978L150.403 158.189L151.618 157.566L146.714 155.273L144.059 155.522L146.01 154.413L143.467 152.101L146.172 151.334L150.154 152.481L151.818 156.17L154.055 157.871L156.547 162.233L160.666 164.022L161.844 169.344L166.094 170.939L166.325 172.746V174.952L167.939 177.638L168.562 179.021L171.41 178.897L172.095 175.868L172.569 173.955Z" stroke="#263238" stroke-linecap="round" stroke-linejoin="round"/>
<path d="M171.054 157.248L171.26 158.177L171.029 160.931L172.014 163.081L173.933 163.336L174.612 166.396L172.5 166.022L173.946 174.834L172.799 178.816L175.092 183.041L177.616 184.511L179.554 193.236L183.15 199.542L186.552 204.203L190.478 204.347L191.051 200.832L191.488 200.308C191.214 197.415 190.763 194.541 190.135 191.703C187.242 178.614 180.614 166.645 171.054 157.248Z" stroke="#263238" stroke-linecap="round" stroke-linejoin="round"/>
<path d="M133.59 164.514L121.906 162.196L117.269 163.399L116.821 166.714L114.415 165.044L111.05 166.639L111.91 172.036L115.275 173.481L116.69 169.954L119.65 171.836L125.614 175.077L127.62 179.539L132.992 183.932L139.516 181.296L138.818 178.915L136.756 176.498L134.998 170.116L136.008 167.019L133.59 164.514Z" stroke="#263238" stroke-linecap="round" stroke-linejoin="round"/>
<path d="M143.081 166.122L140.52 166.016L138.818 168.259L140.987 172.684L143.081 172.216V166.122Z" stroke="#263238" stroke-linecap="round" stroke-linejoin="round"/>
<path d="M158.76 165.86L152.628 164.171L151.07 162.489L149.892 163.261L151.737 166.234L153.631 170.21L156.267 170.64L156.61 169.892L154.616 167.792L159.171 168.477L158.76 165.86Z" stroke="#263238" stroke-linecap="round" stroke-linejoin="round"/>
<path d="M124.604 234.52L124.099 235.311L129.259 235.685L131.695 237.511L134.83 237.156L135.565 235.131L131.714 235.311L124.604 234.52Z" stroke="#263238" stroke-linecap="round" stroke-linejoin="round"/>
<path d="M139.635 234.395L136.463 236.115L137.229 237.299L141.423 236.371L141.94 234.9L140.526 235.386L139.635 234.395Z" stroke="#263238" stroke-linecap="round" stroke-linejoin="round"/>
<path d="M186.945 159.616C185.678 159.616 184.424 159.866 183.254 160.351C182.084 160.836 181.021 161.548 180.126 162.444C179.231 163.341 178.522 164.405 178.039 165.576C177.556 166.747 177.309 168.002 177.311 169.269C177.311 174.59 186.945 185.328 186.945 185.328C186.945 185.328 196.585 174.59 196.585 169.269C196.587 168.002 196.339 166.747 195.855 165.576C195.371 164.405 194.662 163.34 193.766 162.444C192.871 161.547 191.808 160.836 190.637 160.351C189.467 159.866 188.212 159.616 186.945 159.616ZM186.945 173.494C186.104 173.497 185.281 173.251 184.58 172.786C183.88 172.321 183.333 171.659 183.009 170.883C182.686 170.106 182.6 169.252 182.763 168.427C182.927 167.602 183.331 166.844 183.926 166.249C184.52 165.655 185.278 165.25 186.103 165.087C186.928 164.924 187.783 165.009 188.559 165.333C189.335 165.656 189.998 166.203 190.463 166.904C190.928 167.605 191.174 168.428 191.17 169.269C191.167 170.388 190.721 171.461 189.929 172.253C189.137 173.044 188.065 173.49 186.945 173.494Z" fill="#263238" stroke="#263238" stroke-miterlimit="10"/>
<path d="M112.185 184.349C109.955 184.349 107.817 185.235 106.241 186.811C104.664 188.388 103.778 190.526 103.778 192.756C103.778 197.398 112.185 206.764 112.185 206.764C112.185 206.764 120.591 197.417 120.591 192.756C120.591 190.526 119.706 188.388 118.129 186.811C116.552 185.235 114.414 184.349 112.185 184.349ZM112.185 196.457C111.453 196.457 110.737 196.24 110.128 195.833C109.52 195.427 109.045 194.848 108.765 194.172C108.485 193.496 108.411 192.751 108.554 192.033C108.697 191.315 109.05 190.656 109.567 190.138C110.085 189.62 110.745 189.268 111.463 189.125C112.181 188.982 112.925 189.056 113.601 189.336C114.278 189.616 114.856 190.09 115.263 190.699C115.669 191.308 115.886 192.023 115.886 192.756C115.886 193.737 115.496 194.679 114.802 195.373C114.108 196.067 113.166 196.457 112.185 196.457Z" fill="#263238" stroke="#263238" stroke-miterlimit="10"/>
<path d="M143.972 249.906C142.851 249.906 141.776 250.35 140.982 251.143C140.189 251.935 139.742 253.009 139.741 254.131C139.741 256.467 143.972 261.178 143.972 261.178C143.972 261.178 148.197 256.467 148.197 254.131C148.195 253.011 147.75 251.937 146.958 251.145C146.166 250.353 145.092 249.907 143.972 249.906ZM143.972 255.994C143.602 255.994 143.241 255.884 142.933 255.679C142.626 255.473 142.386 255.181 142.245 254.84C142.103 254.498 142.066 254.122 142.138 253.76C142.211 253.397 142.389 253.064 142.65 252.802C142.912 252.541 143.245 252.363 143.607 252.291C143.97 252.219 144.346 252.256 144.687 252.397C145.029 252.539 145.321 252.778 145.526 253.086C145.732 253.393 145.841 253.755 145.841 254.124C145.841 254.37 145.793 254.613 145.699 254.84C145.605 255.067 145.467 255.273 145.294 255.446C145.12 255.62 144.914 255.758 144.687 255.851C144.461 255.945 144.217 255.994 143.972 255.994Z" fill="#263238" stroke="#263238" stroke-miterlimit="10"/>
<path d="M91.3896 210.865C90.2685 210.866 89.1938 211.313 88.4016 212.106C87.6095 212.899 87.1645 213.975 87.1646 215.096C87.1646 217.433 91.3896 222.144 91.3896 222.144C91.3896 222.144 95.6208 217.433 95.6208 215.096C95.6208 213.974 95.175 212.897 94.3815 212.104C93.588 211.31 92.5118 210.865 91.3896 210.865ZM91.3896 216.959C91.0198 216.959 90.6584 216.849 90.3509 216.644C90.0435 216.439 89.8039 216.147 89.6624 215.805C89.5209 215.463 89.4839 215.087 89.556 214.725C89.6281 214.362 89.8062 214.029 90.0677 213.768C90.3291 213.506 90.6622 213.328 91.0249 213.256C91.3875 213.184 91.7634 213.221 92.105 213.362C92.4466 213.504 92.7386 213.743 92.944 214.051C93.1494 214.358 93.2591 214.72 93.2591 215.09C93.2591 215.585 93.0621 216.061 92.7115 216.411C92.3609 216.762 91.8854 216.959 91.3896 216.959Z" fill="#263238" stroke="#263238" stroke-miterlimit="10"/>
<path d="M106.346 228.662C105.79 228.662 105.24 228.772 104.727 228.984C104.214 229.197 103.748 229.509 103.356 229.902C102.963 230.295 102.652 230.761 102.44 231.275C102.228 231.788 102.12 232.338 102.121 232.893C102.121 235.23 106.346 239.941 106.346 239.941C106.346 239.941 110.577 235.23 110.577 232.893C110.577 231.771 110.131 230.695 109.338 229.901C108.544 229.108 107.468 228.662 106.346 228.662ZM106.346 234.757C105.976 234.757 105.614 234.647 105.307 234.442C105 234.236 104.76 233.944 104.618 233.603C104.477 233.261 104.44 232.885 104.512 232.522C104.584 232.16 104.762 231.827 105.024 231.565C105.285 231.304 105.618 231.126 105.981 231.054C106.344 230.981 106.719 231.018 107.061 231.16C107.403 231.301 107.695 231.541 107.9 231.849C108.105 232.156 108.215 232.517 108.215 232.887C108.215 233.383 108.018 233.858 107.668 234.209C107.317 234.56 106.841 234.757 106.346 234.757Z" fill="#263238" stroke="#263238" stroke-miterlimit="10"/>
<path d="M158.872 236.651C158.213 236.651 157.561 236.781 156.952 237.033C156.344 237.285 155.791 237.654 155.325 238.12C154.859 238.586 154.489 239.139 154.237 239.748C153.985 240.356 153.855 241.009 153.855 241.667C153.855 244.434 158.872 250.018 158.872 250.018C158.872 250.018 163.857 244.409 163.857 241.667C163.861 241.01 163.735 240.358 163.487 239.75C163.238 239.142 162.871 238.588 162.408 238.122C161.945 237.656 161.394 237.286 160.787 237.033C160.18 236.781 159.529 236.651 158.872 236.651ZM158.872 243.873C158.434 243.875 158.005 243.746 157.641 243.503C157.276 243.26 156.991 242.915 156.823 242.511C156.655 242.106 156.611 241.661 156.696 241.231C156.781 240.801 156.992 240.407 157.301 240.097C157.611 239.787 158.006 239.576 158.436 239.491C158.865 239.406 159.311 239.45 159.715 239.618C160.12 239.787 160.465 240.071 160.708 240.436C160.95 240.801 161.079 241.229 161.078 241.667C161.078 241.957 161.021 242.244 160.91 242.512C160.799 242.779 160.637 243.022 160.432 243.227C160.227 243.432 159.984 243.595 159.716 243.705C159.448 243.816 159.162 243.873 158.872 243.873Z" fill="#263238" stroke="#263238" stroke-miterlimit="10"/>
<path d="M158.504 140.803C157.324 140.803 156.192 141.271 155.358 142.106C154.523 142.94 154.055 144.072 154.055 145.252C154.055 147.745 158.504 152.674 158.504 152.674C158.504 152.674 162.96 147.689 162.96 145.252C162.958 144.071 162.488 142.94 161.652 142.106C160.817 141.271 159.685 140.803 158.504 140.803ZM158.504 147.215C158.116 147.215 157.736 147.1 157.413 146.884C157.091 146.669 156.839 146.362 156.691 146.003C156.542 145.645 156.503 145.25 156.579 144.869C156.655 144.488 156.841 144.139 157.116 143.864C157.391 143.59 157.74 143.403 158.121 143.327C158.502 143.251 158.897 143.29 159.255 143.439C159.614 143.587 159.92 143.839 160.136 144.162C160.352 144.484 160.467 144.864 160.467 145.252C160.467 145.773 160.26 146.272 159.892 146.64C159.524 147.008 159.025 147.215 158.504 147.215Z" fill="#263238" stroke="#263238" stroke-miterlimit="10"/>
<path d="M82.2979 168.646C81.7131 168.645 81.1338 168.759 80.5933 168.982C80.0527 169.206 79.5615 169.533 79.1477 169.946C78.7339 170.36 78.4056 170.851 78.1816 171.391C77.9576 171.931 77.8423 172.51 77.8423 173.095C77.8423 175.556 82.2979 180.517 82.2979 180.517C82.2979 180.517 86.7472 175.531 86.7472 173.095C86.7472 171.915 86.2785 170.783 85.4441 169.949C84.6096 169.114 83.4779 168.646 82.2979 168.646ZM82.2979 175.058C81.9094 175.059 81.5293 174.945 81.2056 174.73C80.882 174.515 80.6294 174.209 80.4799 173.85C80.3304 173.492 80.2906 173.097 80.3657 172.716C80.4407 172.335 80.6271 171.984 80.9014 171.709C81.1757 171.434 81.5255 171.246 81.9064 171.17C82.2873 171.094 82.6824 171.132 83.0414 171.281C83.4004 171.429 83.7074 171.681 83.9233 172.004C84.1393 172.327 84.2546 172.706 84.2546 173.095C84.2546 173.614 84.0487 174.113 83.6819 174.481C83.3151 174.849 82.8174 175.056 82.2979 175.058Z" fill="#263238" stroke="#263238" stroke-miterlimit="10"/>
<path d="M135.123 72.76C135.123 72.76 134.737 107.844 134.737 113.639C134.737 119.435 134.257 125.043 134.257 125.043C134.257 125.043 135.996 126.289 135.703 127.748C135.378 128.984 134.925 130.183 134.351 131.325C133.686 131.175 133.001 131.143 132.325 131.231C131.646 131.424 127.589 133.256 126.91 133.256C126.231 133.256 125.944 133.836 125.751 132.01C125.541 130.376 125.476 128.726 125.558 127.081C125.679 125.612 125.906 124.154 126.237 122.719L122.174 78.3622L121.208 121.56C121.208 121.56 121.401 124.171 121.694 124.675C122.078 125.367 122.34 126.12 122.467 126.9C122.467 127.38 121.595 131.923 121.221 132.116C120.847 132.309 119.675 132.988 119.675 132.988C119.675 132.988 118.902 132.795 117.837 131.443C116.771 130.091 114.266 130.197 113.78 130.377L113.294 130.571C113.294 130.571 111.848 128.832 111.555 127.573C111.263 126.314 113.201 126.221 113.101 122.837C113.001 119.453 110.097 90.7506 110.097 90.7506L109.418 71.4326L135.317 70.6599L135.123 72.76Z" fill="#263238" stroke="#263238" stroke-miterlimit="10"/>
<path d="M124.978 27.9172L114.64 28.5965L114.253 72.7599C114.253 72.7599 115.026 73.4391 121.401 73.5326C127.776 73.626 129.134 72.8596 129.134 72.8596L124.978 27.9172Z" fill="white" stroke="#263238" stroke-miterlimit="10"/>
<path d="M124.343 6.16903C124.343 6.16903 126.873 9.73973 126.835 10.2819C126.764 10.8154 126.66 11.344 126.524 11.8647C126.524 11.8647 129.278 14.7063 129.017 14.9369L127.484 16.2455C127.484 16.2455 127.527 18.9064 127.527 19.3177C127.527 19.729 128.113 20.7634 127.932 21.1872C127.723 21.6497 127.434 22.0716 127.078 22.4335C126.761 22.7015 124.455 22.6578 124.455 22.6578L124.411 26.3158C124.411 26.3158 124.816 28.6215 124.455 29.4316C124.094 30.2417 123.053 30.8773 120.436 31.0144C117.818 31.1515 116.541 30.2604 115.774 29.6248C115.008 28.9892 115.108 23.1564 115.058 22.2528C115.008 21.3492 114.97 19.6293 114.472 18.8628C113.973 18.0963 110.733 12.6312 110.185 11.2727C109.636 9.91422 109.593 8.51834 110.633 7.30318C111.674 6.08802 112.983 5.53963 113.126 4.86039C113.269 4.18114 113.126 3.50813 114.117 3.19032C114.838 3.00068 115.59 2.95411 116.329 3.05323C116.329 3.05323 118.23 0.753765 119.22 1.02172L120.218 1.28968C120.218 1.28968 122.972 0.523195 124.418 1.74459C125.863 2.96598 126.15 4.90401 124.343 6.16903Z" fill="white" stroke="#263238" stroke-miterlimit="10"/>
<path d="M124.86 12.5564C124.86 13.1297 125.034 13.5971 125.259 13.5971C125.483 13.5971 125.658 13.1297 125.658 12.5564C125.658 11.9831 125.477 11.5095 125.259 11.5095C125.041 11.5095 124.86 11.9769 124.86 12.5564Z" fill="#263238" stroke="#263238" stroke-miterlimit="10"/>
<path d="M113.095 4.86039C113.226 4.18114 113.095 3.50813 114.086 3.19032C114.807 3.00068 115.559 2.95411 116.298 3.05323C116.298 3.05323 118.198 0.753765 119.189 1.02172L120.186 1.28968C120.186 1.28968 122.941 0.523195 124.386 1.74459C125.832 2.96598 126.15 4.90401 124.343 6.16903C124.343 6.16903 119.358 6.71118 119.981 7.61476C120.604 8.51834 120.884 9.24121 120.392 9.48424C119.9 9.72727 117.638 10.8801 117.862 11.4223C118.086 11.9644 118.311 13.4101 117.999 13.5036C117.687 13.5971 117.725 13.4101 116.753 12.6873C115.781 11.9644 114.671 12.5066 114.541 13.9336C114.49 14.4529 114.614 14.9742 114.891 15.4162C115.168 15.8581 115.584 16.1957 116.074 16.3764C116.572 16.4636 116.298 18.2459 115.351 18.9064C115.133 19.0511 114.899 19.1683 114.653 19.2554C114.599 19.1014 114.53 18.9532 114.447 18.813C113.949 18.0465 110.708 12.5813 110.16 11.2229C109.611 9.86437 109.568 8.46849 110.608 7.25332C111.649 6.03816 112.958 5.53963 113.095 4.86039Z" fill="#263238" stroke="#263238" stroke-miterlimit="10"/>
<path d="M126.985 17.6413C126.985 17.6413 124.953 18.0027 123.782 16.5632" stroke="#263238" stroke-miterlimit="10"/>
<path d="M124.43 22.6578L120.273 21.3491L124.343 25.4557L124.43 22.6578Z" fill="#263238" stroke="#263238" stroke-miterlimit="10"/>
<path d="M125.832 10.257C125.832 10.257 124.361 9.45315 123.507 10.6621" stroke="#263238" stroke-miterlimit="10"/>
<path d="M135.466 44.7427C135.466 44.7427 141.106 54.1898 141.261 56.0156C141.417 57.8415 138.289 64.1167 137.373 64.3224C136.457 64.528 133.864 61.5805 133.565 60.3591C133.266 59.1377 132.799 45.3534 133.335 44.1569C133.871 42.9604 135.466 44.7427 135.466 44.7427Z" fill="#263238" stroke="#263238" stroke-miterlimit="10"/>
<path d="M126.112 27.8113L131.521 28.2226C131.521 28.2226 134.5 27.5309 135.397 27.8113C136.295 28.0917 149.051 33.0085 150.44 33.9806C151.83 34.9527 151.618 38.4798 151.269 39.938C151.15 40.4467 150.869 40.9033 150.469 41.2401C150.07 41.5768 149.572 41.7758 149.051 41.8075C148.428 41.876 135.541 41.0472 135.541 41.0472L138.862 74.7976L131.933 77.041L127.016 77.6641L124.585 35.5946L126.112 27.8113Z" fill="#8C53FF" stroke="#263238" stroke-miterlimit="10"/>
<path d="M124.343 25.4622L126.112 27.8115C126.112 27.8115 126.318 31.3448 125.838 32.7968C125.499 33.7757 125.083 34.726 124.592 35.6384L122.374 30.5098C123.325 28.9578 123.992 27.2485 124.343 25.4622Z" fill="#8C53FF" stroke="#263238" stroke-miterlimit="10"/>
<path d="M115.768 36.9407L116.391 77.8138C116.391 77.8138 110.297 77.1283 108.29 76.2871C107.146 75.8095 106.027 75.275 104.937 74.6856C104.937 74.6856 106.919 59.7297 106.994 58.5332C107.069 57.3368 107.069 56.321 107.069 56.321C107.069 56.321 102.576 57.9225 100.899 57.3929C99.223 56.8632 98.9924 55.1059 99.1482 52.8936C99.2368 51.67 99.2493 50.4421 99.1856 49.217C99.1856 48.8369 99.6405 42.5243 101.473 37.8007C103.305 33.0771 102.195 32.9276 103.492 32.0926C104.788 31.2575 114.235 27.8987 114.235 27.8987L115.301 30.1109L115.768 36.9407Z" fill="#8C53FF" stroke="#263238" stroke-miterlimit="10"/>
<path d="M108.57 30.1855C108.57 30.1855 109.941 46.3379 108.34 51.6721L105.847 51.7531C106.003 53.6226 107.137 50.3012 107.443 40.1686C107.573 35.8065 105.617 31.1764 105.617 31.1764C106.575 30.7735 107.563 30.4423 108.57 30.1855Z" fill="#263238" stroke="#263238" stroke-miterlimit="10"/>
<path d="M115.232 25.7113C115.232 25.7113 116.135 27.9983 116.684 29.1761C117.232 30.3539 117.637 31.1204 117.637 31.1204L115.768 36.9407C114.989 34.7873 114.415 32.5652 114.054 30.304C113.774 27.6681 113.524 28.0731 113.524 28.0731C113.524 28.0731 114.746 25.2253 115.232 25.7113Z" fill="#8C53FF" stroke="#263238" stroke-miterlimit="10"/>
<path d="M134.014 18.0901C133.454 17.8987 132.918 17.6414 132.419 17.3237C132.001 16.9809 131.173 15.6598 130.892 15.3856C130.612 15.1114 129.241 15.5913 129.023 14.937C128.805 14.2826 128.649 13.6096 129.471 13.8028C130.284 13.9488 131.107 14.0363 131.933 14.0645L130.63 9.80835H136.606C136.606 9.80835 138.339 15.7034 138.339 16.1833C138.29 16.7215 138.199 17.255 138.065 17.7786C138.065 17.7786 146.241 26.9266 147.973 29.2136C149.705 31.5006 151.855 34.6226 152.067 35.8004C152.279 36.9781 151.65 40.7171 150.198 41.2032C148.746 41.6892 147.425 41.1346 145.904 39.6827C144.384 38.2307 139.803 28.8708 139.598 28.5219C139.392 28.1729 135.859 19.4424 135.647 19.1744C135.135 18.7666 134.589 18.4038 134.014 18.0901Z" fill="white" stroke="#263238" stroke-miterlimit="10"/>
<path d="M130.973 28.2786C130.973 28.2786 132.724 39.7136 134.631 45.3532C136.538 50.9928 138.133 54.5698 138.133 54.5698L137.298 59.555C135.045 55.4786 133.133 51.2224 131.583 46.8301C128.991 39.5142 127.545 28.0854 127.545 28.0854L130.973 28.2786Z" fill="#263238" stroke="#263238" stroke-miterlimit="10"/>
<path d="M115.718 39.2338L117.774 57.4862L106.047 56.0965L102.987 37.9065L115.718 39.2338Z" fill="white" stroke="#263238" stroke-miterlimit="10"/>
<path d="M114.21 39.3273L117.943 57.3117L106.128 57.0063L101.404 39.1777L114.21 39.3273Z" fill="white" stroke="#263238" stroke-miterlimit="10"/>
<path d="M102.775 49.6969C104.062 50.3907 105.385 51.0148 106.738 51.5663C107.349 51.8096 108.004 51.922 108.661 51.8962C109.318 51.8705 109.962 51.7071 110.552 51.4168C111.219 51.1107 111.816 50.6693 112.303 50.1206C112.303 50.1206 112.683 48.0642 113.138 47.7588C113.593 47.4535 114.665 47.2229 115.12 46.5125C115.575 45.8021 115.805 45.8893 115.961 46.5873C116.117 47.2852 116.267 48.0392 115.805 48.3446C115.538 48.5205 115.348 48.7928 115.276 49.1048C115.276 49.1048 115.35 49.6408 115.961 49.4102C116.572 49.1796 116.952 48.4194 117.563 48.6499C117.697 48.672 117.824 48.7255 117.933 48.8062C118.043 48.8868 118.132 48.9923 118.193 49.114C118.253 49.2356 118.284 49.3699 118.283 49.5059C118.282 49.6419 118.249 49.7757 118.186 49.8963C118.012 50.2701 117.803 50.6268 117.563 50.9619C117.563 50.9619 118.323 52.7192 117.943 53.8596C117.563 54.9999 115.656 55.6917 114.74 55.7664C113.824 55.8412 111.238 55.916 111.238 55.916C111.238 55.916 107.499 57.1623 105.218 57.8229C102.937 58.4834 102.245 58.3588 100.949 57.368C100.282 56.8528 99.7922 56.143 99.5465 55.3369C99.3009 54.5308 99.312 53.6683 99.5783 52.8687C100.108 51.0678 100.719 50.077 102.775 49.6969Z" fill="white" stroke="#263238" stroke-miterlimit="10"/>
<path d="M133.771 129.879C133.771 129.879 135.017 132.87 135.316 133.45C135.96 134.49 136.859 135.348 137.927 135.942C139.379 136.808 141.118 137.388 140.732 138.161C140.345 138.933 138.607 139.127 137.155 139.32C135.703 139.513 132.325 138.933 130.967 138.933C129.608 138.933 126.605 138.454 126.33 137.774C126.056 137.095 126.43 132.266 126.43 132.266C126.43 132.266 128.649 129.779 133.771 129.879Z" fill="white" stroke="#263238" stroke-miterlimit="10"/>
<path d="M126.361 137.799C126.254 137.279 126.218 136.746 126.255 136.216L129.739 137.251C131.87 137.785 134.042 138.139 136.232 138.31C137.745 138.387 139.258 138.152 140.675 137.618C140.747 137.692 140.793 137.787 140.809 137.888C140.824 137.99 140.808 138.093 140.763 138.185C140.376 138.958 138.638 139.151 137.186 139.345C135.734 139.538 132.356 138.958 130.998 138.958C129.639 138.958 126.623 138.478 126.361 137.799Z" fill="white" stroke="#263238" stroke-miterlimit="10"/>
<path d="M119.962 132.502C119.962 132.502 119.675 137.488 119.607 137.849C119.538 138.211 119.183 138.472 118.198 138.591C117.214 138.709 116.784 138.659 116.223 138.933C115.662 139.208 114.459 139.812 111.076 139.812C107.692 139.812 106.633 139.189 107.056 137.986C107.48 136.783 110.72 134.397 111.499 133.45C112.148 132.517 112.697 131.518 113.138 130.471C113.138 130.471 114.104 129.661 116.011 130.066C117.918 130.471 118.41 131.219 118.622 131.555C119.019 131.935 119.471 132.255 119.962 132.502Z" fill="white" stroke="#263238" stroke-miterlimit="10"/>
<path d="M107.044 138.011C107.072 137.931 107.108 137.854 107.149 137.781C107.479 138.131 107.872 138.414 108.309 138.616C109.555 139.239 114.59 138.89 115.718 138.279C117.007 137.711 118.336 137.239 119.694 136.865C119.656 137.4 119.625 137.799 119.606 137.886C119.538 138.223 119.183 138.51 118.198 138.628C117.214 138.746 116.784 138.697 116.223 138.971C115.662 139.245 114.459 139.849 111.075 139.849C107.692 139.849 106.632 139.226 107.044 138.011Z" fill="white" stroke="#263238" stroke-miterlimit="10"/>
<path d="M129.041 10.7616L133.653 10.4563V14.0644L129.041 13.759C128.823 13.759 128.643 13.0923 128.643 12.2635C128.643 11.4347 128.854 10.7616 129.041 10.7616Z" fill="white" stroke="#263238" stroke-miterlimit="10"/>
<path d="M127.776 10.4004H129.228C129.266 10.4006 129.303 10.4101 129.336 10.428C129.369 10.4459 129.398 10.4717 129.419 10.5031C129.44 10.5344 129.452 10.5704 129.456 10.6079C129.46 10.6455 129.454 10.6833 129.44 10.7182C129.281 11.2174 129.207 11.7399 129.222 12.2636C129.207 12.7854 129.281 13.3059 129.44 13.8028C129.454 13.8377 129.46 13.8756 129.456 13.9131C129.452 13.9506 129.44 13.9866 129.419 14.018C129.398 14.0494 129.369 14.0751 129.336 14.093C129.303 14.1109 129.266 14.1204 129.228 14.1207H127.776C127.502 14.1207 127.278 13.2856 127.278 12.2512C127.278 11.2167 127.502 10.4004 127.776 10.4004Z" fill="white" stroke="#263238" stroke-miterlimit="10"/>
<path d="M132.35 9.80834L142.364 9.30981V15.2174L132.35 14.7251C131.989 14.7251 131.727 13.6221 131.727 12.2698C131.727 10.9176 131.97 9.80834 132.35 9.80834Z" fill="white" stroke="#263238" stroke-miterlimit="10"/>
<path d="M141.579 12.2636C141.579 13.89 141.934 15.2174 142.364 15.2174C142.794 15.2174 143.149 13.89 143.149 12.2636C143.149 10.6371 142.8 9.30981 142.364 9.30981C141.928 9.30981 141.579 10.6309 141.579 12.2636Z" fill="white" stroke="#263238" stroke-miterlimit="10"/>
<path d="M127.29 10.7616L131.901 10.4563V14.0644L127.29 13.759C127.072 13.759 126.891 13.0923 126.891 12.2635C126.891 11.4347 127.072 10.7616 127.29 10.7616Z" fill="#263238" stroke="#263238" stroke-miterlimit="10"/>
<path d="M126.025 10.4004H127.477C127.515 10.4006 127.552 10.4101 127.585 10.428C127.618 10.4459 127.646 10.4717 127.667 10.5031C127.688 10.5344 127.701 10.5704 127.705 10.6079C127.708 10.6455 127.703 10.6833 127.689 10.7182C127.532 11.2179 127.461 11.7403 127.477 12.2636C127.46 12.785 127.532 13.3054 127.689 13.8028C127.703 13.8377 127.708 13.8756 127.705 13.9131C127.701 13.9506 127.688 13.9866 127.667 14.018C127.646 14.0494 127.618 14.0751 127.585 14.093C127.552 14.1109 127.515 14.1204 127.477 14.1207H126.025C125.751 14.1207 125.526 13.2856 125.526 12.2512C125.526 11.2167 125.738 10.4004 126.025 10.4004Z" fill="white" stroke="#263238" stroke-miterlimit="10"/>
<path d="M130.599 9.80834L140.613 9.30981V15.2174L130.599 14.7251C130.244 14.7251 129.976 13.6221 129.976 12.2698C129.976 10.9176 130.244 9.80834 130.599 9.80834Z" fill="#263238" stroke="#263238" stroke-miterlimit="10"/>
<path d="M139.828 12.2636C139.828 13.89 140.183 15.2174 140.613 15.2174C141.043 15.2174 141.399 13.89 141.399 12.2636C141.399 10.6371 141.05 9.30981 140.613 9.30981C140.177 9.30981 139.828 10.6309 139.828 12.2636Z" fill="white" stroke="#263238" stroke-miterlimit="10"/>
<path d="M136.407 9.45312C136.407 9.45312 135.117 8.06348 134.637 8.06348C134.157 8.06348 133.391 9.3098 133.254 9.45312C133.117 9.59645 133.204 9.83325 133.727 9.8831C134.126 9.87008 134.511 9.73524 134.83 9.49674L136.407 9.45312Z" fill="white" stroke="#263238" stroke-miterlimit="10"/>
<path d="M134.637 8.06351C133.981 7.89453 133.308 7.79839 132.631 7.77686C132.244 7.87033 131.528 9.49678 131.671 9.73981C131.814 9.98284 133.254 9.45316 133.254 9.45316C133.254 9.45316 134.207 8.01366 134.637 8.06351Z" fill="white" stroke="#263238" stroke-miterlimit="10"/>
<path d="M132.294 7.92001C132.294 7.92001 131.528 7.44018 131.148 7.77669C130.768 8.11319 129.951 9.25981 130.144 9.68979C130.338 10.1198 131.671 9.73964 131.671 9.73964C131.671 9.73964 131.97 8.06334 132.294 7.92001Z" fill="white" stroke="#263238" stroke-miterlimit="10"/>
<path d="M130.768 8.06348C130.768 8.06348 129.808 7.68335 129.471 8.06348C129.135 8.4436 128.281 9.64007 128.848 9.93296C129.415 10.2258 129.995 9.35965 129.995 9.35965L130.768 8.06348Z" fill="white" stroke="#263238" stroke-miterlimit="10"/>
</svg>
