<svg xmlns="http://www.w3.org/2000/svg" xmlns:xlink="http://www.w3.org/1999/xlink" width="420" zoomAndPan="magnify" viewBox="0 0 315 314.999992" height="420" preserveAspectRatio="xMidYMid meet" version="1.0">
    <defs>
        <clipPath id="6c802a17ba">
            <path d="M 11 111.140625 L 304 111.140625 L 304 216.890625 L 11 216.890625 Z M 11 111.140625 " clip-rule="nonzero"/>
        </clipPath>
        <clipPath id="2d9b387550">
            <path d="M 56 116 L 259 116 L 259 216.890625 L 56 216.890625 Z M 56 116 " clip-rule="nonzero"/>
        </clipPath>
        <clipPath id="64c927ef23">
            <path d="M 182 116 L 299 116 L 299 216.890625 L 182 216.890625 Z M 182 116 " clip-rule="nonzero"/>
        </clipPath>
        <clipPath id="4beb89c826">
            <path d="M 16 116 L 133 116 L 133 216.890625 L 16 216.890625 Z M 16 116 " clip-rule="nonzero"/>
        </clipPath>
    </defs>
    <g clip-path="url(#6c802a17ba)">
        <path fill="#ffffff" d="M 210.105469 235.226562 L 210.105469 290.460938 C 210.105469 291.960938 208.886719 293.179688 207.378906 293.179688 C 205.878906 293.179688 204.664062 291.960938 204.664062 290.460938 L 204.664062 235.226562 C 204.664062 233.714844 205.878906 232.5 207.378906 232.5 C 208.886719 232.5 210.105469 233.714844 210.105469 235.226562 Z M 110.765625 235.226562 L 110.765625 290.460938 C 110.765625 291.960938 109.546875 293.179688 108.039062 293.179688 C 106.539062 293.179688 105.316406 291.960938 105.316406 290.460938 L 105.316406 235.226562 C 105.316406 233.714844 106.539062 232.5 108.039062 232.5 C 109.546875 232.5 110.765625 233.714844 110.765625 235.226562 Z M 160.4375 235.226562 L 160.4375 290.460938 C 160.4375 291.960938 159.214844 293.179688 157.714844 293.179688 C 156.207031 293.179688 154.988281 291.960938 154.988281 290.460938 L 154.988281 235.226562 C 154.988281 233.714844 156.207031 232.5 157.714844 232.5 C 159.214844 232.5 160.4375 233.714844 160.4375 235.226562 Z M 293.398438 143.855469 L 254.234375 163.242188 L 244.078125 148.179688 L 285.417969 127.753906 C 287.570312 126.691406 290.007812 126.523438 292.28125 127.292969 C 294.550781 128.058594 296.390625 129.667969 297.453125 131.8125 C 299.65625 136.253906 297.828125 141.652344 293.398438 143.855469 Z M 255.113281 188.210938 C 251.664062 190.535156 246.628906 189.542969 244.316406 186.109375 L 236.914062 175.117188 C 236.769531 174.765625 236.558594 174.445312 236.28125 174.175781 L 224.933594 157.339844 C 228.441406 154.164062 231.09375 150.066406 232.523438 145.433594 C 235.863281 146.492188 238.464844 149.585938 238.46875 149.585938 L 251.054688 168.269531 C 251.0625 168.28125 251.070312 168.292969 251.078125 168.300781 L 257.222656 177.421875 C 259.609375 180.980469 258.671875 185.820312 255.113281 188.210938 Z M 207.128906 158.757812 C 195.488281 158.757812 186.023438 149.292969 186.023438 137.652344 C 186.023438 126.015625 195.488281 116.546875 207.128906 116.546875 C 218.769531 116.546875 228.242188 126.015625 228.242188 137.652344 C 228.242188 149.292969 218.769531 158.757812 207.128906 158.757812 Z M 157.460938 158.757812 C 145.824219 158.757812 136.355469 149.292969 136.355469 137.652344 C 136.355469 126.015625 145.824219 116.546875 157.460938 116.546875 C 169.09375 116.546875 178.566406 126.015625 178.566406 137.652344 C 178.566406 149.292969 169.09375 158.757812 157.460938 158.757812 Z M 107.792969 158.757812 C 96.148438 158.757812 86.679688 149.292969 86.679688 137.652344 C 86.679688 126.015625 96.148438 116.546875 107.792969 116.546875 C 119.429688 116.546875 128.898438 126.015625 128.898438 137.652344 C 128.898438 149.292969 119.429688 158.757812 107.792969 158.757812 Z M 78.640625 174.175781 C 78.363281 174.445312 78.152344 174.765625 78.007812 175.117188 L 70.605469 186.109375 C 68.292969 189.539062 63.257812 190.535156 59.808594 188.210938 C 56.25 185.820312 55.308594 180.980469 57.699219 177.421875 L 63.824219 168.328125 C 63.84375 168.292969 63.867188 168.261719 63.890625 168.230469 L 76.3125 149.773438 C 76.339844 149.730469 78.992188 146.511719 82.398438 145.433594 C 83.828125 150.066406 86.480469 154.164062 89.984375 157.339844 Z M 21.523438 143.855469 C 17.089844 141.652344 15.261719 136.253906 17.46875 131.8125 C 18.53125 129.667969 20.371094 128.058594 22.636719 127.292969 C 24.914062 126.523438 27.347656 126.691406 29.507812 127.753906 L 70.828125 148.179688 L 60.683594 163.242188 Z M 302.339844 129.402344 C 300.621094 125.941406 297.671875 123.363281 294.019531 122.132812 C 290.359375 120.902344 286.449219 121.167969 283 122.878906 L 240.433594 143.910156 C 238.789062 142.492188 236.40625 140.839844 233.5625 140.066406 C 233.636719 139.265625 233.679688 138.464844 233.679688 137.652344 C 233.679688 123.011719 221.769531 111.105469 207.128906 111.105469 C 195.785156 111.105469 186.09375 118.25 182.296875 128.277344 C 178.496094 118.25 168.796875 111.105469 157.460938 111.105469 C 146.121094 111.105469 136.425781 118.25 132.621094 128.277344 C 128.828125 118.25 119.132812 111.105469 107.792969 111.105469 C 93.148438 111.105469 81.242188 123.011719 81.242188 137.652344 C 81.242188 138.464844 81.28125 139.265625 81.355469 140.066406 C 78.539062 140.832031 76.160156 142.476562 74.5 143.921875 L 31.921875 122.878906 C 28.464844 121.167969 24.550781 120.902344 20.902344 122.132812 C 17.25 123.363281 14.300781 125.941406 12.582031 129.402344 C 9.054688 136.53125 11.984375 145.203125 19.113281 148.730469 L 57.613281 167.800781 L 53.183594 174.378906 C 49.113281 180.429688 50.71875 188.660156 56.765625 192.734375 C 58.953125 194.203125 61.503906 194.984375 64.140625 194.984375 C 68.554688 194.984375 72.652344 192.804688 75.117188 189.152344 L 77.804688 185.160156 L 77.804688 290.460938 C 77.804688 291.960938 79.023438 293.179688 80.53125 293.179688 C 82.03125 293.179688 83.253906 291.960938 83.253906 290.460938 L 83.253906 177.082031 L 94.382812 160.5625 C 98.324219 162.875 102.902344 164.207031 107.792969 164.207031 C 116.691406 164.207031 124.582031 159.792969 129.398438 153.054688 L 129.398438 290.460938 C 129.398438 291.960938 130.617188 293.179688 132.125 293.179688 C 133.625 293.179688 134.847656 291.960938 134.847656 290.460938 L 134.847656 151.550781 C 139.519531 159.136719 147.910156 164.207031 157.460938 164.207031 C 167.007812 164.207031 175.402344 159.136719 180.074219 151.550781 L 180.074219 290.460938 C 180.074219 291.960938 181.296875 293.179688 182.796875 293.179688 C 184.304688 293.179688 185.523438 291.960938 185.523438 290.460938 L 185.523438 153.054688 C 190.339844 159.792969 198.230469 164.207031 207.128906 164.207031 C 212.019531 164.207031 216.597656 162.875 220.535156 160.5625 L 231.667969 177.082031 L 231.667969 290.460938 C 231.667969 291.960938 232.890625 293.179688 234.390625 293.179688 C 235.898438 293.179688 237.117188 291.960938 237.117188 290.460938 L 237.117188 185.160156 L 239.800781 189.152344 C 242.265625 192.804688 246.367188 194.984375 250.78125 194.984375 C 253.417969 194.984375 255.96875 194.203125 258.15625 192.734375 C 264.203125 188.660156 265.804688 180.429688 261.734375 174.378906 L 257.300781 167.800781 L 295.808594 148.730469 C 302.9375 145.203125 305.863281 136.53125 302.339844 129.402344 " fill-opacity="1" fill-rule="nonzero"/>
    </g>
    <g clip-path="url(#2d9b387550)">
        <path fill="#08121f" d="M 180.074219 290.460938 L 180.074219 151.550781 C 175.402344 159.136719 167.007812 164.207031 157.460938 164.207031 C 147.910156 164.207031 139.519531 159.136719 134.847656 151.550781 L 134.847656 290.460938 C 134.847656 291.960938 133.625 293.179688 132.125 293.179688 L 157.714844 293.179688 C 156.207031 293.179688 154.988281 291.960938 154.988281 290.460938 L 154.988281 235.226562 C 154.988281 233.714844 156.207031 232.5 157.714844 232.5 C 159.214844 232.5 160.4375 233.714844 160.4375 235.226562 L 160.4375 290.460938 C 160.4375 291.960938 159.214844 293.179688 157.714844 293.179688 L 182.796875 293.179688 C 181.296875 293.179688 180.074219 291.960938 180.074219 290.460938 Z M 157.460938 116.546875 C 145.824219 116.546875 136.355469 126.015625 136.355469 137.652344 C 136.355469 149.292969 145.824219 158.757812 157.460938 158.757812 C 169.09375 158.757812 178.566406 149.292969 178.566406 137.652344 C 178.566406 126.015625 169.09375 116.546875 157.460938 116.546875 Z M 257.222656 177.421875 L 251.078125 168.300781 C 251.070312 168.292969 251.0625 168.28125 251.054688 168.269531 L 238.46875 149.585938 C 238.464844 149.585938 235.863281 146.492188 232.523438 145.433594 C 231.09375 150.066406 228.441406 154.164062 224.933594 157.339844 L 236.28125 174.175781 C 236.558594 174.445312 236.769531 174.765625 236.914062 175.117188 L 244.316406 186.109375 C 246.628906 189.542969 251.664062 190.535156 255.113281 188.210938 C 258.671875 185.820312 259.609375 180.980469 257.222656 177.421875 Z M 89.984375 157.339844 L 78.640625 174.175781 C 78.363281 174.445312 78.152344 174.765625 78.007812 175.117188 L 70.605469 186.109375 C 68.292969 189.539062 63.257812 190.535156 59.808594 188.210938 C 56.25 185.820312 55.308594 180.980469 57.699219 177.421875 L 63.824219 168.328125 C 63.84375 168.292969 63.867188 168.261719 63.890625 168.230469 L 76.3125 149.773438 C 76.339844 149.730469 78.992188 146.511719 82.398438 145.433594 C 83.828125 150.066406 86.480469 154.164062 89.984375 157.339844 " fill-opacity="1" fill-rule="nonzero"/>
    </g>
    <g clip-path="url(#64c927ef23)">
        <path fill="#08121f" d="M 231.667969 290.460938 L 231.667969 177.082031 L 220.535156 160.5625 C 216.597656 162.875 212.019531 164.207031 207.128906 164.207031 C 198.230469 164.207031 190.339844 159.792969 185.523438 153.054688 L 185.523438 290.460938 C 185.523438 291.960938 184.304688 293.179688 182.796875 293.179688 L 207.378906 293.179688 C 205.878906 293.179688 204.664062 291.960938 204.664062 290.460938 L 204.664062 235.226562 C 204.664062 233.714844 205.878906 232.5 207.378906 232.5 C 208.886719 232.5 210.105469 233.714844 210.105469 235.226562 L 210.105469 290.460938 C 210.105469 291.960938 208.886719 293.179688 207.378906 293.179688 L 234.390625 293.179688 C 232.890625 293.179688 231.667969 291.960938 231.667969 290.460938 Z M 207.128906 116.546875 C 195.488281 116.546875 186.023438 126.015625 186.023438 137.652344 C 186.023438 149.292969 195.488281 158.757812 207.128906 158.757812 C 218.769531 158.757812 228.242188 149.292969 228.242188 137.652344 C 228.242188 126.015625 218.769531 116.546875 207.128906 116.546875 Z M 293.398438 143.855469 L 254.234375 163.242188 L 244.078125 148.179688 L 285.417969 127.753906 C 287.570312 126.691406 290.007812 126.523438 292.28125 127.292969 C 294.550781 128.058594 296.390625 129.667969 297.453125 131.8125 C 299.65625 136.253906 297.828125 141.652344 293.398438 143.855469 " fill-opacity="1" fill-rule="nonzero"/>
    </g>
    <g clip-path="url(#4beb89c826)">
        <path fill="#08121f" d="M 129.398438 290.460938 L 129.398438 153.054688 C 124.582031 159.792969 116.691406 164.207031 107.792969 164.207031 C 102.902344 164.207031 98.324219 162.875 94.382812 160.5625 L 83.253906 177.082031 L 83.253906 290.460938 C 83.253906 291.960938 82.03125 293.179688 80.53125 293.179688 L 108.039062 293.179688 C 106.539062 293.179688 105.316406 291.960938 105.316406 290.460938 L 105.316406 235.226562 C 105.316406 233.714844 106.539062 232.5 108.039062 232.5 C 109.546875 232.5 110.765625 233.714844 110.765625 235.226562 L 110.765625 290.460938 C 110.765625 291.960938 109.546875 293.179688 108.039062 293.179688 L 132.125 293.179688 C 130.617188 293.179688 129.398438 291.960938 129.398438 290.460938 Z M 107.792969 116.546875 C 96.148438 116.546875 86.679688 126.015625 86.679688 137.652344 C 86.679688 149.292969 96.148438 158.757812 107.792969 158.757812 C 119.429688 158.757812 128.898438 149.292969 128.898438 137.652344 C 128.898438 126.015625 119.429688 116.546875 107.792969 116.546875 Z M 70.828125 148.179688 L 60.683594 163.242188 L 21.523438 143.855469 C 17.089844 141.652344 15.261719 136.253906 17.46875 131.8125 C 18.53125 129.667969 20.371094 128.058594 22.636719 127.292969 C 24.914062 126.523438 27.347656 126.691406 29.507812 127.753906 L 70.828125 148.179688 " fill-opacity="1" fill-rule="nonzero"/>
    </g>
</svg>