<svg xmlns="http://www.w3.org/2000/svg" xmlns:xlink="http://www.w3.org/1999/xlink" width="420" zoomAndPan="magnify" viewBox="0 0 315 314.999992" height="420" preserveAspectRatio="xMidYMid meet" version="1.0">
    <defs>
        <clipPath id="4c1769c349">
            <path d="M 13 96.664062 L 301 96.664062 L 301 200.164062 L 13 200.164062 Z M 13 96.664062 " clip-rule="nonzero"/>
        </clipPath>
        <clipPath id="f122d72739">
            <path d="M 57 101 L 257 101 L 257 200.164062 L 57 200.164062 Z M 57 101 " clip-rule="nonzero"/>
        </clipPath>
        <clipPath id="ef63bca772">
            <path d="M 181 101 L 296 101 L 296 200.164062 L 181 200.164062 Z M 181 101 " clip-rule="nonzero"/>
        </clipPath>
        <clipPath id="441582379e">
            <path d="M 18 101 L 133 101 L 133 200.164062 L 18 200.164062 Z M 18 101 " clip-rule="nonzero"/>
        </clipPath>
    </defs>
    <g clip-path="url(#4c1769c349)">
        <path fill="#ffffff" d="M 208.769531 218.683594 L 208.769531 273.003906 C 208.769531 274.480469 207.574219 275.675781 206.089844 275.675781 C 204.617188 275.675781 203.417969 274.480469 203.417969 273.003906 L 203.417969 218.683594 C 203.417969 217.203125 204.617188 216.003906 206.089844 216.003906 C 207.574219 216.003906 208.769531 217.203125 208.769531 218.683594 Z M 111.082031 218.683594 L 111.082031 273.003906 C 111.082031 274.480469 109.882812 275.675781 108.398438 275.675781 C 106.925781 275.675781 105.722656 274.480469 105.722656 273.003906 L 105.722656 218.683594 C 105.722656 217.203125 106.925781 216.003906 108.398438 216.003906 C 109.882812 216.003906 111.082031 217.203125 111.082031 218.683594 Z M 159.929688 218.683594 L 159.929688 273.003906 C 159.929688 274.480469 158.726562 275.675781 157.25 275.675781 C 155.765625 275.675781 154.570312 274.480469 154.570312 273.003906 L 154.570312 218.683594 C 154.570312 217.203125 155.765625 216.003906 157.25 216.003906 C 158.726562 216.003906 159.929688 217.203125 159.929688 218.683594 Z M 290.679688 128.832031 L 252.167969 147.898438 L 242.179688 133.085938 L 282.835938 113 C 284.949219 111.953125 287.347656 111.789062 289.582031 112.546875 C 291.8125 113.300781 293.621094 114.878906 294.667969 116.992188 C 296.835938 121.355469 295.039062 126.667969 290.679688 128.832031 Z M 253.03125 172.449219 C 249.640625 174.738281 244.6875 173.761719 242.414062 170.386719 L 235.132812 159.574219 C 234.992188 159.226562 234.785156 158.914062 234.511719 158.648438 L 223.355469 142.09375 C 226.804688 138.972656 229.410156 134.9375 230.816406 130.386719 C 234.101562 131.425781 236.65625 134.46875 236.664062 134.46875 L 249.039062 152.84375 C 249.050781 152.851562 249.054688 152.867188 249.0625 152.871094 L 255.105469 161.839844 C 257.453125 165.339844 256.53125 170.097656 253.03125 172.449219 Z M 205.84375 143.488281 C 194.398438 143.488281 185.089844 134.183594 185.089844 122.730469 C 185.089844 111.289062 194.398438 101.976562 205.84375 101.976562 C 217.292969 101.976562 226.605469 111.289062 226.605469 122.730469 C 226.605469 134.183594 217.292969 143.488281 205.84375 143.488281 Z M 157 143.488281 C 145.558594 143.488281 136.246094 134.183594 136.246094 122.730469 C 136.246094 111.289062 145.558594 101.976562 157 101.976562 C 168.441406 101.976562 177.753906 111.289062 177.753906 122.730469 C 177.753906 134.183594 168.441406 143.488281 157 143.488281 Z M 108.15625 143.488281 C 96.707031 143.488281 87.394531 134.183594 87.394531 122.730469 C 87.394531 111.289062 96.707031 101.976562 108.15625 101.976562 C 119.601562 101.976562 128.914062 111.289062 128.914062 122.730469 C 128.914062 134.183594 119.601562 143.488281 108.15625 143.488281 Z M 79.488281 158.648438 C 79.214844 158.914062 79.007812 159.226562 78.867188 159.574219 L 71.585938 170.386719 C 69.3125 173.757812 64.363281 174.738281 60.96875 172.449219 C 57.46875 170.097656 56.546875 165.339844 58.894531 161.839844 L 64.917969 152.898438 C 64.9375 152.867188 64.960938 152.835938 64.980469 152.800781 L 77.199219 134.652344 C 77.226562 134.609375 79.835938 131.445312 83.183594 130.386719 C 84.589844 134.9375 87.199219 138.972656 90.644531 142.09375 Z M 23.320312 128.832031 C 18.960938 126.667969 17.164062 121.355469 19.332031 116.992188 C 20.378906 114.878906 22.1875 113.300781 24.417969 112.546875 C 26.65625 111.789062 29.046875 111.953125 31.171875 113 L 71.808594 133.085938 L 61.832031 147.898438 Z M 299.472656 114.617188 C 297.78125 111.21875 294.882812 108.683594 291.292969 107.472656 C 287.695312 106.261719 283.847656 106.523438 280.453125 108.207031 L 238.59375 128.886719 C 236.976562 127.492188 234.636719 125.867188 231.839844 125.105469 C 231.914062 124.320312 231.953125 123.53125 231.953125 122.730469 C 231.953125 108.335938 220.242188 96.628906 205.84375 96.628906 C 194.691406 96.628906 185.15625 103.652344 181.425781 113.515625 C 177.683594 103.652344 168.148438 96.628906 157 96.628906 C 145.851562 96.628906 136.316406 103.652344 132.574219 113.515625 C 128.84375 103.652344 119.308594 96.628906 108.15625 96.628906 C 93.757812 96.628906 82.046875 108.335938 82.046875 122.730469 C 82.046875 123.53125 82.085938 124.320312 82.160156 125.105469 C 79.386719 125.859375 77.050781 127.476562 75.417969 128.898438 L 33.546875 108.207031 C 30.148438 106.523438 26.296875 106.261719 22.707031 107.472656 C 19.117188 108.683594 16.21875 111.21875 14.527344 114.617188 C 11.058594 121.628906 13.9375 130.15625 20.949219 133.628906 L 58.8125 152.382812 L 54.457031 158.847656 C 50.453125 164.800781 52.03125 172.894531 57.976562 176.898438 C 60.128906 178.34375 62.636719 179.113281 65.230469 179.113281 C 69.570312 179.113281 73.601562 176.96875 76.027344 173.378906 L 78.667969 169.449219 L 78.667969 273.003906 C 78.667969 274.480469 79.863281 275.675781 81.347656 275.675781 C 82.824219 275.675781 84.023438 274.480469 84.023438 273.003906 L 84.023438 161.507812 L 94.972656 145.261719 C 98.84375 147.535156 103.347656 148.847656 108.15625 148.847656 C 116.910156 148.847656 124.667969 144.507812 129.40625 137.882812 L 129.40625 273.003906 C 129.40625 274.480469 130.601562 275.675781 132.085938 275.675781 C 133.558594 275.675781 134.761719 274.480469 134.761719 273.003906 L 134.761719 136.398438 C 139.359375 143.859375 147.609375 148.847656 157 148.847656 C 166.390625 148.847656 174.644531 143.859375 179.238281 136.398438 L 179.238281 273.003906 C 179.238281 274.480469 180.441406 275.675781 181.914062 275.675781 C 183.398438 275.675781 184.597656 274.480469 184.597656 273.003906 L 184.597656 137.882812 C 189.332031 144.507812 197.09375 148.847656 205.84375 148.847656 C 210.652344 148.847656 215.15625 147.535156 219.03125 145.261719 L 229.976562 161.507812 L 229.976562 273.003906 C 229.976562 274.480469 231.179688 275.675781 232.652344 275.675781 C 234.136719 275.675781 235.332031 274.480469 235.332031 273.003906 L 235.332031 169.449219 L 237.976562 173.378906 C 240.398438 176.96875 244.433594 179.113281 248.769531 179.113281 C 251.363281 179.113281 253.871094 178.34375 256.023438 176.898438 C 261.972656 172.894531 263.546875 164.800781 259.542969 158.847656 L 255.183594 152.382812 L 293.050781 133.628906 C 300.0625 130.15625 302.941406 121.628906 299.472656 114.617188 " fill-opacity="1" fill-rule="nonzero"/>
    </g>
    <g clip-path="url(#f122d72739)">
        <path fill="#f7fafc" d="M 179.238281 273.003906 L 179.238281 136.398438 C 174.644531 143.859375 166.390625 148.847656 157 148.847656 C 147.609375 148.847656 139.359375 143.859375 134.761719 136.398438 L 134.761719 273.003906 C 134.761719 274.480469 133.558594 275.675781 132.085938 275.675781 L 157.25 275.675781 C 155.765625 275.675781 154.570312 274.480469 154.570312 273.003906 L 154.570312 218.683594 C 154.570312 217.203125 155.765625 216.003906 157.25 216.003906 C 158.726562 216.003906 159.929688 217.203125 159.929688 218.683594 L 159.929688 273.003906 C 159.929688 274.480469 158.726562 275.675781 157.25 275.675781 L 181.914062 275.675781 C 180.441406 275.675781 179.238281 274.480469 179.238281 273.003906 Z M 157 101.976562 C 145.558594 101.976562 136.246094 111.289062 136.246094 122.730469 C 136.246094 134.183594 145.558594 143.488281 157 143.488281 C 168.441406 143.488281 177.753906 134.183594 177.753906 122.730469 C 177.753906 111.289062 168.441406 101.976562 157 101.976562 Z M 255.105469 161.839844 L 249.0625 152.871094 C 249.054688 152.867188 249.050781 152.851562 249.039062 152.84375 L 236.664062 134.46875 C 236.65625 134.46875 234.101562 131.425781 230.816406 130.386719 C 229.410156 134.9375 226.804688 138.972656 223.355469 142.09375 L 234.511719 158.648438 C 234.785156 158.914062 234.992188 159.226562 235.132812 159.574219 L 242.414062 170.386719 C 244.6875 173.761719 249.640625 174.738281 253.03125 172.449219 C 256.53125 170.097656 257.453125 165.339844 255.105469 161.839844 Z M 90.644531 142.09375 L 79.488281 158.648438 C 79.214844 158.914062 79.007812 159.226562 78.867188 159.574219 L 71.585938 170.386719 C 69.3125 173.757812 64.363281 174.738281 60.96875 172.449219 C 57.46875 170.097656 56.546875 165.339844 58.894531 161.839844 L 64.917969 152.898438 C 64.9375 152.867188 64.960938 152.835938 64.980469 152.800781 L 77.199219 134.652344 C 77.226562 134.609375 79.835938 131.445312 83.183594 130.386719 C 84.589844 134.9375 87.199219 138.972656 90.644531 142.09375 " fill-opacity="1" fill-rule="nonzero"/>
    </g>
    <g clip-path="url(#ef63bca772)">
        <path fill="#f7fafc" d="M 229.976562 273.003906 L 229.976562 161.507812 L 219.03125 145.261719 C 215.15625 147.535156 210.652344 148.847656 205.84375 148.847656 C 197.09375 148.847656 189.332031 144.507812 184.597656 137.882812 L 184.597656 273.003906 C 184.597656 274.480469 183.398438 275.675781 181.914062 275.675781 L 206.089844 275.675781 C 204.617188 275.675781 203.417969 274.480469 203.417969 273.003906 L 203.417969 218.683594 C 203.417969 217.203125 204.617188 216.003906 206.089844 216.003906 C 207.574219 216.003906 208.769531 217.203125 208.769531 218.683594 L 208.769531 273.003906 C 208.769531 274.480469 207.574219 275.675781 206.089844 275.675781 L 232.652344 275.675781 C 231.179688 275.675781 229.976562 274.480469 229.976562 273.003906 Z M 205.84375 101.976562 C 194.398438 101.976562 185.089844 111.289062 185.089844 122.730469 C 185.089844 134.183594 194.398438 143.488281 205.84375 143.488281 C 217.292969 143.488281 226.605469 134.183594 226.605469 122.730469 C 226.605469 111.289062 217.292969 101.976562 205.84375 101.976562 Z M 290.679688 128.832031 L 252.167969 147.898438 L 242.179688 133.085938 L 282.835938 113 C 284.949219 111.953125 287.347656 111.789062 289.582031 112.546875 C 291.8125 113.300781 293.621094 114.878906 294.667969 116.992188 C 296.835938 121.355469 295.039062 126.667969 290.679688 128.832031 " fill-opacity="1" fill-rule="nonzero"/>
    </g>
    <g clip-path="url(#441582379e)">
        <path fill="#f7fafc" d="M 129.40625 273.003906 L 129.40625 137.882812 C 124.667969 144.507812 116.910156 148.847656 108.15625 148.847656 C 103.347656 148.847656 98.84375 147.535156 94.972656 145.261719 L 84.023438 161.507812 L 84.023438 273.003906 C 84.023438 274.480469 82.824219 275.675781 81.347656 275.675781 L 108.398438 275.675781 C 106.925781 275.675781 105.722656 274.480469 105.722656 273.003906 L 105.722656 218.683594 C 105.722656 217.203125 106.925781 216.003906 108.398438 216.003906 C 109.882812 216.003906 111.082031 217.203125 111.082031 218.683594 L 111.082031 273.003906 C 111.082031 274.480469 109.882812 275.675781 108.398438 275.675781 L 132.085938 275.675781 C 130.601562 275.675781 129.40625 274.480469 129.40625 273.003906 Z M 108.15625 101.976562 C 96.707031 101.976562 87.394531 111.289062 87.394531 122.730469 C 87.394531 134.183594 96.707031 143.488281 108.15625 143.488281 C 119.601562 143.488281 128.914062 134.183594 128.914062 122.730469 C 128.914062 111.289062 119.601562 101.976562 108.15625 101.976562 Z M 71.808594 133.085938 L 61.832031 147.898438 L 23.320312 128.832031 C 18.960938 126.667969 17.164062 121.355469 19.332031 116.992188 C 20.378906 114.878906 22.1875 113.300781 24.417969 112.546875 C 26.65625 111.789062 29.046875 111.953125 31.171875 113 L 71.808594 133.085938 " fill-opacity="1" fill-rule="nonzero"/>
    </g>
</svg>