<svg xmlns="http://www.w3.org/2000/svg" xmlns:xlink="http://www.w3.org/1999/xlink" width="420" zoomAndPan="magnify" viewBox="0 0 315 314.999992" height="420" preserveAspectRatio="xMidYMid meet" version="1.0">
    <defs>
        <clipPath id="32c8d13d0e">
            <path d="M 8 96.691406 L 307 96.691406 L 307 203.941406 L 8 203.941406 Z M 8 96.691406 " clip-rule="nonzero"/>
        </clipPath>
        <clipPath id="e3e2efc958">
            <path d="M 54 102 L 261 102 L 261 203.941406 L 54 203.941406 Z M 54 102 " clip-rule="nonzero"/>
        </clipPath>
        <clipPath id="ff2c8a5f35">
            <path d="M 183 102 L 301 102 L 301 203.941406 L 183 203.941406 Z M 183 102 " clip-rule="nonzero"/>
        </clipPath>
        <clipPath id="b764804dd7">
            <path d="M 13 102 L 132 102 L 132 203.941406 L 13 203.941406 Z M 13 102 " clip-rule="nonzero"/>
        </clipPath>
    </defs>
    <g clip-path="url(#32c8d13d0e)">
        <path fill="#ffffff" d="M 211.066406 223.039062 L 211.066406 279.289062 C 211.066406 280.816406 209.828125 282.054688 208.292969 282.054688 C 206.765625 282.054688 205.523438 280.816406 205.523438 279.289062 L 205.523438 223.039062 C 205.523438 221.503906 206.765625 220.265625 208.292969 220.265625 C 209.828125 220.265625 211.066406 221.503906 211.066406 223.039062 Z M 109.910156 223.039062 L 109.910156 279.289062 C 109.910156 280.816406 108.671875 282.054688 107.136719 282.054688 C 105.609375 282.054688 104.363281 280.816406 104.363281 279.289062 L 104.363281 223.039062 C 104.363281 221.503906 105.609375 220.265625 107.136719 220.265625 C 108.671875 220.265625 109.910156 221.503906 109.910156 223.039062 Z M 160.492188 223.039062 L 160.492188 279.289062 C 160.492188 280.816406 159.246094 282.054688 157.71875 282.054688 C 156.183594 282.054688 154.945312 280.816406 154.945312 279.289062 L 154.945312 223.039062 C 154.945312 221.503906 156.183594 220.265625 157.71875 220.265625 C 159.246094 220.265625 160.492188 221.503906 160.492188 223.039062 Z M 295.882812 130 L 256.003906 149.742188 L 245.660156 134.40625 L 287.757812 113.605469 C 289.949219 112.523438 292.429688 112.351562 294.742188 113.136719 C 297.054688 113.917969 298.929688 115.554688 300.011719 117.738281 C 302.257812 122.261719 300.394531 127.757812 295.882812 130 Z M 256.898438 175.167969 C 253.386719 177.535156 248.257812 176.523438 245.902344 173.027344 L 238.363281 161.835938 C 238.21875 161.472656 238.003906 161.148438 237.722656 160.875 L 226.167969 143.730469 C 229.738281 140.5 232.4375 136.324219 233.894531 131.609375 C 237.296875 132.6875 239.945312 135.835938 239.949219 135.835938 L 252.765625 154.863281 C 252.773438 154.871094 252.78125 154.886719 252.789062 154.890625 L 259.046875 164.179688 C 261.476562 167.804688 260.519531 172.730469 256.898438 175.167969 Z M 208.035156 145.175781 C 196.183594 145.175781 186.542969 135.539062 186.542969 123.683594 C 186.542969 111.835938 196.183594 102.191406 208.035156 102.191406 C 219.890625 102.191406 229.535156 111.835938 229.535156 123.683594 C 229.535156 135.539062 219.890625 145.175781 208.035156 145.175781 Z M 157.460938 145.175781 C 145.613281 145.175781 135.96875 135.539062 135.96875 123.683594 C 135.96875 111.835938 145.613281 102.191406 157.460938 102.191406 C 169.308594 102.191406 178.949219 111.835938 178.949219 123.683594 C 178.949219 135.539062 169.308594 145.175781 157.460938 145.175781 Z M 106.886719 145.175781 C 95.027344 145.175781 85.386719 135.539062 85.386719 123.683594 C 85.386719 111.835938 95.027344 102.191406 106.886719 102.191406 C 118.734375 102.191406 128.375 111.835938 128.375 123.683594 C 128.375 135.539062 118.734375 145.175781 106.886719 145.175781 Z M 77.199219 160.875 C 76.914062 161.148438 76.703125 161.472656 76.554688 161.835938 L 69.015625 173.027344 C 66.664062 176.519531 61.535156 177.535156 58.023438 175.167969 C 54.398438 172.730469 53.441406 167.804688 55.875 164.179688 L 62.113281 154.921875 C 62.132812 154.886719 62.15625 154.855469 62.179688 154.820312 L 74.828125 136.027344 C 74.859375 135.984375 77.558594 132.707031 81.027344 131.609375 C 82.480469 136.324219 85.179688 140.5 88.753906 143.730469 Z M 19.039062 130 C 14.523438 127.757812 12.664062 122.261719 14.910156 117.738281 C 15.992188 115.554688 17.867188 113.917969 20.171875 113.136719 C 22.492188 112.351562 24.96875 112.523438 27.167969 113.605469 L 69.246094 134.40625 L 58.914062 149.742188 Z M 304.984375 115.28125 C 303.238281 111.761719 300.234375 109.136719 296.515625 107.882812 C 292.789062 106.628906 288.808594 106.898438 285.292969 108.644531 L 241.949219 130.058594 C 240.273438 128.613281 237.847656 126.929688 234.953125 126.140625 C 235.03125 125.328125 235.074219 124.511719 235.074219 123.683594 C 235.074219 108.777344 222.945312 96.652344 208.035156 96.652344 C 196.488281 96.652344 186.617188 103.929688 182.75 114.140625 C 178.878906 103.929688 169.003906 96.652344 157.460938 96.652344 C 145.914062 96.652344 136.042969 103.929688 132.167969 114.140625 C 128.304688 103.929688 118.433594 96.652344 106.886719 96.652344 C 91.972656 96.652344 79.847656 108.777344 79.847656 123.683594 C 79.847656 124.511719 79.890625 125.328125 79.964844 126.140625 C 77.09375 126.921875 74.675781 128.597656 72.984375 130.066406 L 29.625 108.644531 C 26.109375 106.898438 22.121094 106.628906 18.402344 107.882812 C 14.6875 109.136719 11.683594 111.761719 9.933594 115.28125 C 6.339844 122.542969 9.324219 131.371094 16.582031 134.964844 L 55.789062 154.386719 L 51.277344 161.082031 C 47.132812 167.242188 48.765625 175.625 54.925781 179.773438 C 57.152344 181.265625 59.75 182.066406 62.433594 182.066406 C 66.925781 182.066406 71.101562 179.84375 73.613281 176.125 L 76.347656 172.058594 L 76.347656 279.289062 C 76.347656 280.816406 77.585938 282.054688 79.125 282.054688 C 80.652344 282.054688 81.894531 280.816406 81.894531 279.289062 L 81.894531 163.835938 L 93.230469 147.011719 C 97.242188 149.367188 101.90625 150.726562 106.886719 150.726562 C 115.945312 150.726562 123.980469 146.230469 128.886719 139.371094 L 128.886719 279.289062 C 128.886719 280.816406 130.125 282.054688 131.660156 282.054688 C 133.1875 282.054688 134.433594 280.816406 134.433594 279.289062 L 134.433594 137.835938 C 139.191406 145.558594 147.738281 150.726562 157.460938 150.726562 C 167.183594 150.726562 175.730469 145.558594 180.488281 137.835938 L 180.488281 279.289062 C 180.488281 280.816406 181.730469 282.054688 183.257812 282.054688 C 184.796875 282.054688 186.035156 280.816406 186.035156 279.289062 L 186.035156 139.371094 C 190.9375 146.230469 198.972656 150.726562 208.035156 150.726562 C 213.015625 150.726562 217.679688 149.367188 221.691406 147.011719 L 233.023438 163.835938 L 233.023438 279.289062 C 233.023438 280.816406 234.269531 282.054688 235.796875 282.054688 C 237.332031 282.054688 238.570312 280.816406 238.570312 279.289062 L 238.570312 172.058594 L 241.308594 176.125 C 243.816406 179.84375 247.992188 182.066406 252.484375 182.066406 C 255.171875 182.066406 257.769531 181.265625 259.996094 179.773438 C 266.15625 175.625 267.785156 167.242188 263.640625 161.082031 L 259.125 154.386719 L 298.335938 134.964844 C 305.597656 131.371094 308.578125 122.542969 304.984375 115.28125 " fill-opacity="1" fill-rule="nonzero"/>
    </g>
    <g clip-path="url(#e3e2efc958)">
        <path fill="#38b6ff" d="M 180.488281 279.289062 L 180.488281 137.835938 C 175.730469 145.558594 167.183594 150.726562 157.460938 150.726562 C 147.738281 150.726562 139.191406 145.558594 134.433594 137.835938 L 134.433594 279.289062 C 134.433594 280.816406 133.1875 282.054688 131.660156 282.054688 L 157.71875 282.054688 C 156.183594 282.054688 154.945312 280.816406 154.945312 279.289062 L 154.945312 223.039062 C 154.945312 221.503906 156.183594 220.265625 157.71875 220.265625 C 159.246094 220.265625 160.492188 221.503906 160.492188 223.039062 L 160.492188 279.289062 C 160.492188 280.816406 159.246094 282.054688 157.71875 282.054688 L 183.257812 282.054688 C 181.730469 282.054688 180.488281 280.816406 180.488281 279.289062 Z M 157.460938 102.191406 C 145.613281 102.191406 135.96875 111.835938 135.96875 123.683594 C 135.96875 135.539062 145.613281 145.175781 157.460938 145.175781 C 169.308594 145.175781 178.949219 135.539062 178.949219 123.683594 C 178.949219 111.835938 169.308594 102.191406 157.460938 102.191406 Z M 259.046875 164.179688 L 252.789062 154.890625 C 252.78125 154.886719 252.773438 154.871094 252.765625 154.863281 L 239.949219 135.835938 C 239.945312 135.835938 237.296875 132.6875 233.894531 131.609375 C 232.4375 136.324219 229.738281 140.5 226.167969 143.730469 L 237.722656 160.875 C 238.003906 161.148438 238.21875 161.472656 238.363281 161.835938 L 245.902344 173.027344 C 248.257812 176.523438 253.386719 177.535156 256.898438 175.167969 C 260.519531 172.730469 261.476562 167.804688 259.046875 164.179688 Z M 88.753906 143.730469 L 77.199219 160.875 C 76.914062 161.148438 76.703125 161.472656 76.554688 161.835938 L 69.015625 173.027344 C 66.664062 176.519531 61.535156 177.535156 58.023438 175.167969 C 54.398438 172.730469 53.441406 167.804688 55.875 164.179688 L 62.113281 154.921875 C 62.132812 154.886719 62.15625 154.855469 62.179688 154.820312 L 74.828125 136.027344 C 74.859375 135.984375 77.558594 132.707031 81.027344 131.609375 C 82.480469 136.324219 85.179688 140.5 88.753906 143.730469 " fill-opacity="1" fill-rule="nonzero"/>
    </g>
    <g clip-path="url(#ff2c8a5f35)">
        <path fill="#8c52ff" d="M 233.023438 279.289062 L 233.023438 163.835938 L 221.691406 147.011719 C 217.679688 149.367188 213.015625 150.726562 208.035156 150.726562 C 198.972656 150.726562 190.9375 146.230469 186.035156 139.371094 L 186.035156 279.289062 C 186.035156 280.816406 184.796875 282.054688 183.257812 282.054688 L 208.292969 282.054688 C 206.765625 282.054688 205.523438 280.816406 205.523438 279.289062 L 205.523438 223.039062 C 205.523438 221.503906 206.765625 220.265625 208.292969 220.265625 C 209.828125 220.265625 211.066406 221.503906 211.066406 223.039062 L 211.066406 279.289062 C 211.066406 280.816406 209.828125 282.054688 208.292969 282.054688 L 235.796875 282.054688 C 234.269531 282.054688 233.023438 280.816406 233.023438 279.289062 Z M 208.035156 102.191406 C 196.183594 102.191406 186.542969 111.835938 186.542969 123.683594 C 186.542969 135.539062 196.183594 145.175781 208.035156 145.175781 C 219.890625 145.175781 229.535156 135.539062 229.535156 123.683594 C 229.535156 111.835938 219.890625 102.191406 208.035156 102.191406 Z M 295.882812 130 L 256.003906 149.742188 L 245.660156 134.40625 L 287.757812 113.605469 C 289.949219 112.523438 292.429688 112.351562 294.742188 113.136719 C 297.054688 113.917969 298.929688 115.554688 300.011719 117.738281 C 302.257812 122.261719 300.394531 127.757812 295.882812 130 " fill-opacity="1" fill-rule="nonzero"/>
    </g>
    <g clip-path="url(#b764804dd7)">
        <path fill="#ff66c4" d="M 128.886719 279.289062 L 128.886719 139.371094 C 123.980469 146.230469 115.945312 150.726562 106.886719 150.726562 C 101.90625 150.726562 97.242188 149.367188 93.230469 147.011719 L 81.894531 163.835938 L 81.894531 279.289062 C 81.894531 280.816406 80.652344 282.054688 79.125 282.054688 L 107.136719 282.054688 C 105.609375 282.054688 104.363281 280.816406 104.363281 279.289062 L 104.363281 223.039062 C 104.363281 221.503906 105.609375 220.265625 107.136719 220.265625 C 108.671875 220.265625 109.910156 221.503906 109.910156 223.039062 L 109.910156 279.289062 C 109.910156 280.816406 108.671875 282.054688 107.136719 282.054688 L 131.660156 282.054688 C 130.125 282.054688 128.886719 280.816406 128.886719 279.289062 Z M 106.886719 102.191406 C 95.027344 102.191406 85.386719 111.835938 85.386719 123.683594 C 85.386719 135.539062 95.027344 145.175781 106.886719 145.175781 C 118.734375 145.175781 128.375 135.539062 128.375 123.683594 C 128.375 111.835938 118.734375 102.191406 106.886719 102.191406 Z M 69.246094 134.40625 L 58.914062 149.742188 L 19.039062 130 C 14.523438 127.757812 12.664062 122.261719 14.910156 117.738281 C 15.992188 115.554688 17.867188 113.917969 20.171875 113.136719 C 22.492188 112.351562 24.96875 112.523438 27.167969 113.605469 L 69.246094 134.40625 " fill-opacity="1" fill-rule="nonzero"/>
    </g>
</svg>