<svg xmlns="http://www.w3.org/2000/svg" xmlns:xlink="http://www.w3.org/1999/xlink" width="420" zoomAndPan="magnify" viewBox="0 0 315 314.999992" height="420" preserveAspectRatio="xMidYMid meet" version="1.0">
    <defs>
        <g/>
    </defs>
    <g fill="#38b6ff" fill-opacity="1">
        <g transform="translate(138.644467, 189.096682)">
            <g>
                <path d="M 5.5 0 L 5.5 -47.015625 L 21.71875 -47.015625 L 21.71875 -40.234375 L 21.90625 -40.234375 C 22.03125 -40.484375 22.226562 -40.789062 22.5 -41.15625 C 22.769531 -41.519531 23.363281 -42.160156 24.28125 -43.078125 C 25.195312 -43.992188 26.175781 -44.816406 27.21875 -45.546875 C 28.257812 -46.285156 29.601562 -46.941406 31.25 -47.515625 C 32.90625 -48.097656 34.585938 -48.390625 36.296875 -48.390625 C 38.066406 -48.390625 39.804688 -48.144531 41.515625 -47.65625 C 43.234375 -47.164062 44.488281 -46.675781 45.28125 -46.1875 L 46.5625 -45.46875 L 39.78125 -31.71875 C 37.757812 -33.425781 34.945312 -34.28125 31.34375 -34.28125 C 29.382812 -34.28125 27.703125 -33.851562 26.296875 -33 C 24.898438 -32.144531 23.910156 -31.101562 23.328125 -29.875 C 22.742188 -28.65625 22.328125 -27.617188 22.078125 -26.765625 C 21.835938 -25.910156 21.71875 -25.238281 21.71875 -24.75 L 21.71875 0 Z M 5.5 0 "/>
            </g>
        </g>
        <g transform="translate(184.28786, 189.096682)">
            <g>
                <path d="M 7.0625 -73.234375 C 8.957031 -75.128906 11.21875 -76.078125 13.84375 -76.078125 C 16.46875 -76.078125 18.726562 -75.128906 20.625 -73.234375 C 22.519531 -71.335938 23.46875 -69.078125 23.46875 -66.453125 C 23.46875 -63.828125 22.519531 -61.566406 20.625 -59.671875 C 18.726562 -57.773438 16.46875 -56.828125 13.84375 -56.828125 C 11.21875 -56.828125 8.957031 -57.773438 7.0625 -59.671875 C 5.164062 -61.566406 4.21875 -63.828125 4.21875 -66.453125 C 4.21875 -69.078125 5.164062 -71.335938 7.0625 -73.234375 Z M 5.5 -47.015625 L 5.5 0 L 21.71875 0 L 21.71875 -47.015625 Z M 5.5 -47.015625 "/>
            </g>
        </g>
    </g>
    <g fill="#ff66c4" fill-opacity="1">
        <g transform="translate(13.43937, 189.096682)">
            <g>
                <path d="M 53.890625 -41.140625 C 58.296875 -36.316406 60.5 -30.421875 60.5 -23.453125 C 60.5 -16.492188 58.296875 -10.613281 53.890625 -5.8125 C 49.492188 -1.019531 43.90625 1.375 37.125 1.375 C 30.882812 1.375 25.75 -0.851562 21.71875 -5.3125 L 21.546875 -5.3125 L 21.546875 0 L 5.5 0 L 5.5 -78.828125 L 21.71875 -78.828125 L 21.71875 -42.53125 C 25.75 -46.4375 30.882812 -48.390625 37.125 -48.390625 C 43.90625 -48.390625 49.492188 -45.972656 53.890625 -41.140625 Z M 40.234375 -15.53125 C 42.253906 -17.582031 43.265625 -20.226562 43.265625 -23.46875 C 43.265625 -26.707031 42.207031 -29.363281 40.09375 -31.4375 C 37.988281 -33.507812 35.378906 -34.546875 32.265625 -34.546875 C 29.210938 -34.546875 26.628906 -33.507812 24.515625 -31.4375 C 22.410156 -29.363281 21.359375 -26.707031 21.359375 -23.46875 C 21.359375 -20.289062 22.378906 -17.660156 24.421875 -15.578125 C 26.472656 -13.503906 29.085938 -12.46875 32.265625 -12.46875 C 35.566406 -12.46875 38.222656 -13.488281 40.234375 -15.53125 Z M 40.234375 -15.53125 "/>
            </g>
        </g>
        <g transform="translate(76.038643, 189.096682)">
            <g>
                <path d="M 8.703125 -5.8125 C 4.304688 -10.613281 2.109375 -16.492188 2.109375 -23.453125 C 2.109375 -30.421875 4.304688 -36.316406 8.703125 -41.140625 C 13.109375 -45.972656 18.703125 -48.390625 25.484375 -48.390625 C 31.710938 -48.390625 36.84375 -46.4375 40.875 -42.53125 L 40.875 -47.015625 L 57.109375 -47.015625 L 57.109375 0 L 41.0625 0 L 41.0625 -5.3125 L 40.875 -5.3125 C 36.84375 -0.851562 31.710938 1.375 25.484375 1.375 C 18.703125 1.375 13.109375 -1.019531 8.703125 -5.8125 Z M 22.5 -31.4375 C 20.394531 -29.363281 19.34375 -26.707031 19.34375 -23.46875 C 19.34375 -20.226562 20.347656 -17.582031 22.359375 -15.53125 C 24.378906 -13.488281 27.039062 -12.46875 30.34375 -12.46875 C 33.519531 -12.46875 36.128906 -13.503906 38.171875 -15.578125 C 40.222656 -17.660156 41.25 -20.289062 41.25 -23.46875 C 41.25 -26.707031 40.191406 -29.363281 38.078125 -31.4375 C 35.972656 -33.507812 33.394531 -34.546875 30.34375 -34.546875 C 27.21875 -34.546875 24.601562 -33.507812 22.5 -31.4375 Z M 22.5 -31.4375 "/>
            </g>
        </g>
    </g>
    <g fill="#8c52ff" fill-opacity="1">
        <g transform="translate(211.974878, 189.096682)">
            <g>
                <path d="M 5.5 0 L 5.5 -78.828125 L 21.71875 -78.828125 L 21.71875 0 Z M 5.5 0 "/>
            </g>
        </g>
    </g>
    <g fill="#8c52ff" fill-opacity="1">
        <g transform="translate(239.195944, 189.096682)">
            <g>
                <path d="M 21.265625 -60.859375 L 39.875 -76.984375 L 48.21875 -66.453125 L 26.390625 -53.796875 Z M 10.265625 -41.375 C 4.828125 -36.707031 2.109375 -30.738281 2.109375 -23.46875 C 2.109375 -16.195312 4.71875 -10.238281 9.9375 -5.59375 C 15.164062 -0.945312 22 1.375 30.4375 1.375 C 38.5625 1.375 45.265625 -0.960938 50.546875 -5.640625 C 55.835938 -10.316406 58.484375 -16.257812 58.484375 -23.46875 C 58.484375 -30.675781 55.773438 -36.628906 50.359375 -41.328125 C 44.953125 -46.035156 38.3125 -48.390625 30.4375 -48.390625 C 22.425781 -48.390625 15.703125 -46.050781 10.265625 -41.375 Z M 22.359375 -15.53125 C 20.347656 -17.582031 19.34375 -20.226562 19.34375 -23.46875 C 19.34375 -26.707031 20.394531 -29.363281 22.5 -31.4375 C 24.601562 -33.507812 27.21875 -34.546875 30.34375 -34.546875 C 33.394531 -34.546875 35.972656 -33.507812 38.078125 -31.4375 C 40.191406 -29.363281 41.25 -26.707031 41.25 -23.46875 C 41.25 -20.289062 40.222656 -17.660156 38.171875 -15.578125 C 36.128906 -13.503906 33.519531 -12.46875 30.34375 -12.46875 C 27.039062 -12.46875 24.378906 -13.488281 22.359375 -15.53125 Z M 22.359375 -15.53125 "/>
            </g>
        </g>
    </g>
</svg>